<svg width="242" height="60" viewBox="0 0 242 60" fill="none" xmlns="http://www.w3.org/2000/svg">
<path d="M16.8961 47.168C13.1841 47.168 9.98407 46.5707 7.29607 45.376C4.65074 44.1387 2.21874 42.2827 7.42674e-05 39.808L6.52807 33.344C7.97874 35.008 9.57874 36.3093 11.3281 37.248C13.1201 38.144 15.1894 38.592 17.5361 38.592C19.6694 38.592 21.3121 38.208 22.4641 37.44C23.6587 36.672 24.2561 35.6053 24.2561 34.24C24.2561 33.0027 23.8721 32 23.1041 31.232C22.3361 30.464 21.3121 29.8027 20.0321 29.248C18.7947 28.6933 17.4081 28.16 15.8721 27.648C14.3787 27.136 12.8854 26.56 11.3921 25.92C9.89874 25.2373 8.51207 24.4053 7.23207 23.424C5.99474 22.4 4.99207 21.1413 4.22407 19.648C3.45607 18.112 3.07207 16.192 3.07207 13.888C3.07207 11.1147 3.73341 8.72532 5.05607 6.71999C6.42141 4.71465 8.29874 3.19999 10.6881 2.17599C13.0774 1.10932 15.8294 0.575989 18.9441 0.575989C22.1014 0.575989 24.9814 1.13065 27.5841 2.23999C30.2294 3.34932 32.4054 4.86399 34.1121 6.78399L27.5841 13.248C26.2187 11.84 24.8321 10.7947 23.4241 10.112C22.0587 9.42932 20.5014 9.08799 18.7521 9.08799C17.0027 9.08799 15.6161 9.42932 14.5921 10.112C13.5681 10.752 13.0561 11.6907 13.0561 12.928C13.0561 14.08 13.4401 15.0187 14.2081 15.744C14.9761 16.4267 15.9787 17.024 17.2161 17.536C18.4961 18.048 19.8827 18.56 21.3761 19.072C22.9121 19.584 24.4267 20.1813 25.9201 20.864C27.4134 21.5467 28.7787 22.4213 30.0161 23.488C31.2961 24.512 32.3201 25.8347 33.0881 27.456C33.8561 29.0347 34.2401 30.9973 34.2401 33.344C34.2401 37.6533 32.7041 41.0453 29.6321 43.52C26.5601 45.952 22.3147 47.168 16.8961 47.168ZM53.8291 47.104C50.9704 47.104 48.4104 46.4 46.1491 44.992C43.9304 43.584 42.1597 41.664 40.8371 39.232C39.5571 36.8 38.9171 34.0267 38.9171 30.912C38.9171 27.7973 39.5571 25.024 40.8371 22.592C42.1597 20.16 43.9304 18.24 46.1491 16.832C48.4104 15.424 50.9704 14.72 53.8291 14.72C55.9197 14.72 57.7971 15.1253 59.4611 15.936C61.1677 16.7467 62.5544 17.8773 63.6211 19.328C64.6877 20.736 65.2851 22.3573 65.4131 24.192V37.632C65.2851 39.4667 64.6877 41.1093 63.6211 42.56C62.5971 43.968 61.2317 45.0773 59.5251 45.888C57.8184 46.6987 55.9197 47.104 53.8291 47.104ZM55.8131 38.272C57.9037 38.272 59.5891 37.5893 60.8691 36.224C62.1491 34.816 62.7891 33.0453 62.7891 30.912C62.7891 29.4613 62.4904 28.1813 61.8931 27.072C61.3384 25.9627 60.5277 25.1093 59.4611 24.512C58.4371 23.872 57.2424 23.552 55.8771 23.552C54.5117 23.552 53.2957 23.872 52.2291 24.512C51.2051 25.1093 50.3731 25.9627 49.7331 27.072C49.1357 28.1813 48.8371 29.4613 48.8371 30.912C48.8371 32.32 49.1357 33.5787 49.7331 34.688C50.3304 35.7973 51.1624 36.672 52.2291 37.312C53.2957 37.952 54.4904 38.272 55.8131 38.272ZM62.4051 46.464V38.08L63.8771 30.528L62.4051 22.976V15.36H72.0051V46.464H62.4051ZM80.1796 46.464V-1.14441e-05H89.9716V46.464H80.1796ZM102.563 46.464V2.49599H112.355V46.464H102.563ZM95.5231 23.68V15.36H119.395V23.68H95.5231ZM132.606 46.464L121.854 15.36H131.454L138.11 37.952L135.294 38.016L142.654 15.36H150.59L158.014 38.016L155.134 37.952L161.854 15.36H171.454L160.702 46.464H152.702L145.47 24.96H147.902L140.542 46.464H132.606ZM185.12 46.592L172.32 15.36H182.88L191.008 40.128H187.104L195.424 15.36H205.984L192.672 46.592H185.12ZM177.12 59.584L186.464 39.424L192.672 46.592L187.168 59.584H177.12ZM230.141 46.464L219.261 30.336L230.077 15.36H241.021L227.965 32.192L228.285 28.16L241.661 46.464H230.141ZM210.237 46.464V-1.14441e-05H220.029V46.464H210.237Z" fill="#1A0F0A"/>
</svg>
