<svg width="362" height="95" viewBox="0 0 362 95" fill="none" xmlns="http://www.w3.org/2000/svg">
<mask id="mask0_69_245" style="mask-type:alpha" maskUnits="userSpaceOnUse" x="10" y="10" width="75" height="75">
<circle cx="47.4601" cy="47.46" r="37.0286" transform="rotate(20 47.4601 47.46)" fill="#C4C4C4"/>
</mask>
<g mask="url(#mask0_69_245)">
<circle cx="90.4692" cy="26.5211" r="30.7211" transform="rotate(65 90.4692 26.5211)" fill="#008C45"/>
<circle cx="5.22501" cy="66.2723" r="30.7211" transform="rotate(65 5.22501 66.2723)" fill="#008C45"/>
<circle cx="27.9716" cy="3.77437" r="30.7211" transform="rotate(65 27.9716 3.77437)" fill="#008C45"/>
<circle cx="69.6742" cy="88.1072" r="30.7211" transform="rotate(65 69.6742 88.1072)" fill="#008C45"/>
</g>
<path d="M136.84 71.664C133.128 71.664 129.928 71.0667 127.24 69.872C124.595 68.6347 122.163 66.7787 119.944 64.304L126.472 57.84C127.923 59.504 129.523 60.8053 131.272 61.744C133.064 62.64 135.133 63.088 137.48 63.088C139.613 63.088 141.256 62.704 142.408 61.936C143.603 61.168 144.2 60.1013 144.2 58.736C144.2 57.4987 143.816 56.496 143.048 55.728C142.28 54.96 141.256 54.2987 139.976 53.744C138.739 53.1893 137.352 52.656 135.816 52.144C134.323 51.632 132.829 51.056 131.336 50.416C129.843 49.7333 128.456 48.9013 127.176 47.92C125.939 46.896 124.936 45.6373 124.168 44.144C123.4 42.608 123.016 40.688 123.016 38.384C123.016 35.6107 123.677 33.2213 125 31.216C126.365 29.2107 128.243 27.696 130.632 26.672C133.021 25.6053 135.773 25.072 138.888 25.072C142.045 25.072 144.925 25.6267 147.528 26.736C150.173 27.8453 152.349 29.36 154.056 31.28L147.528 37.744C146.163 36.336 144.776 35.2907 143.368 34.608C142.003 33.9253 140.445 33.584 138.696 33.584C136.947 33.584 135.56 33.9253 134.536 34.608C133.512 35.248 133 36.1867 133 37.424C133 38.576 133.384 39.5147 134.152 40.24C134.92 40.9227 135.923 41.52 137.16 42.032C138.44 42.544 139.827 43.056 141.32 43.568C142.856 44.08 144.371 44.6773 145.864 45.36C147.357 46.0427 148.723 46.9173 149.96 47.984C151.24 49.008 152.264 50.3307 153.032 51.952C153.8 53.5307 154.184 55.4933 154.184 57.84C154.184 62.1493 152.648 65.5413 149.576 68.016C146.504 70.448 142.259 71.664 136.84 71.664ZM173.773 71.6C170.914 71.6 168.354 70.896 166.093 69.488C163.874 68.08 162.104 66.16 160.781 63.728C159.501 61.296 158.861 58.5227 158.861 55.408C158.861 52.2933 159.501 49.52 160.781 47.088C162.104 44.656 163.874 42.736 166.093 41.328C168.354 39.92 170.914 39.216 173.773 39.216C175.864 39.216 177.741 39.6213 179.405 40.432C181.112 41.2427 182.498 42.3733 183.565 43.824C184.632 45.232 185.229 46.8533 185.357 48.688V62.128C185.229 63.9627 184.632 65.6053 183.565 67.056C182.541 68.464 181.176 69.5733 179.469 70.384C177.762 71.1947 175.864 71.6 173.773 71.6ZM175.757 62.768C177.848 62.768 179.533 62.0853 180.813 60.72C182.093 59.312 182.733 57.5413 182.733 55.408C182.733 53.9573 182.434 52.6773 181.837 51.568C181.282 50.4587 180.472 49.6053 179.405 49.008C178.381 48.368 177.186 48.048 175.821 48.048C174.456 48.048 173.24 48.368 172.173 49.008C171.149 49.6053 170.317 50.4587 169.677 51.568C169.08 52.6773 168.781 53.9573 168.781 55.408C168.781 56.816 169.08 58.0747 169.677 59.184C170.274 60.2933 171.106 61.168 172.173 61.808C173.24 62.448 174.434 62.768 175.757 62.768ZM182.349 70.96V62.576L183.821 55.024L182.349 47.472V39.856H191.949V70.96H182.349ZM200.123 70.96V24.496H209.915V70.96H200.123ZM222.507 70.96V26.992H232.299V70.96H222.507ZM215.467 48.176V39.856H239.339V48.176H215.467ZM252.549 70.96L241.797 39.856H251.397L258.053 62.448L255.237 62.512L262.597 39.856H270.533L277.957 62.512L275.077 62.448L281.797 39.856H291.397L280.645 70.96H272.645L265.413 49.456H267.845L260.485 70.96H252.549ZM305.063 71.088L292.263 39.856H302.823L310.951 64.624H307.047L315.367 39.856H325.927L312.615 71.088H305.063ZM297.063 84.08L306.407 63.92L312.615 71.088L307.111 84.08H297.063ZM350.085 70.96L339.205 54.832L350.021 39.856H360.965L347.909 56.688L348.229 52.656L361.605 70.96H350.085ZM330.181 70.96V24.496H339.973V70.96H330.181Z" fill="#F5F2EB"/>
</svg>
