<svg xmlns="http://www.w3.org/2000/svg" viewBox="0 0 600 600" width="600" height="600" style="max-width:100%;height:auto">
<path d="M580 300.71 L579.91 299.97 L579.65 299.23 L579.21 298.5 L578.59 297.77 L577.81 297.07 L576.84 296.38 L575.7 295.71 L574.39 295.06 L572.91 294.43 L571.26 293.84 L569.44 293.27 L567.45 292.75 L565.3 292.26 L562.99 291.81 L560.51 291.41 L557.87 291.05 L555.08 290.74 L552.14 290.48 L549.04 290.29 L545.79 290.14 L542.4 290.05 L538.86 290.03 L535.19 290.08 L531.38 290.19 L527.43 290.36 L523.36 290.62 L519.16 290.94 L514.83 291.33 L510.38 291.81 L505.83 292.36 L501.15 292.99 L496.38 293.69 L491.51 294.49 L486.52 295.37 L481.45 296.33 L476.29 297.36 L471.04 298.5 L465.71 299.72 L460.3 301.03 L454.82 302.41 L449.27 303.9 L443.67 305.47 L438 307.12 L432.28 308.86 L426.5 310.71 L420.69 312.62 L414.83 314.63 L408.95 316.73 L403.03 318.91 L397.08 321.18 L391.13 323.53 L385.15 325.95 L379.17 328.47 L373.17 331.07 L367.18 333.74 L361.19 336.5 L355.21 339.32 L349.24 342.22 L343.3 345.19 L337.38 348.24 L331.48 351.35 L325.61 354.52 L319.79 357.76 L314 361.06 L308.27 364.41 L302.58 367.82 L296.93 371.29 L291.37 374.8 L285.84 378.36 L280.4 381.95 L275.02 385.6 L269.71 389.28 L264.49 392.99 L259.34 396.73 L254.27 400.49 L249.29 404.28 L244.41 408.09 L239.62 411.91 L234.93 415.75 L230.33 419.59 L225.84 423.43 L221.45 427.28 L217.17 431.12 L213.01 434.96 L208.96 438.77 L205.02 442.57 L201.2 446.36 L197.49 450.12 L193.91 453.84 L190.45 457.55 L187.12 461.21 L183.9 464.82 L180.81 468.4 L177.86 471.91 L175.02 475.39 L172.32 478.79 L169.75 482.15 L167.3 485.43 L165 488.65 L162.82 491.78 L160.77 494.85 L158.85 497.84 L157.05 500.72 L155.39 503.54 L153.86 506.25 L152.45 508.86 L151.18 511.38 L150.03 513.79 L149.01 516.09 L148.11 518.28 L147.34 520.36 L146.69 522.32 L146.16 524.17 L145.74 525.89 L145.45 527.47 L145.26 528.94 L145.2 530.26 L145.24 531.46 L145.4 532.52 L145.66 533.44 L146.02 534.22 L146.49 534.85 L147.05 535.35 L147.71 535.69 L148.47 535.87 L149.31 535.92 L150.25 535.81 L151.26 535.54 L152.36 535.13 L153.54 534.55 L154.8 533.81 L156.12 532.93 L157.51 531.88 L158.98 530.67 L160.5 529.31 L162.08 527.79 L163.71 526.11 L165.4 524.26 L167.13 522.26 L168.91 520.11 L170.73 517.78 L172.59 515.31 L174.47 512.69 L176.39 509.9 L178.34 506.97 L180.3 503.87 L182.3 500.63 L184.3 497.24 L186.31 493.7 L188.34 490.01 L190.37 486.18 L192.4 482.21 L194.42 478.1 L196.45 473.85 L198.45 469.48 L200.46 464.97 L202.44 460.33 L204.41 455.56 L206.35 450.67 L208.27 445.66 L210.16 440.55 L212.03 435.31 L213.84 429.96 L215.63 424.51 L217.38 418.97 L219.09 413.31 L220.76 407.58 L222.38 401.75 L223.94 395.84 L225.45 389.84 L226.92 383.76 L228.33 377.62 L229.68 371.41 L230.97 365.14 L232.19 358.81 L233.36 352.42 L234.46 345.99 L235.49 339.52 L236.46 333 L237.36 326.44 L238.19 319.87 L238.95 313.26 L239.63 306.64 L240.25 300 L240.8 293.36 L241.28 286.71 L241.67 280.07 L241.99 273.42 L242.25 266.79 L242.43 260.17 L242.53 253.58 L242.57 247.01 L242.53 240.48 L242.42 233.98 L242.25 227.53 L241.99 221.11 L241.67 214.76 L241.29 208.45 L240.84 202.21 L240.32 196.04 L239.73 189.93 L239.08 183.9 L238.38 177.94 L237.62 172.08 L236.79 166.3 L235.91 160.61 L234.97 155.02 L233.99 149.53 L232.95 144.15 L231.87 138.87 L230.75 133.71 L229.58 128.66 L228.38 123.73 L227.13 118.93 L225.86 114.26 L224.55 109.71 L223.22 105.3 L221.85 101.02 L220.47 96.88 L219.07 92.89 L217.65 89.04 L216.23 85.34 L214.78 81.78 L213.34 78.38 L211.88 75.13 L210.44 72.04 L208.99 69.1 L207.56 66.33 L206.13 63.71 L204.72 61.26 L203.33 58.97 L201.95 56.84 L200.59 54.87 L199.28 53.08 L197.99 51.46 L196.73 49.99 L195.51 48.69 L194.34 47.56 L193.2 46.61 L192.12 45.81 L191.09 45.18 L190.12 44.72 L189.2 44.42 L188.34 44.29 L187.55 44.32 L186.83 44.51 L186.18 44.86 L185.6 45.38 L185.1 46.05 L184.67 46.89 L184.33 47.87 L184.07 49.01 L183.91 50.3 L183.83 51.74 L183.84 53.32 L183.95 55.05 L184.16 56.93 L184.46 58.93 L184.87 61.08 L185.39 63.35 L185.99 65.77 L186.72 68.3 L187.55 70.96 L188.49 73.74 L189.54 76.64 L190.7 79.65 L191.98 82.76 L193.37 85.99 L194.88 89.32 L196.5 92.75 L198.24 96.27 L200.1 99.88 L202.07 103.59 L204.16 107.37 L206.38 111.23 L208.71 115.16 L211.15 119.17 L213.71 123.23 L216.39 127.37 L219.19 131.56 L222.1 135.8 L225.12 140.1 L228.27 144.44 L231.52 148.81 L234.88 153.22 L238.35 157.68 L241.94 162.14 L245.62 166.64 L249.41 171.15 L253.31 175.67 L257.3 180.22 L261.4 184.76 L265.59 189.3 L269.87 193.83 L274.24 198.36 L278.7 202.88 L283.25 207.39 L287.87 211.88 L292.59 216.35 L297.36 220.78 L302.23 225.18 L307.16 229.56 L312.15 233.88 L317.2 238.18 L322.32 242.41 L327.49 246.61 L332.7 250.76 L337.97 254.84 L343.29 258.87 L348.63 262.84 L354.02 266.75 L359.44 270.58 L364.88 274.34 L370.34 278.04 L375.82 281.65 L381.32 285.2 L386.83 288.67 L392.33 292.04 L397.84 295.34 L403.34 298.54 L408.84 301.66 L414.32 304.7 L419.77 307.64 L425.22 310.5 L430.62 313.25 L436 315.91 L441.34 318.48 L446.63 320.95 L451.88 323.33 L457.08 325.6 L462.22 327.78 L467.31 329.86 L472.32 331.84 L477.26 333.73 L482.14 335.51 L486.93 337.19 L491.64 338.78 L496.26 340.28 L500.79 341.67 L505.22 342.97 L509.56 344.16 L513.79 345.27 L517.91 346.29 L521.92 347.2 L525.81 348.03 L529.58 348.77 L533.23 349.43 L536.76 349.99 L540.15 350.47 L543.41 350.86 L546.53 351.18 L549.51 351.42 L552.35 351.58 L555.04 351.67 L557.58 351.69 L559.98 351.63 L562.22 351.5 L564.3 351.31 L566.22 351.07 L567.98 350.76 L569.58 350.4 L571.01 349.98 L572.29 349.51 L573.38 348.99 L574.32 348.43 L575.08 347.83 L575.68 347.18 L576.1 346.51 L576.34 345.8 L576.42 345.06 L576.31 344.29 L576.03 343.51 L575.58 342.7 L574.96 341.88 L574.16 341.05 L573.18 340.2 L572.03 339.35 L570.71 338.5 L569.22 337.64 L567.55 336.79 L565.71 335.96 L563.7 335.13 L561.53 334.31 L559.18 333.51 L556.68 332.72 L554.01 331.97 L551.18 331.24 L548.19 330.54 L545.05 329.87 L541.75 329.23 L538.3 328.63 L534.7 328.07 L530.95 327.56 L527.07 327.09 L523.03 326.67 L518.86 326.31 L514.56 325.99 L510.13 325.73 L505.58 325.52 L500.89 325.38 L496.08 325.3 L491.17 325.29 L486.14 325.34 L481 325.46 L475.76 325.65 L470.43 325.91 L464.99 326.23 L459.46 326.64 L453.84 327.11 L448.15 327.67 L442.38 328.3 L436.53 329.01 L430.62 329.8 L424.65 330.66 L418.62 331.61 L412.52 332.64 L406.39 333.74 L400.2 334.93 L393.98 336.19 L387.73 337.53 L381.45 338.95 L375.14 340.46 L368.81 342.04 L362.47 343.71 L356.12 345.45 L349.77 347.26 L343.41 349.14 L337.07 351.1 L330.73 353.14 L324.4 355.25 L318.1 357.43 L311.83 359.68 L305.58 361.99 L299.37 364.37 L293.2 366.81 L287.07 369.31 L280.98 371.87 L274.96 374.48 L268.98 377.15 L263.07 379.87 L257.23 382.64 L251.45 385.45 L245.76 388.31 L240.14 391.21 L234.59 394.14 L229.15 397.1 L223.79 400.1 L218.52 403.12 L213.34 406.18 L208.27 409.24 L203.3 412.33 L198.44 415.44 L193.69 418.55 L189.05 421.67 L184.52 424.79 L180.12 427.91 L175.83 431.03 L171.66 434.14 L167.62 437.24 L163.71 440.31 L159.93 443.38 L156.28 446.41 L152.76 449.42 L149.39 452.41 L146.14 455.34 L143.03 458.25 L140.06 461.11 L137.23 463.92 L134.54 466.69 L131.99 469.39 L129.59 472.05 L127.31 474.63 L125.2 477.14 L123.21 479.59 L121.38 481.97 L119.68 484.26 L118.13 486.48 L116.72 488.61 L115.45 490.65 L114.33 492.6 L113.33 494.45 L112.48 496.22 L111.77 497.86 L111.18 499.41 L110.74 500.85 L110.43 502.18 L110.26 503.39 L110.2 504.5 L110.29 505.47 L110.49 506.33 L110.82 507.05 L111.27 507.66 L111.84 508.13 L112.53 508.48 L113.33 508.69 L114.25 508.75 L115.27 508.69 L116.4 508.49 L117.63 508.13 L118.96 507.65 L120.39 507.02 L121.91 506.24 L123.52 505.32 L125.23 504.25 L127.02 503.03 L128.88 501.67 L130.82 500.15 L132.84 498.5 L134.92 496.68 L137.07 494.73 L139.29 492.61 L141.56 490.35 L143.9 487.95 L146.28 485.39 L148.7 482.69 L151.17 479.84 L153.69 476.85 L156.23 473.71 L158.81 470.44 L161.43 467.01 L164.06 463.45 L166.72 459.75 L169.39 455.92 L172.08 451.95 L174.77 447.84 L177.47 443.61 L180.18 439.26 L182.88 434.77 L185.59 430.16 L188.28 425.44 L190.95 420.59 L193.61 415.64 L196.26 410.57 L198.88 405.4 L201.48 400.13 L204.05 394.74 L206.59 389.28 L209.09 383.71 L211.56 378.05 L213.99 372.31 L216.37 366.5 L218.71 360.6 L221 354.62 L223.24 348.59 L225.42 342.48 L227.56 336.33 L229.63 330.11 L231.65 323.85 L233.6 317.53 L235.49 311.18 L237.32 304.8 L239.07 298.38 L240.76 291.93 L242.38 285.46 L243.93 278.97 L245.41 272.48 L246.81 265.97 L248.15 259.47 L249.4 252.97 L250.58 246.48 L251.68 240 L252.71 233.54 L253.67 227.1 L254.54 220.69 L255.33 214.32 L256.06 207.98 L256.71 201.68 L257.28 195.44 L257.77 189.25 L258.19 183.12 L258.54 177.04 L258.82 171.03 L259.02 165.1 L259.15 159.24 L259.2 153.47 L259.19 147.79 L259.12 142.19 L258.97 136.69 L258.77 131.28 L258.5 125.98 L258.18 120.79 L257.79 115.7 L257.34 110.73 L256.85 105.89 L256.29 101.16 L255.7 96.56 L255.05 92.1 L254.36 87.75 L253.63 83.55 L252.85 79.5 L252.05 75.58 L251.2 71.8 L250.33 68.18 L249.42 64.71 L248.5 61.39 L247.54 58.22 L246.58 55.22 L245.59 52.36 L244.6 49.68 L243.58 47.16 L242.57 44.8 L241.55 42.6 L240.54 40.59 L239.52 38.73 L238.51 37.05 L237.52 35.54 L236.54 34.19 L235.57 33.02 L234.62 32.02 L233.7 31.19 L232.81 30.54 L231.94 30.06 L231.11 29.76 L230.32 29.61 L229.56 29.66 L228.85 29.86 L228.18 30.23 L227.56 30.78 L227 31.5 L226.49 32.37 L226.05 33.42 L225.65 34.63 L225.33 36 L225.08 37.53 L224.89 39.22 L224.78 41.06 L224.74 43.05 L224.78 45.2 L224.9 47.5 L225.1 49.95 L225.39 52.53 L225.76 55.26 L226.23 58.12 L226.78 61.12 L227.42 64.25 L228.16 67.5 L228.99 70.87 L229.92 74.38 L230.95 78 L232.08 81.72 L233.3 85.56 L234.64 89.51 L236.07 93.55 L237.62 97.7 L239.26 101.93 L241 106.27 L242.85 110.68 L244.82 115.16 L246.88 119.74 L249.04 124.37 L251.32 129.08 L253.69 133.85 L256.18 138.68 L258.76 143.57 L261.45 148.51 L264.25 153.48 L267.14 158.49 L270.14 163.56 L273.24 168.64 L276.43 173.75 L279.72 178.88 L283.11 184.04 L286.58 189.2 L290.15 194.37 L293.81 199.56 L297.55 204.73 L301.39 209.9 L305.3 215.07 L309.29 220.22 L313.36 225.34 L317.51 230.45 L321.72 235.53 L326.01 240.59 L330.37 245.61 L334.78 250.58 L339.25 255.52 L343.78 260.42 L348.37 265.26 L353 270.04 L357.68 274.77 L362.41 279.45 L367.16 284.05 L371.95 288.59 L376.78 293.05 L381.63 297.45 L386.51 301.76 L391.39 306.01 L396.3 310.17 L401.22 314.23 L406.13 318.21 L411.06 322.11 L415.98 325.91 L420.89 329.62 L425.79 333.23 L430.68 336.75 L435.54 340.16 L440.38 343.47 L445.19 346.68 L449.96 349.78 L454.69 352.78 L459.39 355.68 L464.03 358.46 L468.62 361.14 L473.16 363.71 L477.64 366.17 L482.05 368.51 L486.38 370.75 L490.65 372.88 L494.84 374.9 L498.94 376.81 L502.95 378.59 L506.89 380.28 L510.71 381.86 L514.45 383.32 L518.08 384.69 L521.6 385.95 L525.01 387.09 L528.31 388.13 L531.49 389.07 L534.55 389.9 L537.48 390.64 L540.29 391.28 L542.96 391.82 L545.5 392.26 L547.9 392.62 L550.16 392.87 L552.28 393.05 L554.25 393.12 L556.09 393.12 L557.76 393.04 L559.27 392.87 L560.64 392.63 L561.85 392.32 L562.9 391.92 L563.78 391.47 L564.51 390.94 L565.07 390.36 L565.46 389.71 L565.69 389 L565.75 388.24 L565.64 387.43 L565.37 386.57 L564.92 385.67 L564.3 384.73 L563.52 383.75 L562.56 382.74 L561.42 381.69 L560.12 380.61 L558.65 379.52 L557.01 378.39 L555.2 377.26 L553.23 376.1 L551.09 374.94 L548.77 373.76 L546.31 372.59 L543.66 371.41 L540.86 370.25 L537.9 369.08 L534.78 367.92 L531.51 366.77 L528.08 365.64 L524.5 364.52 L520.77 363.43 L516.89 362.36 L512.87 361.33 L508.71 360.32 L504.41 359.34 L499.97 358.4 L495.4 357.5 L490.7 356.64 L485.88 355.83 L480.93 355.06 L475.87 354.35 L470.69 353.67 L465.41 353.06 L460.02 352.5 L454.52 352 L448.93 351.56 L443.24 351.17 L437.46 350.86 L431.59 350.61 L425.65 350.42 L419.63 350.3 L413.53 350.24 L407.37 350.27 L401.15 350.35 L394.88 350.52 L388.54 350.75 L382.16 351.06 L375.75 351.44 L369.29 351.9 L362.79 352.43 L356.28 353.02 L349.73 353.71 L343.17 354.46 L336.59 355.29 L330.02 356.19 L323.44 357.17 L316.86 358.22 L310.29 359.34 L303.73 360.53 L297.18 361.8 L290.66 363.13 L284.17 364.53 L277.72 366 L271.29 367.54 L264.9 369.14 L258.58 370.8 L252.29 372.52 L246.07 374.3 L239.91 376.14 L233.81 378.03 L227.78 379.98 L221.83 381.98 L215.95 384.02 L210.15 386.11 L204.44 388.24 L198.83 390.41 L193.3 392.62 L187.88 394.87 L182.56 397.14 L177.35 399.44 L172.23 401.77 L167.25 404.13 L162.37 406.5 L157.61 408.88 L152.97 411.28 L148.46 413.69 L144.07 416.1 L139.82 418.52 L135.7 420.93 L131.71 423.33 L127.87 425.74 L124.16 428.12 L120.59 430.49 L117.17 432.85 L113.9 435.18 L110.76 437.48 L107.78 439.75 L104.94 441.98 L102.25 444.18 L99.72 446.33 L97.33 448.45 L95.11 450.51 L93.03 452.52 L91.11 454.47 L89.34 456.36 L87.72 458.19 L86.25 459.94 L84.95 461.63 L83.8 463.25 L82.78 464.78 L81.93 466.24 L81.23 467.6 L80.67 468.89 L80.27 470.08 L80.01 471.18 L79.9 472.18 L79.94 473.08 L80.11 473.88 L80.42 474.57 L80.88 475.16 L81.47 475.63 L82.2 475.98 L83.06 476.24 L84.05 476.36 L85.17 476.37 L86.41 476.25 L87.78 476.02 L89.26 475.64 L90.86 475.16 L92.58 474.53 L94.4 473.78 L96.33 472.9 L98.37 471.88 L100.51 470.72 L102.75 469.44 L105.08 468.02 L107.49 466.46 L109.99 464.77 L112.58 462.94 L115.25 460.97 L118 458.86 L120.81 456.61 L123.69 454.23 L126.64 451.7 L129.64 449.06 L132.71 446.26 L135.81 443.34 L138.98 440.27 L142.19 437.07 L145.43 433.75 L148.7 430.29 L152.02 426.71 L155.36 422.99 L158.73 419.14 L162.11 415.19 L165.51 411.1 L168.93 406.9 L172.34 402.57 L175.76 398.13 L179.19 393.59 L182.61 388.92 L186.03 384.15 L189.42 379.29 L192.82 374.31 L196.18 369.24 L199.53 364.08 L202.85 358.82 L206.15 353.48 L209.41 348.05 L212.63 342.55 L215.82 336.96 L218.97 331.31 L222.07 325.58 L225.12 319.79 L228.13 313.95 L231.09 308.05 L233.98 302.08 L236.82 296.09 L239.6 290.04 L242.31 283.96 L244.97 277.84 L247.55 271.7 L250.08 265.52 L252.51 259.34 L254.89 253.13 L257.19 246.92 L259.41 240.7 L261.56 234.47 L263.64 228.27 L265.62 222.06 L267.53 215.87 L269.36 209.7 L271.11 203.56 L272.78 197.44 L274.37 191.35 L275.86 185.31 L277.29 179.31 L278.62 173.37 L279.87 167.47 L281.04 161.63 L282.13 155.86 L283.13 150.15 L284.06 144.51 L284.89 138.96 L285.66 133.49 L286.34 128.1 L286.95 122.8 L287.46 117.6 L287.92 112.5 L288.29 107.5 L288.6 102.61 L288.83 97.83 L289 93.17 L289.08 88.62 L289.12 84.2 L289.07 79.91 L288.99 75.75 L288.82 71.72 L288.61 67.83 L288.33 64.08 L288.01 60.46 L287.64 57.01 L287.22 53.69 L286.76 50.54 L286.25 47.53 L285.71 44.69 L285.13 42 L284.51 39.47 L283.86 37.1 L283.19 34.91 L282.49 32.88 L281.77 31.01 L281.04 29.32 L280.29 27.8 L279.51 26.44 L278.74 25.27 L277.97 24.27 L277.19 23.44 L276.42 22.78 L275.64 22.3 L274.87 22.01 L274.12 21.87 L273.38 21.93 L272.66 22.15 L271.96 22.55 L271.29 23.12 L270.64 23.87 L270.02 24.79 L269.44 25.88 L268.89 27.14 L268.38 28.58 L267.91 30.17 L267.5 31.93 L267.12 33.86 L266.8 35.95 L266.54 38.2 L266.34 40.61 L266.18 43.17 L266.11 45.89 L266.08 48.76 L266.13 51.77 L266.25 54.92 L266.44 58.23 L266.7 61.66 L267.04 65.23 L267.46 68.93 L267.96 72.77 L268.53 76.73 L269.19 80.81 L269.94 85.01 L270.78 89.32 L271.7 93.74 L272.71 98.27 L273.81 102.89 L275 107.62 L276.28 112.44 L277.66 117.35 L279.13 122.34 L280.68 127.41 L282.34 132.56 L284.09 137.79 L285.93 143.07 L287.87 148.42 L289.9 153.82 L292.03 159.28 L294.24 164.79 L296.56 170.34 L298.95 175.93 L301.46 181.55 L304.04 187.2 L306.7 192.87 L309.47 198.56 L312.32 204.27 L315.25 209.99 L318.26 215.71 L321.36 221.43 L324.53 227.15 L327.78 232.86 L331.11 238.56 L334.52 244.24 L337.99 249.9 L341.55 255.53 L345.15 261.12 L348.82 266.69 L352.56 272.22 L356.35 277.69 L360.2 283.13 L364.09 288.5 L368.04 293.83 L372.04 299.1 L376.08 304.29 L380.15 309.42 L384.26 314.48 L388.4 319.47 L392.57 324.38 L396.76 329.2 L400.97 333.94 L405.21 338.59 L409.45 343.15 L413.71 347.63 L417.96 352 L422.22 356.28 L426.48 360.45 L430.72 364.52 L434.96 368.48 L439.17 372.34 L443.37 376.09 L447.55 379.72 L451.69 383.24 L455.79 386.64 L459.87 389.94 L463.91 393.1 L467.89 396.16 L471.83 399.09 L475.71 401.9 L479.53 404.59 L483.29 407.16 L486.99 409.61 L490.61 411.93 L494.16 414.13 L497.63 416.2 L501.01 418.15 L504.31 419.98 L507.52 421.69 L510.63 423.28 L513.64 424.75 L516.55 426.09 L519.35 427.31 L522.04 428.42 L524.62 429.41 L527.09 430.28 L529.42 431.04 L531.65 431.68 L533.75 432.22 L535.71 432.64 L537.54 432.96 L539.24 433.16 L540.79 433.27 L542.21 433.27 L543.48 433.18 L544.62 432.98 L545.6 432.7 L546.44 432.31 L547.12 431.85 L547.65 431.28 L548.03 430.64 L548.23 429.93 L548.3 429.12 L548.2 428.25 L547.94 427.3 L547.52 426.29 L546.93 425.21 L546.19 424.07 L545.28 422.87 L544.21 421.61 L542.98 420.3 L541.58 418.95 L540.01 417.53 L538.28 416.09 L536.38 414.61 L534.33 413.09 L532.11 411.54 L529.73 409.96 L527.2 408.36 L524.5 406.74 L521.64 405.1 L518.63 403.44 L515.47 401.78 L512.15 400.1 L508.67 398.43 L505.05 396.75 L501.28 395.09 L497.36 393.42 L493.3 391.76 L489.11 390.11 L484.78 388.49 L480.3 386.88 L475.71 385.31 L470.98 383.74 L466.13 382.22 L461.15 380.72 L456.06 379.25 L450.85 377.83 L445.53 376.44 L440.1 375.1 L434.57 373.8 L428.95 372.55 L423.21 371.35 L417.4 370.19 L411.49 369.1 L405.51 368.06 L399.44 367.07 L393.3 366.15 L387.09 365.28 L380.82 364.49 L374.49 363.75 L368.11 363.09 L361.67 362.48 L355.18 361.95 L348.66 361.48 L342.1 361.09 L335.51 360.76 L328.9 360.51 L322.26 360.33 L315.61 360.22 L308.95 360.19 L302.28 360.22 L295.61 360.33 L288.95 360.51 L282.3 360.76 L275.67 361.09 L269.05 361.49 L262.46 361.95 L255.9 362.49 L249.37 363.1 L242.89 363.78 L236.45 364.52 L230.05 365.34 L223.71 366.21 L217.44 367.15 L211.22 368.15 L205.08 369.21 L199 370.33 L193.01 371.5 L187.1 372.74 L181.27 374.02 L175.54 375.35 L169.9 376.74 L164.36 378.16 L158.92 379.63 L153.59 381.14 L148.36 382.69 L143.26 384.28 L138.27 385.89 L133.4 387.53 L128.66 389.21 L124.05 390.91 L119.56 392.63 L115.21 394.36 L111 396.11 L106.92 397.86 L102.98 399.64 L99.2 401.4 L95.55 403.18 L92.05 404.95 L88.71 406.72 L85.52 408.47 L82.48 410.21 L79.59 411.93 L76.87 413.64 L74.3 415.33 L71.89 416.98 L69.64 418.6 L67.55 420.19 L65.62 421.75 L63.86 423.26 L62.26 424.72 L60.83 426.15 L59.55 427.51 L58.44 428.83 L57.49 430.08 L56.69 431.27 L56.07 432.4 L55.6 433.46 L55.29 434.44 L55.15 435.35 L55.15 436.19 L55.32 436.94 L55.64 437.61 L56.11 438.2 L56.74 438.68 L57.51 439.09 L58.44 439.4 L59.51 439.61 L60.72 439.71 L62.07 439.72 L63.56 439.62 L65.19 439.42 L66.96 439.1 L68.84 438.68 L70.86 438.14 L73.01 437.49 L75.28 436.73 L77.66 435.85 L80.17 434.85 L82.78 433.72 L85.49 432.47 L88.32 431.11 L91.25 429.62 L94.27 428.01 L97.39 426.28 L100.6 424.42 L103.88 422.43 L107.26 420.31 L110.71 418.09 L114.24 415.72 L117.83 413.23 L121.49 410.62 L125.22 407.89 L129 405.03 L132.84 402.05 L136.72 398.95 L140.64 395.73 L144.61 392.39 L148.62 388.92 L152.65 385.34 L156.71 381.65 L160.8 377.84 L164.9 373.93 L169.02 369.9 L173.16 365.77 L177.29 361.53 L181.44 357.19 L185.57 352.75 L189.71 348.2 L193.83 343.57 L197.95 338.85 L202.05 334.04 L206.12 329.14 L210.16 324.16 L214.19 319.1 L218.18 313.97 L222.12 308.75 L226.04 303.48 L229.91 298.15 L233.73 292.75 L237.52 287.29 L241.24 281.77 L244.92 276.22 L248.52 270.62 L252.07 264.97 L255.57 259.29 L258.98 253.58 L262.34 247.85 L265.62 242.08 L268.83 236.3 L271.97 230.52 L275.03 224.72 L278 218.92 L280.9 213.11 L283.71 207.31 L286.45 201.52 L289.1 195.75 L291.65 190 L294.13 184.26 L296.52 178.56 L298.81 172.89 L301 167.27 L303.12 161.68 L305.14 156.15 L307.07 150.66 L308.9 145.23 L310.64 139.87 L312.29 134.57 L313.86 129.34 L315.33 124.19 L316.69 119.13 L317.98 114.15 L319.17 109.25 L320.28 104.45 L321.29 99.75 L322.23 95.14 L323.07 90.65 L323.82 86.27 L324.49 82 L325.08 77.84 L325.59 73.82 L326.02 69.9 L326.37 66.13 L326.65 62.49 L326.86 58.98 L326.99 55.61 L327.06 52.38 L327.05 49.31 L326.98 46.37 L326.86 43.58 L326.66 40.96 L326.42 38.49 L326.12 36.17 L325.77 34.01 L325.37 32.03 L324.92 30.2 L324.43 28.53 L323.9 27.03 L323.34 25.71 L322.75 24.56 L322.11 23.58 L321.46 22.77 L320.77 22.13 L320.07 21.68 L319.35 21.39 L318.61 21.28 L317.87 21.35 L317.11 21.58 L316.36 22 L315.6 22.59 L314.84 23.36 L314.08 24.3 L313.34 25.42 L312.6 26.71 L311.89 28.17 L311.19 29.81 L310.51 31.61 L309.86 33.58 L309.23 35.72 L308.62 38.03 L308.06 40.5 L307.53 43.13 L307.05 45.92 L306.6 48.87 L306.2 51.96 L305.84 55.22 L305.55 58.61 L305.29 62.16 L305.09 65.86 L304.96 69.69 L304.88 73.66 L304.86 77.76 L304.92 82 L305.03 86.35 L305.22 90.84 L305.47 95.44 L305.8 100.16 L306.2 104.99 L306.67 109.93 L307.22 114.98 L307.85 120.11 L308.56 125.35 L309.35 130.68 L310.22 136.09 L311.17 141.58 L312.21 147.16 L313.32 152.81 L314.52 158.52 L315.81 164.29 L317.18 170.13 L318.63 176.01 L320.18 181.96 L321.8 187.93 L323.51 193.95 L325.3 200.01 L327.18 206.09 L329.14 212.2 L331.17 218.33 L333.3 224.47 L335.49 230.63 L337.77 236.79 L340.12 242.95 L342.56 249.1 L345.06 255.25 L347.64 261.38 L350.29 267.48 L353.01 273.57 L355.79 279.64 L358.65 285.66 L361.56 291.64 L364.53 297.59 L367.56 303.48 L370.64 309.34 L373.78 315.13 L376.97 320.86 L380.2 326.53 L383.49 332.13 L386.81 337.66 L390.16 343.11 L393.55 348.49 L396.97 353.78 L400.42 358.99 L403.9 364.1 L407.39 369.12 L410.91 374.05 L414.44 378.88 L417.98 383.6 L421.52 388.22 L425.05 392.72 L428.6 397.12 L432.14 401.4 L435.67 405.57 L439.19 409.62 L442.68 413.54 L446.16 417.35 L449.61 421.03 L453.04 424.59 L456.42 428.01 L459.77 431.32 L463.08 434.48 L466.36 437.51 L469.57 440.42 L472.73 443.19 L475.83 445.83 L478.87 448.33 L481.85 450.7 L484.76 452.93 L487.59 455.02 L490.35 456.99 L493.03 458.82 L495.61 460.5 L498.11 462.06 L500.53 463.48 L502.84 464.76 L505.06 465.92 L507.16 466.94 L509.17 467.83 L511.07 468.6 L512.85 469.22 L514.52 469.73 L516.07 470.12 L517.49 470.37 L518.8 470.51 L519.98 470.52 L521.02 470.43 L521.94 470.22 L522.72 469.89 L523.36 469.44 L523.87 468.9 L524.23 468.24 L524.45 467.49 L524.53 466.63 L524.45 465.68 L524.24 464.64 L523.87 463.5 L523.35 462.27 L522.69 460.95 L521.86 459.57 L520.89 458.09 L519.76 456.54 L518.48 454.92 L517.03 453.24 L515.44 451.47 L513.69 449.66 L511.79 447.79 L509.73 445.86 L507.52 443.89 L505.16 441.86 L502.63 439.8 L499.95 437.68 L497.13 435.54 L494.15 433.37 L491.03 431.16 L487.76 428.92 L484.34 426.68 L480.78 424.42 L477.07 422.13 L473.23 419.84 L469.25 417.53 L465.12 415.23 L460.87 412.94 L456.48 410.63 L451.96 408.35 L447.32 406.07 L442.55 403.8 L437.67 401.56 L432.66 399.33 L427.55 397.13 L422.32 394.94 L416.99 392.8 L411.56 390.69 L406.02 388.61 L400.39 386.57 L394.67 384.58 L388.86 382.62 L382.97 380.71 L376.99 378.86 L370.95 377.05 L364.83 375.3 L358.65 373.6 L352.41 371.95 L346.11 370.38 L339.75 368.86 L333.35 367.4 L326.91 366 L320.43 364.68 L313.91 363.42 L307.38 362.23 L300.8 361.1 L294.22 360.06 L287.63 359.08 L281.02 358.17 L274.42 357.35 L267.82 356.58 L261.22 355.89 L254.64 355.28 L248.07 354.74 L241.52 354.28 L235 353.89 L228.52 353.57 L222.07 353.33 L215.66 353.17 L209.3 353.07 L203 353.05 L196.75 353.09 L190.56 353.2 L184.44 353.39 L178.4 353.64 L172.42 353.95 L166.52 354.34 L160.71 354.78 L155 355.28 L149.37 355.85 L143.84 356.47 L138.42 357.15 L133.09 357.89 L127.89 358.67 L122.79 359.5 L117.81 360.38 L112.96 361.3 L108.23 362.27 L103.62 363.28 L99.15 364.31 L94.81 365.39 L90.61 366.5 L86.55 367.63 L82.64 368.79 L78.88 369.98 L75.25 371.18 L71.79 372.4 L68.47 373.62 L65.32 374.87 L62.31 376.11 L59.47 377.36 L56.79 378.6 L54.27 379.85 L51.92 381.08 L49.73 382.32 L47.71 383.53 L45.86 384.72 L44.17 385.9 L42.65 387.05 L41.3 388.17 L40.12 389.26 L39.11 390.32 L38.27 391.34 L37.6 392.32 L37.1 393.26 L36.77 394.15 L36.6 394.98 L36.6 395.76 L36.78 396.49 L37.11 397.16 L37.62 397.75 L38.28 398.29 L39.11 398.76 L40.09 399.15 L41.24 399.47 L42.53 399.72 L43.98 399.88 L45.59 399.96 L47.34 399.95 L49.25 399.86 L51.29 399.67 L53.49 399.4 L55.81 399.02 L58.28 398.56 L60.87 398 L63.61 397.32 L66.46 396.56 L69.44 395.69 L72.54 394.71 L75.76 393.63 L79.09 392.45 L82.53 391.15 L86.07 389.74 L89.72 388.23 L93.45 386.6 L97.29 384.85 L101.23 383.01 L105.24 381.04 L109.33 378.97 L113.51 376.78 L117.75 374.48 L122.07 372.06 L126.44 369.54 L130.89 366.9 L135.37 364.15 L139.93 361.29 L144.51 358.33 L149.16 355.25 L153.82 352.06 L158.53 348.78 L163.27 345.38 L168.02 341.89 L172.81 338.29 L177.6 334.6 L182.41 330.81 L187.22 326.91 L192.04 322.93 L196.85 318.85 L201.66 314.7 L206.46 310.45 L211.24 306.12 L216.01 301.71 L220.76 297.22 L225.47 292.66 L230.15 288.03 L234.8 283.32 L239.41 278.55 L243.99 273.73 L248.51 268.84 L252.99 263.9 L257.42 258.92 L261.78 253.88 L266.08 248.8 L270.34 243.68 L274.52 238.53 L278.63 233.35 L282.67 228.14 L286.64 222.92 L290.53 217.67 L294.33 212.4 L298.06 207.13 L301.71 201.86 L305.27 196.59 L308.73 191.31 L312.12 186.05 L315.4 180.8 L318.6 175.57 L321.7 170.36 L324.7 165.18 L327.61 160.03 L330.41 154.92 L333.11 149.85 L335.72 144.82 L338.23 139.85 L340.62 134.92 L342.92 130.06 L345.12 125.26 L347.2 120.53 L349.2 115.88 L351.08 111.29 L352.86 106.8 L354.53 102.38 L356.11 98.06 L357.59 93.84 L358.95 89.71 L360.23 85.68 L361.4 81.76 L362.47 77.94 L363.45 74.25 L364.34 70.66 L365.12 67.21 L365.81 63.87 L366.41 60.67 L366.93 57.6 L367.35 54.67 L367.69 51.86 L367.94 49.21 L368.11 46.69 L368.21 44.32 L368.22 42.11 L368.16 40.03 L368.03 38.13 L367.83 36.37 L367.57 34.77 L367.24 33.34 L366.84 32.06 L366.39 30.96 L365.89 30.01 L365.33 29.24 L364.72 28.63 L364.06 28.19 L363.37 27.93 L362.63 27.83 L361.85 27.91 L361.04 28.16 L360.2 28.58 L359.34 29.17 L358.45 29.95 L357.53 30.89 L356.61 32.01 L355.67 33.3 L354.72 34.75 L353.76 36.4 L352.79 38.19 L351.83 40.17 L350.87 42.31 L349.91 44.61 L348.98 47.09 L348.04 49.73 L347.12 52.53 L346.22 55.48 L345.35 58.6 L344.5 61.88 L343.67 65.29 L342.88 68.88 L342.12 72.6 L341.4 76.47 L340.72 80.49 L340.08 84.64 L339.48 88.93 L338.93 93.37 L338.44 97.92 L337.98 102.59 L337.59 107.4 L337.26 112.33 L336.98 117.37 L336.76 122.52 L336.61 127.78 L336.52 133.14 L336.48 138.59 L336.53 144.15 L336.64 149.8 L336.83 155.53 L337.08 161.34 L337.4 167.24 L337.81 173.19 L338.28 179.22 L338.83 185.32 L339.45 191.47 L340.16 197.68 L340.94 203.93 L341.8 210.23 L342.72 216.57 L343.74 222.94 L344.83 229.34 L346 235.75 L347.23 242.19 L348.56 248.65 L349.96 255.11 L351.42 261.58 L352.97 268.05 L354.59 274.51 L356.28 280.95 L358.04 287.39 L359.87 293.79 L361.77 300.18 L363.73 306.53 L365.76 312.85 L367.85 319.12 L370 325.35 L372.22 331.53 L374.49 337.66 L376.82 343.73 L379.2 349.74 L381.62 355.68 L384.09 361.55 L386.62 367.33 L389.18 373.05 L391.78 378.67 L394.41 384.2 L397.08 389.65 L399.78 395.01 L402.52 400.26 L405.26 405.41 L408.04 410.45 L410.83 415.38 L413.63 420.2 L416.44 424.91 L419.27 429.5 L422.09 433.96 L424.91 438.31 L427.72 442.53 L430.53 446.61 L433.33 450.57 L436.11 454.39 L438.88 458.09 L441.63 461.64 L444.34 465.06 L447.02 468.33 L449.66 471.46 L452.28 474.45 L454.85 477.29 L457.37 480.01 L459.84 482.55 L462.27 484.97 L464.63 487.23 L466.92 489.35 L469.16 491.32 L471.33 493.14 L473.42 494.81 L475.44 496.35 L477.38 497.73 L479.24 498.96 L481.01 500.05 L482.69 501 L484.27 501.81 L485.76 502.46 L487.15 502.97 L488.44 503.35 L489.63 503.59 L490.7 503.69 L491.66 503.66 L492.52 503.49 L493.25 503.19 L493.87 502.76 L494.35 502.2 L494.73 501.52 L494.96 500.71 L495.08 499.79 L495.06 498.75 L494.91 497.59 L494.63 496.33 L494.21 494.95 L493.66 493.46 L492.96 491.87 L492.12 490.18 L491.15 488.4 L490.04 486.52 L488.77 484.56 L487.37 482.51 L485.83 480.37 L484.14 478.15 L482.31 475.86 L480.33 473.5 L478.21 471.08 L475.94 468.57 L473.52 466.03 L470.98 463.41 L468.28 460.75 L465.43 458.03 L462.45 455.27 L459.33 452.46 L456.07 449.63 L452.67 446.75 L449.15 443.85 L445.47 440.93 L441.67 437.98 L437.75 435.01 L433.68 432.02 L429.5 429.03 L425.19 426.04 L420.74 423.04 L416.19 420.03 L411.53 417.04 L406.74 414.05 L401.85 411.07 L396.85 408.11 L391.73 405.16 L386.53 402.24 L381.23 399.34 L375.82 396.48 L370.33 393.64 L364.77 390.84 L359.1 388.09 L353.36 385.36 L347.55 382.68 L341.67 380.05 L335.71 377.47 L329.7 374.93 L323.63 372.45 L317.51 370.04 L311.33 367.68 L305.12 365.37 L298.85 363.13 L292.57 360.96 L286.24 358.84 L279.9 356.8 L273.53 354.84 L267.14 352.93 L260.75 351.12 L254.34 349.36 L247.95 347.69 L241.54 346.08 L235.16 344.56 L228.78 343.11 L222.42 341.74 L216.09 340.44 L209.79 339.23 L203.52 338.11 L197.29 337.05 L191.11 336.07 L184.97 335.17 L178.88 334.36 L172.86 333.61 L166.9 332.95 L161 332.36 L155.18 331.85 L149.43 331.41 L143.76 331.06 L138.2 330.76 L132.71 330.55 L127.31 330.4 L122.02 330.32 L116.84 330.31 L111.76 330.37 L106.78 330.49 L101.93 330.67 L97.2 330.91 L92.59 331.2 L88.11 331.56 L83.75 331.96 L79.54 332.43 L75.46 332.93 L71.51 333.49 L67.72 334.08 L64.06 334.72 L60.56 335.39 L57.21 336.1 L54 336.84 L50.97 337.61 L48.08 338.4 L45.36 339.22 L42.8 340.07 L40.41 340.92 L38.18 341.79 L36.12 342.67 L34.22 343.56 L32.5 344.44 L30.95 345.34 L29.57 346.23 L28.37 347.11 L27.33 348 L26.47 348.86 L25.79 349.7 L25.28 350.53 L24.94 351.34 L24.79 352.12 L24.8 352.87 L24.98 353.59 L25.34 354.27 L25.87 354.91 L26.57 355.51 L27.43 356.08 L28.48 356.58 L29.68 357.05 L31.05 357.44 L32.58 357.8 L34.28 358.08 L36.14 358.32 L38.15 358.48 L40.32 358.57 L42.65 358.59 L45.12 358.55 L47.74 358.43 L50.51 358.23 L53.42 357.94 L56.46 357.58 L59.65 357.14 L62.97 356.61 L66.42 355.99 L69.99 355.27 L73.68 354.48 L77.5 353.59 L81.44 352.6 L85.47 351.52 L89.63 350.35 L93.87 349.08 L98.23 347.71 L102.68 346.24 L107.21 344.68 L111.84 343 L116.55 341.24 L121.34 339.37 L126.2 337.4 L131.13 335.34 L136.12 333.17 L141.18 330.89 L146.29 328.52 L151.45 326.05 L156.66 323.48 L161.91 320.83 L167.19 318.06 L172.52 315.2 L177.87 312.25 L183.24 309.21 L188.63 306.06 L194.03 302.84 L199.44 299.53 L204.86 296.12 L210.27 292.63 L215.69 289.06 L221.09 285.41 L226.48 281.69 L231.86 277.88 L237.21 274 L242.53 270.05 L247.83 266.04 L253.09 261.96 L258.3 257.82 L263.48 253.61 L268.61 249.36 L273.69 245.05 L278.71 240.68 L283.68 236.28 L288.59 231.84 L293.43 227.35 L298.19 222.83 L302.89 218.29 L307.52 213.71 L312.06 209.1 L316.53 204.49 L320.9 199.85 L325.19 195.21 L329.39 190.56 L333.51 185.91 L337.52 181.25 L341.43 176.61 L345.25 171.98 L348.97 167.36 L352.58 162.75 L356.09 158.18 L359.5 153.62 L362.78 149.11 L365.97 144.62 L369.04 140.18 L372.01 135.79 L374.85 131.45 L377.59 127.15 L380.21 122.93 L382.72 118.75 L385.11 114.65 L387.38 110.62 L389.54 106.66 L391.58 102.78 L393.51 98.99 L395.33 95.3 L397.03 91.68 L398.6 88.16 L400.07 84.74 L401.43 81.44 L402.67 78.23 L403.81 75.14 L404.83 72.16 L405.75 69.31 L406.55 66.56 L407.26 63.95 L407.85 61.47 L408.35 59.12 L408.75 56.89 L409.03 54.82 L409.24 52.88 L409.34 51.08 L409.35 49.43 L409.28 47.92 L409.12 46.56 L408.87 45.36 L408.54 44.31 L408.13 43.42 L407.64 42.69 L407.08 42.12 L406.45 41.71 L405.76 41.46 L405 41.37 L404.17 41.45 L403.29 41.69 L402.35 42.11 L401.36 42.68 L400.32 43.43 L399.23 44.34 L398.11 45.43 L396.94 46.67 L395.74 48.09 L394.51 49.68 L393.25 51.43 L391.97 53.35 L390.65 55.44 L389.33 57.7 L387.99 60.11 L386.64 62.68 L385.27 65.43 L383.91 68.33 L382.55 71.38 L381.18 74.6 L379.83 77.96 L378.47 81.49 L377.14 85.16 L375.81 88.98 L374.51 92.95 L373.23 97.05 L371.98 101.3 L370.74 105.68 L369.54 110.2 L368.37 114.85 L367.25 119.63 L366.15 124.54 L365.11 129.55 L364.09 134.69 L363.13 139.94 L362.22 145.31 L361.36 150.77 L360.55 156.33 L359.8 162 L359.11 167.76 L358.47 173.61 L357.9 179.54 L357.38 185.55 L356.93 191.64 L356.54 197.79 L356.23 204.02 L355.98 210.31 L355.8 216.65 L355.69 223.04 L355.65 229.48 L355.68 235.96 L355.78 242.48 L355.96 249.03 L356.21 255.6 L356.53 262.2 L356.93 268.82 L357.4 275.45 L357.94 282.07 L358.56 288.71 L359.25 295.35 L360.01 301.96 L360.85 308.58 L361.76 315.17 L362.73 321.73 L363.77 328.27 L364.88 334.78 L366.06 341.25 L367.3 347.66 L368.61 354.04 L369.98 360.37 L371.4 366.63 L372.89 372.84 L374.45 378.97 L376.04 385.03 L377.7 391.02 L379.4 396.93 L381.15 402.75 L382.95 408.49 L384.79 414.13 L386.66 419.67 L388.58 425.12 L390.54 430.47 L392.53 435.71 L394.54 440.82 L396.59 445.83 L398.65 450.72 L400.73 455.49 L402.84 460.14 L404.94 464.65 L407.07 469.04 L409.21 473.29 L411.34 477.41 L413.48 481.39 L415.62 485.22 L417.73 488.92 L419.85 492.47 L421.96 495.87 L424.04 499.13 L426.1 502.24 L428.13 505.19 L430.15 508 L432.12 510.65 L434.06 513.14 L435.96 515.48 L437.81 517.66 L439.63 519.69 L441.38 521.55 L443.09 523.27 L444.74 524.82 L446.32 526.22 L447.84 527.45 L449.3 528.54 L450.69 529.46 L451.99 530.23 L453.23 530.85 L454.37 531.31 L455.44 531.62 L456.41 531.77 L457.3 531.77 L458.1 531.63 L458.79 531.33 L459.39 530.9 L459.89 530.32 L460.28 529.6 L460.57 528.73 L460.75 527.74 L460.8 526.6 L460.76 525.33 L460.59 523.93 L460.3 522.4 L459.91 520.76 L459.38 518.98 L458.74 517.1 L457.97 515.09 L457.06 512.97 L456.04 510.75 L454.89 508.42 L453.6 505.98 L452.19 503.45 L450.65 500.82 L448.97 498.1 L447.17 495.3 L445.23 492.4 L443.16 489.43 L440.95 486.39 L438.62 483.27 L436.15 480.08 L433.54 476.83 L430.81 473.51 L427.95 470.15 L424.96 466.73 L421.84 463.26 L418.58 459.75 L415.21 456.2 L411.71 452.61 L408.09 448.99 L404.34 445.34 L400.47 441.68 L396.49 437.99 L392.39 434.28 L388.16 430.57 L383.84 426.84 L379.4 423.13 L374.85 419.4 L370.21 415.67 L365.46 411.97 L360.61 408.26 L355.67 404.58 L350.64 400.92 L345.51 397.27 L340.31 393.66 L335.02 390.08 L329.65 386.53 L324.2 383.01 L318.69 379.54 L313.11 376.11 L307.46 372.73 L301.76 369.4 L296.01 366.11 L290.21 362.88 L284.35 359.72 L278.46 356.61 L272.52 353.56 L266.57 350.58 L260.57 347.66 L254.56 344.82 L248.52 342.04 L242.48 339.35 L236.43 336.73 L230.36 334.17 L224.3 331.7 L218.24 329.32 L212.2 327 L206.17 324.77 L200.15 322.64 L194.16 320.57 L188.21 318.6 L182.29 316.7 L176.4 314.91 L170.57 313.19 L164.77 311.56 L159.04 310.01 L153.36 308.54 L147.74 307.18 L142.19 305.9 L136.72 304.7 L131.32 303.58 L126 302.55 L120.78 301.61 L115.63 300.75 L110.59 299.97 L105.64 299.27 L100.8 298.65 L96.06 298.11 L91.44 297.65 L86.93 297.25 L82.54 296.95 L78.27 296.7 L74.13 296.54 L70.12 296.43 L66.24 296.39 L62.5 296.42 L58.91 296.52 L55.45 296.66 L52.14 296.87 L48.98 297.12 L45.97 297.43 L43.12 297.79 L40.42 298.2 L37.88 298.65 L35.5 299.15 L33.29 299.68 L31.25 300.24 L29.36 300.84 L27.64 301.47 L26.11 302.12 L24.73 302.79 L23.53 303.48 L22.5 304.2 L21.65 304.92 L20.98 305.66 L20.47 306.39 L20.15 307.13 L20 307.88 L20.02 308.62 L20.23 309.36 L20.61 310.08 L21.16 310.79 L21.89 311.49 L22.79 312.16 L23.87 312.81 L25.12 313.44 L26.54 314.04 L28.13 314.61 L29.88 315.14 L31.81 315.62 L33.89 316.08 L36.14 316.48 L38.56 316.85 L41.13 317.16 L43.86 317.41 L46.74 317.62 L49.77 317.76 L52.96 317.85 L56.29 317.87 L59.75 317.83 L63.36 317.72 L67.1 317.54 L70.98 317.29 L75 316.97 L79.13 316.56 L83.39 316.09 L87.75 315.54 L92.25 314.9 L96.85 314.18 L101.56 313.39 L106.37 312.5 L111.28 311.53 L116.28 310.47 L121.37 309.33 L126.55 308.1 L131.81 306.78 L137.15 305.37 L142.56 303.87 L148.03 302.28 L153.58 300.61 L159.17 298.84 L164.82 296.98 L170.52 295.04 L176.27 293 L182.05 290.88 L187.86 288.67 L193.7 286.36 L199.58 283.98 L205.46 281.51 L211.36 278.95 L217.28 276.32 L223.21 273.6 L229.12 270.8 L235.04 267.93 L240.95 264.97 L246.83 261.95 L252.71 258.85 L258.55 255.68 L264.39 252.45 L270.18 249.14 L275.93 245.78 L281.64 242.36 L287.32 238.87 L292.93 235.33 L298.5 231.74 L304.01 228.1 L309.46 224.42 L314.84 220.69 L320.16 216.92 L325.4 213.12 L330.56 209.28 L335.65 205.42 L340.64 201.53 L345.56 197.61 L350.39 193.69 L355.12 189.74 L359.75 185.78 L364.28 181.83 L368.71 177.86 L373.05 173.9 L377.27 169.94 L381.38 165.99 L385.38 162.06 L389.28 158.14 L393.05 154.24 L396.7 150.37 L400.24 146.53 L403.65 142.73 L406.95 138.96 L410.11 135.24 L413.17 131.56 L416.09 127.93 L418.88 124.36 L421.55 120.85 L424.08 117.4 L426.5 114.02 L428.78 110.71 L430.94 107.48 L432.97 104.33 L434.87 101.25 L436.64 98.27 L438.29 95.37 L439.81 92.58 L441.2 89.88 L442.45 87.28 L443.6 84.79 L444.61 82.41 L445.51 80.13 L446.28 77.98 L446.94 75.96 L447.47 74.04 L447.89 72.25 L448.2 70.6 L448.39 69.06 L448.47 67.68 L448.44 66.42 L448.31 65.29 L448.07 64.31 L447.73 63.49 L447.29 62.79 L446.76 62.25 L446.14 61.85 L445.42 61.61 L444.6 61.52 L443.71 61.59 L442.74 61.81 L441.69 62.18 L440.56 62.71 L439.35 63.41 L438.09 64.26 L436.75 65.27 L435.35 66.44 L433.9 67.77 L432.39 69.26 L430.82 70.92 L429.2 72.73 L427.55 74.7 L425.84 76.83 L424.1 79.12 L422.33 81.57 L420.52 84.18 L418.69 86.95 L416.83 89.86 L414.95 92.94 L413.06 96.16 L411.15 99.53 L409.24 103.06 L407.31 106.73 L405.4 110.54 L403.47 114.5 L401.55 118.6 L399.64 122.84 L397.74 127.2 L395.86 131.71 L393.98 136.34 L392.13 141.11 L390.31 145.99 L388.52 150.99 L386.75 156.11 L385.01 161.34 L383.31 166.69 L381.66 172.13 L380.04 177.68 L378.46 183.33 L376.93 189.07 L375.44 194.9 L374.01 200.81 L372.63 206.81 L371.3 212.89 L370.04 219.04 L368.82 225.25 L367.68 231.53 L366.6 237.86 L365.57 244.25 L364.61 250.69 L363.72 257.18 L362.9 263.7 L362.14 270.26 L361.46 276.85 L360.84 283.46 L360.3 290.09 L359.83 296.74 L359.43 303.38 L359.1 310.04 L358.84 316.7 L358.67 323.36 L358.56 330 L358.51 336.63 L358.56 343.23 L358.67 349.81 L358.84 356.35 L359.1 362.87 L359.42 369.34 L359.8 375.76 L360.27 382.14 L360.8 388.45 L361.38 394.71 L362.04 400.91 L362.76 407.03 L363.54 413.07 L364.38 419.05 L365.27 424.92 L366.23 430.72 L367.24 436.43 L368.29 442.03 L369.41 447.55 L370.57 452.95 L371.77 458.25 L373.01 463.44 L374.29 468.5 L375.61 473.45 L376.97 478.28 L378.36 482.97 L379.78 487.55 L381.22 491.98 L382.68 496.28 L384.17 500.45 L385.67 504.47 L387.19 508.34 L388.71 512.08 L390.25 515.66 L391.78 519.09 L393.32 522.37 L394.85 525.5 L396.38 528.47 L397.9 531.28 L399.4 533.92 L400.89 536.42 L402.35 538.74 L403.8 540.91 L405.22 542.91 L406.6 544.75 L407.95 546.42 L409.27 547.93 L410.53 549.26 L411.76 550.43 L412.94 551.44 L414.07 552.28 L415.14 552.96 L416.16 553.47 L417.12 553.82 L418 554 L418.82 554.02 L419.57 553.89 L420.26 553.58 L420.85 553.13 L421.37 552.51 L421.81 551.74 L422.17 550.83 L422.44 549.75 L422.62 548.52 L422.7 547.14 L422.68 545.63 L422.57 543.97 L422.36 542.17 L422.06 540.23 L421.64 538.16 L421.12 535.95 L420.49 533.63 L419.75 531.17 L418.9 528.59 L417.93 525.89 L416.86 523.07 L415.67 520.14 L414.36 517.11 L412.94 513.97 L411.4 510.72 L409.74 507.38 L407.96 503.96 L406.07 500.43 L404.05 496.82 L401.91 493.14 L399.65 489.37 L397.27 485.53 L394.78 481.62 L392.15 477.65 L389.42 473.61 L386.57 469.52 L383.6 465.39 L380.51 461.2 L377.31 456.96 L373.99 452.69 L370.57 448.39 L367.03 444.04 L363.38 439.67 L359.62 435.3 L355.76 430.9 L351.79 426.48 L347.72 422.06 L343.55 417.62 L339.28 413.19 L334.93 408.77 L330.48 404.35 L325.93 399.95 L321.3 395.56 L316.59 391.18 L311.81 386.84 L306.94 382.52 L302 378.23 L296.98 373.97 L291.91 369.76 L286.77 365.59 L281.56 361.46 L276.31 357.38 L271 353.35 L265.64 349.38 L260.25 345.47 L254.82 341.62 L249.34 337.83 L243.83 334.11 L238.3 330.46 L232.75 326.88 L227.19 323.37 L221.6 319.95 L216.01 316.59 L210.4 313.33 L204.81 310.14 L199.22 307.05 L193.63 304.02 L188.07 301.1 L182.52 298.27 L177 295.52 L171.51 292.87 L166.04 290.31 L160.61 287.84 L155.23 285.47 L149.89 283.19 L144.61 281.01 L139.39 278.93 L134.23 276.93 L129.12 275.05 L124.09 273.25 L119.14 271.55 L114.27 269.95 L109.47 268.46 L104.78 267.04 L100.17 265.73 L95.65 264.51 L91.24 263.38 L86.94 262.35 L82.74 261.4 L78.65 260.55 L74.68 259.79 L70.83 259.11 L67.11 258.51 L63.51 258 L60.05 257.58 L56.72 257.23 L53.52 256.97 L50.46 256.77 L47.56 256.66 L44.8 256.6 L42.18 256.62 L39.73 256.72 L37.42 256.88 L35.27 257.09 L33.28 257.36 L31.44 257.69 L29.78 258.08 L28.28 258.51 L26.95 259 L25.78 259.52 L24.79 260.09 L23.96 260.69 L23.31 261.34 L22.82 262.02 L22.52 262.72 L22.39 263.45 L22.43 264.2 L22.65 264.97 L23.04 265.75 L23.61 266.56 L24.34 267.36 L25.27 268.18 L26.36 269.01 L27.62 269.82 L29.06 270.64 L30.67 271.44 L32.45 272.24 L34.4 273.02 L36.52 273.79 L38.81 274.54 L41.26 275.26 L43.87 275.96 L46.64 276.63 L49.57 277.26 L52.67 277.87 L55.91 278.43 L59.31 278.96 L62.86 279.44 L66.55 279.88 L70.39 280.26 L74.36 280.59 L78.47 280.88 L82.73 281.11 L87.1 281.28 L91.6 281.39 L96.23 281.43 L100.98 281.41 L105.85 281.32 L110.82 281.17 L115.9 280.95 L121.1 280.65 L126.38 280.29 L131.76 279.84 L137.24 279.33 L142.79 278.73 L148.44 278.07 L154.15 277.32 L159.95 276.48 L165.81 275.58 L171.73 274.59 L177.71 273.52 L183.74 272.37 L189.83 271.13 L195.96 269.82 L202.12 268.43 L208.33 266.96 L214.56 265.4 L220.81 263.77 L227.09 262.05 L233.38 260.25 L239.68 258.38 L245.98 256.44 L252.28 254.41 L258.59 252.31 L264.87 250.14 L271.15 247.89 L277.4 245.58 L283.62 243.2 L289.82 240.75 L295.99 238.23 L302.11 235.65 L308.19 233.02 L314.22 230.33 L320.2 227.57 L326.13 224.77 L332 221.92 L337.79 219.02 L343.52 216.07 L349.18 213.07 L354.75 210.05 L360.24 206.99 L365.66 203.89 L370.98 200.76 L376.21 197.6 L381.35 194.42 L386.39 191.22 L391.32 188.01 L396.14 184.78 L400.86 181.55 L405.47 178.31 L409.96 175.07 L414.34 171.83 L418.59 168.58 L422.73 165.36 L426.74 162.14 L430.63 158.96 L434.38 155.78 L438.01 152.63 L441.51 149.52 L444.87 146.43 L448.1 143.38 L451.2 140.38 L454.15 137.41 L456.96 134.5 L459.64 131.65 L462.18 128.85 L464.58 126.1 L466.84 123.42 L468.96 120.82 L470.94 118.28 L472.77 115.83 L474.47 113.44 L476.04 111.15 L477.45 108.95 L478.73 106.82 L479.87 104.8 L480.88 102.87 L481.74 101.05 L482.48 99.33 L483.07 97.71 L483.54 96.21 L483.87 94.82 L484.08 93.54 L484.15 92.4 L484.1 91.36 L483.93 90.45 L483.63 89.67 L483.23 89.02 L482.7 88.5 L482.05 88.12 L481.29 87.86 L480.43 87.75 L479.46 87.78 L478.38 87.95 L477.21 88.26 L475.93 88.71 L474.56 89.32 L473.09 90.07 L471.55 90.96 L469.92 92.01 L468.2 93.21 L466.41 94.56 L464.54 96.04 L462.6 97.69 L460.59 99.48 L458.53 101.44 L456.39 103.53 L454.21 105.78 L451.97 108.18 L449.68 110.73 L447.34 113.43 L444.97 116.28 L442.55 119.27 L440.09 122.41 L437.62 125.68 L435.11 129.11 L432.59 132.67 L430.04 136.39 L427.47 140.23 L424.9 144.21 L422.32 148.32 L419.73 152.56 L417.14 156.93 L414.56 161.43 L411.98 166.05 L409.41 170.8 L406.85 175.65 L404.32 180.62 L401.8 185.72 L399.3 190.91 L396.83 196.2 L394.39 201.61 L391.99 207.1 L389.62 212.69 L387.28 218.37 L384.99 224.13 L382.74 229.98 L380.54 235.9 L378.39 241.89 L376.29 247.96 L374.24 254.09 L372.25 260.27 L370.31 266.53 L368.44 272.82 L366.63 279.16 L364.89 285.55 L363.2 291.96 L361.58 298.41 L360.04 304.9 L358.56 311.39 L357.15 317.91 L355.81 324.44 L354.54 330.97 L353.36 337.51 L352.24 344.05 L351.2 350.58 L350.23 357.09 L349.35 363.59 L348.54 370.06 L347.8 376.51 L347.14 382.92 L346.55 389.3 L346.03 395.63 L345.6 401.91 L345.24 408.14 L344.94 414.3 L344.73 420.42 L344.59 426.47 L344.51 432.43 L344.51 438.33 L344.57 444.14 L344.7 449.86 L344.9 455.5 L345.16 461.04 L345.48 466.49 L345.87 471.83 L346.31 477.06 L346.8 482.19 L347.36 487.2 L347.96 492.08 L348.61 496.84 L349.32 501.49 L350.07 506.01 L350.85 510.38 L351.68 514.62 L352.55 518.73 L353.44 522.69 L354.38 526.5 L355.34 530.17 L356.32 533.69 L357.33 537.05 L358.36 540.26 L359.4 543.32 L360.45 546.22 L361.52 548.95 L362.59 551.52 L363.67 553.92 L364.75 556.16 L365.82 558.24 L366.89 560.14 L367.95 561.88 L368.99 563.44 L370.02 564.84 L371.03 566.06 L372.01 567.11 L372.97 567.99 L373.89 568.7 L374.79 569.24 L375.65 569.6 L376.46 569.79 L377.25 569.81 L377.97 569.67 L378.65 569.35 L379.28 568.86 L379.85 568.21 L380.36 567.4 L380.81 566.42 L381.19 565.28 L381.51 563.97 L381.76 562.5 L381.93 560.88 L382.03 559.11 L382.05 557.19 L382 555.1 L381.86 552.88 L381.62 550.51 L381.32 547.99 L380.91 545.35 L380.41 542.56 L379.83 539.63 L379.14 536.59 L378.36 533.41 L377.49 530.11 L376.51 526.69 L375.43 523.15 L374.25 519.5 L372.96 515.75 L371.57 511.89 L370.08 507.92 L368.48 503.87 L366.77 499.72 L364.96 495.48 L363.03 491.15 L361.01 486.75 L358.88 482.28 L356.63 477.72 L354.28 473.12 L351.82 468.43 L349.26 463.7 L346.59 458.9 L343.82 454.07 L340.94 449.19 L337.96 444.26 L334.87 439.31 L331.69 434.32 L328.4 429.31 L325.03 424.27 L321.54 419.22 L317.97 414.15 L314.31 409.08 L310.55 404.01 L306.71 398.92 L302.78 393.85 L298.78 388.79 L294.67 383.74 L290.51 378.71 L286.26 373.71 L281.94 368.72 L277.55 363.77 L273.1 358.86 L268.58 353.98 L264 349.14 L259.36 344.36 L254.67 339.62 L249.93 334.93 L245.15 330.3 L240.32 325.72 L235.46 321.21 L230.56 316.78 L225.63 312.4 L220.67 308.11 L215.7 303.89 L210.7 299.75 L205.69 295.69 L200.67 291.71 L195.64 287.82 L190.61 284.01 L185.6 280.31 L180.58 276.69 L175.57 273.16 L170.59 269.73 L165.63 266.42 L160.69 263.18 L155.78 260.05 L150.91 257.03 L146.07 254.11 L141.28 251.3 L136.54 248.59 L131.86 245.98 L127.21 243.49 L122.65 241.1 L118.15 238.83 L113.72 236.66 L109.36 234.59 L105.09 232.64 L100.89 230.79 L96.78 229.06 L92.77 227.43 L88.85 225.91 L85.03 224.5 L81.31 223.18 L77.71 221.97 L74.21 220.87 L70.83 219.88 L67.58 218.97 L64.43 218.17 L61.42 217.47 L58.55 216.87 L55.79 216.36 L53.18 215.94 L50.7 215.61 L48.37 215.37 L46.18 215.22 L44.14 215.16 L42.24 215.17 L40.5 215.26 L38.91 215.43 L37.49 215.67 L36.21 215.99 L35.09 216.38 L34.15 216.83 L33.36 217.35 L32.75 217.92 L32.28 218.55 L32 219.24 L31.89 219.97 L31.93 220.76 L32.15 221.6 L32.55 222.47 L33.11 223.37 L33.85 224.32 L34.75 225.3 L35.83 226.3 L37.08 227.33 L38.5 228.38 L40.09 229.45 L41.85 230.54 L43.78 231.63 L45.88 232.73 L48.14 233.83 L50.57 234.95 L53.17 236.05 L55.92 237.15 L58.83 238.24 L61.91 239.34 L65.15 240.39 L68.54 241.44 L72.07 242.48 L75.76 243.48 L79.61 244.45 L83.59 245.4 L87.71 246.32 L91.97 247.19 L96.36 248.02 L100.9 248.82 L105.56 249.58 L110.35 250.28 L115.25 250.95 L120.28 251.55 L125.43 252.1 L130.68 252.6 L136.04 253.04 L141.49 253.43 L147.06 253.75 L152.72 254 L158.46 254.2 L164.28 254.32 L170.2 254.39 L176.19 254.38 L182.24 254.3 L188.37 254.14 L194.56 253.92 L200.81 253.63 L207.11 253.25 L213.46 252.81 L219.85 252.29 L226.28 251.7 L232.74 251.02 L239.23 250.28 L245.74 249.46 L252.27 248.56 L258.82 247.59 L265.37 246.56 L271.92 245.43 L278.48 244.24 L285.02 242.97 L291.55 241.64 L298.07 240.23 L304.56 238.76 L311.03 237.21 L317.45 235.6 L323.86 233.92 L330.21 232.18 L336.52 230.38 L342.78 228.52 L348.98 226.59 L355.12 224.62 L361.2 222.59 L367.21 220.5 L373.15 218.37 L379 216.19 L384.78 213.97 L390.47 211.69 L396.07 209.39 L401.57 207.05 L406.98 204.68 L412.29 202.28 L417.49 199.84 L422.57 197.38 L427.56 194.91 L432.43 192.42 L437.17 189.91 L441.8 187.39 L446.3 184.87 L450.68 182.33 L454.93 179.81 L459.05 177.28 L463.03 174.76 L466.88 172.26 L470.58 169.76 L474.15 167.28 L477.57 164.82 L480.86 162.4 L483.99 160.01 L486.99 157.63 L489.82 155.31 L492.52 153.02 L495.07 150.77 L497.46 148.57 L499.7 146.43 L501.79 144.34 L503.73 142.31 L505.52 140.35 L507.16 138.44 L508.64 136.61 L509.98 134.86 L511.17 133.17 L512.19 131.57 L513.07 130.05 L513.81 128.63 L514.4 127.28 L514.84 126.04 L515.14 124.89 L515.28 123.84 L515.29 122.89 L515.16 122.04 L514.89 121.32 L514.48 120.69 L513.93 120.18 L513.26 119.78 L512.46 119.51 L511.52 119.35 L510.46 119.32 L509.27 119.41 L507.97 119.63 L506.55 119.97 L505.01 120.44 L503.37 121.05 L501.62 121.79 L499.75 122.66 L497.79 123.68 L495.73 124.81 L493.57 126.1 L491.32 127.51 L488.98 129.08 L486.57 130.78 L484.06 132.61 L481.48 134.59 L478.83 136.71 L476.1 138.96 L473.33 141.35 L470.47 143.89 L467.56 146.57 L464.6 149.37 L461.59 152.32 L458.53 155.4 L455.43 158.62 L452.3 161.97 L449.12 165.45 L445.92 169.07 L442.7 172.82 L439.44 176.69 L436.17 180.68 L432.88 184.8 L429.6 189.04 L426.29 193.4 L422.99 197.88 L419.68 202.47 L416.39 207.16 L413.1 211.97 L409.82 216.89 L406.56 221.9 L403.32 227.02 L400.1 232.22 L396.91 237.53 L393.74 242.92 L390.61 248.39 L387.51 253.95 L384.46 259.58 L381.45 265.28 L378.48 271.06 L375.56 276.9 L372.68 282.8 L369.86 288.75 L367.1 294.76 L364.4 300.82 L361.76 306.91 L359.18 313.05 L356.65 319.23 L354.2 325.43 L351.82 331.66 L349.51 337.9 L347.27 344.16 L345.11 350.43 L343.01 356.71 L340.99 362.98 L339.05 369.25 L337.2 375.52 L335.41 381.77 L333.72 387.99 L332.1 394.19 L330.55 400.37 L329.1 406.51 L327.72 412.61 L326.43 418.67 L325.22 424.67 L324.08 430.62 L323.03 436.52 L322.06 442.35 L321.18 448.12 L320.38 453.81 L319.65 459.42 L319 464.96 L318.42 470.4 L317.93 475.75 L317.5 481.01 L317.16 486.17 L316.88 491.23 L316.68 496.18 L316.54 501.01 L316.47 505.74 L316.47 510.34 L316.54 514.82 L316.66 519.17 L316.84 523.38 L317.08 527.47 L317.38 531.42 L317.72 535.22 L318.12 538.9 L318.57 542.41 L319.05 545.78 L319.58 549 L320.16 552.06 L320.76 554.96 L321.4 557.71 L322.07 560.3 L322.77 562.72 L323.48 564.97 L324.23 567.07 L325 568.99 L325.77 570.74 L326.56 572.32 L327.35 573.73 L328.16 574.96 L328.96 576.03 L329.77 576.91 L330.56 577.63 L331.36 578.17 L332.13 578.52 L332.9 578.71 L333.64 578.72 L334.37 578.57 L335.07 578.22 L335.75 577.72 L336.4 577.02 L337 576.17 L337.58 575.15 L338.11 573.95 L338.6 572.58 L339.04 571.05 L339.44 569.35 L339.78 567.49 L340.07 565.47 L340.3 563.28 L340.46 560.94 L340.57 558.44 L340.62 555.8 L340.6 553 L340.5 550.05 L340.33 546.97 L340.09 543.74 L339.77 540.37 L339.37 536.87 L338.89 533.24 L338.33 529.48 L337.69 525.59 L336.95 521.59 L336.13 517.46 L335.23 513.23 L334.22 508.88 L333.13 504.43 L331.95 499.88 L330.68 495.22 L329.32 490.48 L327.85 485.65 L326.3 480.75 L324.64 475.75 L322.89 470.68 L321.05 465.54 L319.11 460.34 L317.08 455.07 L314.94 449.74 L312.71 444.36 L310.4 438.94 L307.98 433.48 L305.47 427.97 L302.87 422.43 L300.18 416.86 L297.4 411.27 L294.52 405.66 L291.57 400.04 L288.52 394.4 L285.39 388.77 L282.18 383.12 L278.89 377.49 L275.51 371.87 L272.07 366.24 L268.54 360.65 L264.95 355.07 L261.29 349.53 L257.56 344.01 L253.77 338.54 L249.91 333.1 L246.01 327.7 L242.04 322.35 L238.01 317.05 L233.94 311.81 L229.83 306.63 L225.68 301.51 L221.49 296.45 L217.25 291.48 L213 286.57 L208.71 281.73 L204.4 276.99 L200.06 272.31 L195.72 267.74 L191.35 263.25 L186.99 258.85 L182.61 254.55 L178.24 250.34 L173.88 246.24 L169.51 242.24 L165.17 238.34 L160.83 234.55 L156.53 230.87 L152.24 227.3 L147.99 223.83 L143.78 220.48 L139.6 217.25 L135.45 214.14 L131.36 211.14 L127.33 208.27 L123.34 205.5 L119.42 202.85 L115.56 200.34 L111.77 197.93 L108.05 195.65 L104.41 193.49 L100.85 191.45 L97.37 189.54 L93.98 187.75 L90.69 186.07 L87.49 184.5 L84.39 183.07 L81.4 181.75 L78.51 180.55 L75.74 179.47 L73.08 178.48 L70.54 177.64 L68.12 176.89 L65.82 176.25 L63.66 175.73 L61.62 175.31 L59.71 174.99 L57.95 174.78 L56.33 174.67 L54.84 174.66 L53.51 174.75 L52.31 174.93 L51.27 175.2 L50.38 175.56 L49.63 176.01 L49.04 176.54 L48.61 177.16 L48.35 177.86 L48.24 178.62 L48.28 179.46 L48.49 180.37 L48.87 181.34 L49.39 182.38 L50.1 183.47 L50.96 184.63 L52 185.83 L53.19 187.08 L54.54 188.39 L56.08 189.72 L57.76 191.11 L59.62 192.52 L61.63 193.98 L63.82 195.45 L66.16 196.95 L68.67 198.49 L71.34 200.03 L74.17 201.58 L77.15 203.15 L80.29 204.73 L83.59 206.31 L87.03 207.89 L90.63 209.47 L94.37 211.04 L98.26 212.61 L102.3 214.16 L106.48 215.7 L110.79 217.22 L115.23 218.72 L119.82 220.18 L124.52 221.63 L129.36 223.04 L134.32 224.43 L139.4 225.76 L144.59 227.08 L149.89 228.33 L155.31 229.56 L160.82 230.72 L166.44 231.85 L172.16 232.92 L177.96 233.94 L183.85 234.9 L189.83 235.81 L195.88 236.66 L202.01 237.45 L208.21 238.17 L214.47 238.83 L220.79 239.42 L227.17 239.95 L233.6 240.42 L240.07 240.81 L246.59 241.13 L253.15 241.39 L259.73 241.56 L266.34 241.67 L272.96 241.71 L279.61 241.67 L286.27 241.56 L292.93 241.39 L299.59 241.13 L306.25 240.8 L312.9 240.41 L319.54 239.93 L326.15 239.39 L332.75 238.77 L339.31 238.09 L345.82 237.34 L352.32 236.52 L358.76 235.63 L365.15 234.68 L371.48 233.67 L377.76 232.59 L383.98 231.45 L390.12 230.25 L396.2 228.99 L402.2 227.68 L408.12 226.31 L413.94 224.9 L419.68 223.44 L425.33 221.93 L430.88 220.37 L436.32 218.77 L441.66 217.13 L446.89 215.47 L452 213.76 L457.01 212.03 L461.88 210.25 L466.64 208.46 L471.26 206.66 L475.76 204.83 L480.13 202.98 L484.36 201.12 L488.45 199.26 L492.4 197.38 L496.22 195.52 L499.88 193.65 L503.39 191.77 L506.76 189.92 L509.98 188.07 L513.03 186.24 L515.94 184.43 L518.69 182.64 L521.29 180.88 L523.72 179.14 L526 177.44 L528.12 175.77 L530.08 174.15 L531.87 172.57 L533.5 171.04 L534.98 169.55 L536.29 168.13 L537.45 166.76 L538.44 165.45 L539.27 164.21 L539.94 163.04 L540.45 161.92 L540.8 160.9 L541 159.95 L541.05 159.07 L540.92 158.29 L540.66 157.58 L540.24 156.97 L539.67 156.46 L538.95 156.03 L538.09 155.69 L537.08 155.47 L535.93 155.35 L534.64 155.33 L533.22 155.42 L531.65 155.62 L529.96 155.93 L528.13 156.34 L526.19 156.87 L524.12 157.54 L521.93 158.31 L519.62 159.2 L517.2 160.2 L514.67 161.34 L512.03 162.61 L509.29 163.99 L506.45 165.5 L503.51 167.13 L500.48 168.89 L497.37 170.78 L494.16 172.78 L490.89 174.93 L487.53 177.21 L484.1 179.6 L480.6 182.12 L477.04 184.77 L473.42 187.55 L469.74 190.45" fill="none" stroke="hsl(150 100% 27%)" stroke-width="0.5" opacity="0.65" stroke-linecap="round" stroke-linejoin="round"/>
</svg>