<svg xmlns="http://www.w3.org/2000/svg" viewBox="0 0 600 600" width="600" height="600" style="max-width:100%;height:auto">
<path d="M580 297.37 L579.83 297.14 L579.35 296.92 L578.52 296.7 L577.39 296.48 L575.92 296.27 L574.14 296.08 L572.04 295.91 L569.63 295.75 L566.92 295.61 L563.91 295.5 L560.61 295.41 L557.03 295.35 L553.17 295.32 L549.04 295.33 L544.65 295.37 L540.01 295.46 L535.14 295.59 L530.03 295.76 L524.71 295.99 L519.19 296.26 L513.47 296.59 L507.57 296.99 L501.5 297.44 L495.28 297.96 L488.91 298.54 L482.41 299.2 L475.81 299.94 L469.1 300.75 L462.29 301.64 L455.41 302.62 L448.48 303.69 L441.49 304.85 L434.48 306.1 L427.44 307.46 L420.4 308.91 L413.37 310.46 L406.35 312.12 L399.37 313.9 L392.44 315.78 L385.56 317.77 L378.76 319.88 L372.04 322.1 L365.4 324.45 L358.88 326.92 L352.47 329.5 L346.18 332.21 L340.04 335.05 L334.03 338.01 L328.17 341.08 L322.47 344.29 L316.95 347.63 L311.59 351.09 L306.41 354.66 L301.42 358.35 L296.63 362.16 L292.02 366.1 L287.62 370.14 L283.42 374.3 L279.43 378.57 L275.64 382.94 L272.06 387.41 L268.7 391.98 L265.54 396.63 L262.59 401.37 L259.86 406.19 L257.32 411.1 L254.99 416.06 L252.88 421.09 L250.95 426.17 L249.23 431.29 L247.71 436.46 L246.36 441.66 L245.21 446.88 L244.23 452.11 L243.43 457.34 L242.8 462.57 L242.33 467.79 L242.01 472.99 L241.85 478.15 L241.82 483.26 L241.92 488.32 L242.16 493.32 L242.52 498.24 L242.98 503.07 L243.55 507.8 L244.22 512.42 L244.97 516.94 L245.81 521.32 L246.71 525.55 L247.68 529.64 L248.7 533.56 L249.77 537.32 L250.88 540.89 L252.01 544.28 L253.17 547.45 L254.35 550.43 L255.54 553.18 L256.73 555.69 L257.92 557.98 L259.08 560.02 L260.23 561.81 L261.36 563.34 L262.45 564.59 L263.5 565.58 L264.51 566.3 L265.47 566.72 L266.37 566.86 L267.22 566.71 L268 566.27 L268.72 565.52 L269.36 564.48 L269.93 563.14 L270.41 561.48 L270.81 559.54 L271.13 557.29 L271.36 554.74 L271.5 551.89 L271.55 548.74 L271.5 545.31 L271.36 541.57 L271.11 537.56 L270.78 533.28 L270.35 528.71 L269.82 523.88 L269.18 518.79 L268.45 513.44 L267.62 507.86 L266.7 502.04 L265.67 496 L264.55 489.74 L263.33 483.28 L262.01 476.62 L260.61 469.78 L259.11 462.78 L257.52 455.62 L255.84 448.31 L254.07 440.88 L252.21 433.32 L250.28 425.66 L248.25 417.92 L246.15 410.1 L243.97 402.2 L241.72 394.27 L239.39 386.31 L236.98 378.33 L234.52 370.35 L231.97 362.37 L229.37 354.43 L226.71 346.52 L223.97 338.67 L221.18 330.89 L218.34 323.18 L215.44 315.58 L212.5 308.07 L209.5 300.71 L206.45 293.46 L203.36 286.37 L200.23 279.43 L197.05 272.67 L193.84 266.08 L190.61 259.69 L187.33 253.49 L184.02 247.51 L180.69 241.74 L177.34 236.19 L173.95 230.88 L170.56 225.82 L167.15 220.99 L163.73 216.43 L160.29 212.11 L156.84 208.05 L153.4 204.26 L149.95 200.73 L146.52 197.47 L143.08 194.47 L139.66 191.75 L136.24 189.29 L132.85 187.09 L129.48 185.17 L126.14 183.51 L122.82 182.1 L119.55 180.95 L116.31 180.06 L113.11 179.41 L109.96 179 L106.87 178.82 L103.83 178.87 L100.86 179.15 L97.96 179.64 L95.14 180.32 L92.39 181.2 L89.72 182.28 L87.16 183.53 L84.68 184.93 L82.31 186.51 L80.05 188.22 L77.9 190.07 L75.87 192.05 L73.97 194.13 L72.21 196.32 L70.58 198.61 L69.09 200.96 L67.76 203.38 L66.58 205.86 L65.57 208.38 L64.71 210.93 L64.04 213.51 L63.55 216.09 L63.23 218.67 L63.1 221.23 L63.17 223.78 L63.45 226.28 L63.91 228.74 L64.59 231.14 L65.48 233.48 L66.58 235.74 L67.91 237.91 L69.45 240 L71.22 241.99 L73.21 243.88 L75.44 245.64 L77.88 247.27 L80.57 248.79 L83.49 250.16 L86.62 251.39 L90 252.48 L93.62 253.42 L97.45 254.21 L101.52 254.84 L105.8 255.31 L110.32 255.62 L115.06 255.76 L120.01 255.74 L125.17 255.55 L130.55 255.19 L136.12 254.68 L141.88 253.99 L147.84 253.14 L153.99 252.13 L160.32 250.95 L166.8 249.63 L173.46 248.14 L180.26 246.51 L187.21 244.73 L194.29 242.8 L201.5 240.74 L208.83 238.53 L216.24 236.2 L223.77 233.75 L231.36 231.18 L239.02 228.5 L246.76 225.71 L254.53 222.82 L262.33 219.84 L270.15 216.78 L277.99 213.63 L285.82 210.41 L293.64 207.12 L301.42 203.78 L309.15 200.38 L316.85 196.94 L324.46 193.47 L332 189.96 L339.43 186.44 L346.77 182.89 L353.98 179.34 L361.07 175.79 L368.01 172.25 L374.79 168.72 L381.4 165.2 L387.85 161.71 L394.1 158.25 L400.16 154.83 L406.01 151.46 L411.63 148.14 L417.04 144.87 L422.22 141.67 L427.14 138.53 L431.82 135.47 L436.24 132.48 L440.41 129.57 L444.3 126.74 L447.93 124.02 L451.28 121.39 L454.35 118.84 L457.15 116.42 L459.65 114.09 L461.87 111.87 L463.81 109.76 L465.46 107.78 L466.83 105.91 L467.92 104.16 L468.72 102.54 L469.25 101.03 L469.5 99.66 L469.49 98.43 L469.21 97.32 L468.67 96.34 L467.89 95.5 L466.85 94.79 L465.58 94.23 L464.08 93.8 L462.35 93.52 L460.42 93.37 L458.28 93.36 L455.96 93.51 L453.45 93.78 L450.78 94.21 L447.94 94.78 L444.96 95.51 L441.85 96.37 L438.61 97.38 L435.26 98.54 L431.82 99.84 L428.29 101.29 L424.7 102.89 L421.05 104.64 L417.34 106.54 L413.62 108.58 L409.88 110.77 L406.14 113.11 L402.39 115.6 L398.68 118.24 L395 121.02 L391.37 123.95 L387.8 127.03 L384.3 130.25 L380.89 133.62 L377.57 137.13 L374.35 140.79 L371.26 144.6 L368.29 148.54 L365.47 152.62 L362.79 156.84 L360.25 161.21 L357.89 165.71 L355.7 170.34 L353.68 175.1 L351.85 179.99 L350.2 185.02 L348.76 190.17 L347.51 195.44 L346.47 200.82 L345.63 206.33 L345 211.95 L344.58 217.68 L344.37 223.51 L344.38 229.45 L344.6 235.48 L345.03 241.6 L345.67 247.81 L346.52 254.09 L347.57 260.46 L348.83 266.9 L350.27 273.39 L351.93 279.96 L353.76 286.56 L355.77 293.21 L357.97 299.91 L360.32 306.62 L362.85 313.36 L365.52 320.12 L368.35 326.89 L371.31 333.65 L374.4 340.4 L377.61 347.14 L380.93 353.85 L384.35 360.53 L387.86 367.15 L391.45 373.74 L395.11 380.25 L398.83 386.7 L402.59 393.07 L406.39 399.34 L410.21 405.52 L414.06 411.59 L417.91 417.55 L421.74 423.37 L425.56 429.08 L429.35 434.62 L433.11 440.03 L436.8 445.26 L440.44 450.33 L444.01 455.23 L447.49 459.94 L450.9 464.45 L454.19 468.77 L457.37 472.89 L460.44 476.79 L463.38 480.46 L466.2 483.92 L468.86 487.15 L471.37 490.14 L473.73 492.89 L475.93 495.39 L477.95 497.65 L479.8 499.66 L481.47 501.42 L482.95 502.92 L484.25 504.17 L485.34 505.16 L486.25 505.89 L486.95 506.36 L487.45 506.57 L487.75 506.53 L487.83 506.25 L487.71 505.7 L487.38 504.91 L486.85 503.87 L486.11 502.6 L485.16 501.1 L483.99 499.36 L482.62 497.39 L481.06 495.23 L479.28 492.84 L477.31 490.26 L475.14 487.47 L472.77 484.51 L470.21 481.37 L467.46 478.08 L464.53 474.61 L461.42 471.01 L458.14 467.28 L454.68 463.41 L451.06 459.44 L447.27 455.36 L443.33 451.21 L439.25 446.97 L435.01 442.67 L430.63 438.31 L426.12 433.93 L421.47 429.51 L416.71 425.09 L411.82 420.66 L406.83 416.24 L401.72 411.86 L396.52 407.51 L391.22 403.2 L385.84 398.98 L380.36 394.81 L374.82 390.74 L369.19 386.76 L363.51 382.9 L357.76 379.15 L351.96 375.54 L346.1 372.07 L340.21 368.75 L334.28 365.59 L328.31 362.6 L322.31 359.79 L316.29 357.15 L310.25 354.72 L304.2 352.48 L298.14 350.44 L292.07 348.62 L286.01 347.01 L279.96 345.62 L273.91 344.44 L267.88 343.49 L261.86 342.77 L255.87 342.27 L249.91 342.01 L243.97 341.96 L238.07 342.14 L232.22 342.55 L226.41 343.17 L220.65 344.02 L214.93 345.08 L209.28 346.34 L203.69 347.82 L198.16 349.49 L192.7 351.35 L187.31 353.41 L182 355.64 L176.77 358.04 L171.62 360.59 L166.57 363.3 L161.6 366.15 L156.73 369.14 L151.95 372.24 L147.29 375.46 L142.73 378.78 L138.29 382.17 L133.96 385.66 L129.75 389.19 L125.67 392.79 L121.7 396.41 L117.88 400.07 L114.2 403.73 L110.65 407.39 L107.24 411.04 L103.98 414.66 L100.87 418.24 L97.92 421.77 L95.13 425.23 L92.5 428.62 L90.03 431.91 L87.72 435.1 L85.6 438.18 L83.64 441.13 L81.86 443.93 L80.27 446.59 L78.85 449.1 L77.61 451.42 L76.58 453.57 L75.71 455.53 L75.04 457.29 L74.57 458.86 L74.28 460.21 L74.19 461.32 L74.29 462.22 L74.59 462.88 L75.07 463.3 L75.74 463.48 L76.61 463.4 L77.68 463.09 L78.93 462.51 L80.38 461.67 L82 460.58 L83.8 459.23 L85.79 457.61 L87.96 455.74 L90.3 453.61 L92.8 451.23 L95.48 448.58 L98.31 445.68 L101.3 442.53 L104.43 439.15 L107.7 435.51 L111.12 431.64 L114.67 427.53 L118.34 423.22 L122.12 418.67 L126.02 413.91 L130.01 408.96 L134.1 403.8 L138.27 398.45 L142.52 392.93 L146.82 387.23 L151.19 381.37 L155.61 375.37 L160.06 369.21 L164.54 362.93 L169.03 356.52 L173.54 350.01 L178.04 343.38 L182.54 336.66 L187 329.87 L191.44 323 L195.83 316.07 L200.17 309.09 L204.45 302.07 L208.66 295.03 L212.78 287.97 L216.81 280.9 L220.74 273.82 L224.56 266.77 L228.25 259.73 L231.83 252.72 L235.26 245.76 L238.55 238.84 L241.69 231.98 L244.67 225.19 L247.48 218.48 L250.11 211.85 L252.58 205.31 L254.86 198.87 L256.94 192.55 L258.85 186.33 L260.55 180.23 L262.05 174.25 L263.35 168.42 L264.45 162.71 L265.34 157.15 L266.02 151.74 L266.51 146.47 L266.78 141.36 L266.85 136.41 L266.71 131.63 L266.37 127 L265.84 122.55 L265.11 118.27 L264.19 114.16 L263.09 110.22 L261.81 106.46 L260.35 102.88 L258.73 99.48 L256.94 96.25 L255 93.2 L252.92 90.34 L250.72 87.64 L248.38 85.14 L245.92 82.8 L243.36 80.65 L240.71 78.67 L237.96 76.87 L235.15 75.25 L232.27 73.79 L229.35 72.51 L226.39 71.4 L223.4 70.45 L220.4 69.67 L217.41 69.06 L214.42 68.61 L211.46 68.32 L208.54 68.19 L205.68 68.21 L202.87 68.39 L200.14 68.72 L197.51 69.2 L194.98 69.82 L192.56 70.59 L190.27 71.51 L188.12 72.56 L186.12 73.74 L184.28 75.06 L182.62 76.52 L181.13 78.1 L179.84 79.81 L178.76 81.64 L177.87 83.6 L177.22 85.67 L176.78 87.86 L176.59 90.16 L176.64 92.58 L176.93 95.1 L177.48 97.72 L178.28 100.46 L179.35 103.28 L180.68 106.2 L182.28 109.22 L184.15 112.33 L186.29 115.52 L188.71 118.79 L191.4 122.15 L194.35 125.59 L197.58 129.08 L201.07 132.66 L204.83 136.3 L208.85 140 L213.13 143.75 L217.66 147.57 L222.43 151.43 L227.44 155.33 L232.69 159.28 L238.15 163.26 L243.84 167.27 L249.73 171.31 L255.82 175.37 L262.09 179.44 L268.56 183.53 L275.18 187.62 L281.96 191.71 L288.89 195.8 L295.95 199.87 L303.12 203.93 L310.41 207.96 L317.79 211.97 L325.25 215.95 L332.79 219.88 L340.37 223.78 L348.01 227.62 L355.66 231.4 L363.33 235.12 L371.01 238.77 L378.67 242.34 L386.3 245.84 L393.9 249.25 L401.44 252.57 L408.92 255.79 L416.31 258.91 L423.62 261.92 L430.82 264.82 L437.91 267.6 L444.87 270.25 L451.69 272.79 L458.35 275.19 L464.87 277.46 L471.21 279.59 L477.36 281.58 L483.33 283.42 L489.1 285.11 L494.65 286.67 L500 288.06 L505.13 289.3 L510.02 290.39 L514.68 291.33 L519.1 292.11 L523.28 292.74 L527.2 293.2 L530.87 293.52 L534.29 293.69 L537.43 293.7 L540.33 293.56 L542.95 293.27 L545.32 292.85 L547.42 292.28 L549.25 291.59 L550.82 290.76 L552.13 289.8 L553.17 288.72 L553.96 287.53 L554.48 286.22 L554.76 284.83 L554.79 283.33 L554.57 281.75 L554.12 280.08 L553.42 278.35 L552.49 276.55 L551.34 274.7 L549.97 272.81 L548.39 270.88 L546.59 268.92 L544.59 266.94 L542.41 264.97 L540.03 262.99 L537.48 261.04 L534.75 259.11 L531.86 257.21 L528.82 255.36 L525.62 253.58 L522.29 251.86 L518.82 250.21 L515.22 248.66 L511.5 247.2 L507.68 245.86 L503.76 244.63 L499.74 243.54 L495.64 242.59 L491.45 241.78 L487.21 241.13 L482.89 240.66 L478.51 240.36 L474.09 240.24 L469.62 240.31 L465.12 240.59 L460.58 241.06 L456.03 241.76 L451.46 242.66 L446.88 243.8 L442.29 245.15 L437.71 246.74 L433.13 248.56 L428.56 250.62 L424.01 252.92 L419.47 255.46 L414.97 258.24 L410.49 261.27 L406.05 264.53 L401.64 268.03 L397.27 271.79 L392.96 275.77 L388.69 279.97 L384.46 284.41 L380.29 289.08 L376.18 293.97 L372.13 299.05 L368.14 304.36 L364.21 309.86 L360.36 315.55 L356.56 321.42 L352.84 327.47 L349.18 333.68 L345.61 340.05 L342.1 346.55 L338.67 353.19 L335.32 359.96 L332.05 366.82 L328.85 373.79 L325.73 380.84 L322.69 387.95 L319.74 395.13 L316.87 402.34 L314.08 409.59 L311.38 416.85 L308.76 424.12 L306.22 431.36 L303.78 438.58 L301.42 445.76 L299.14 452.89 L296.97 459.94 L294.87 466.91 L292.86 473.77 L290.95 480.52 L289.11 487.15 L287.37 493.63 L285.73 499.97 L284.17 506.13 L282.7 512.12 L281.32 517.91 L280.03 523.49 L278.84 528.87 L277.74 534.02 L276.72 538.93 L275.8 543.59 L274.96 548.01 L274.21 552.15 L273.55 556.03 L272.97 559.61 L272.49 562.92 L272.08 565.94 L271.77 568.65 L271.54 571.06 L271.38 573.17 L271.31 574.96 L271.31 576.44 L271.39 577.6 L271.54 578.45 L271.77 578.97 L272.05 579.18 L272.41 579.08 L272.83 578.65 L273.3 577.92 L273.83 576.87 L274.41 575.51 L275.04 573.86 L275.71 571.91 L276.42 569.66 L277.16 567.14 L277.94 564.33 L278.74 561.24 L279.55 557.89 L280.38 554.29 L281.22 550.44 L282.06 546.35 L282.9 542.03 L283.73 537.49 L284.54 532.74 L285.33 527.8 L286.09 522.67 L286.82 517.37 L287.5 511.9 L288.13 506.28 L288.72 500.51 L289.23 494.62 L289.69 488.61 L290.06 482.49 L290.36 476.3 L290.57 470.01 L290.68 463.65 L290.69 457.25 L290.59 450.8 L290.37 444.31 L290.04 437.81 L289.59 431.29 L288.99 424.78 L288.27 418.28 L287.4 411.82 L286.39 405.37 L285.22 398.99 L283.91 392.65 L282.43 386.37 L280.79 380.17 L278.97 374.06 L277 368.04 L274.86 362.11 L272.54 356.28 L270.04 350.58 L267.37 344.99 L264.53 339.53 L261.51 334.19 L258.32 329.01 L254.95 323.96 L251.41 319.04 L247.71 314.29 L243.83 309.69 L239.79 305.24 L235.59 300.96 L231.23 296.83 L226.73 292.87 L222.07 289.06 L217.28 285.42 L212.35 281.95 L207.3 278.64 L202.13 275.49 L196.84 272.51 L191.46 269.68 L185.98 267.01 L180.42 264.51 L174.78 262.16 L169.07 259.96 L163.31 257.92 L157.51 256 L151.68 254.25 L145.81 252.63 L139.95 251.14 L134.09 249.79 L128.25 248.57 L122.43 247.46 L116.65 246.48 L110.92 245.61 L105.26 244.86 L99.67 244.2 L94.19 243.65 L88.79 243.18 L83.53 242.82 L78.39 242.54 L73.39 242.33 L68.55 242.2 L63.86 242.15 L59.37 242.15 L55.06 242.23 L50.95 242.35 L47.06 242.54 L43.39 242.76 L39.95 243.03 L36.75 243.34 L33.81 243.68 L31.14 244.05 L28.73 244.45 L26.59 244.87 L24.75 245.3 L23.2 245.76 L21.94 246.21 L20.99 246.69 L20.35 247.16 L20.02 247.63 L20 248.1 L20.31 248.57 L20.93 249.02 L21.87 249.47 L23.14 249.91 L24.73 250.31 L26.63 250.71 L28.86 251.08 L31.41 251.43 L34.27 251.76 L37.44 252.05 L40.91 252.31 L44.68 252.55 L48.75 252.74 L53.1 252.91 L57.73 253.02 L62.64 253.1 L67.81 253.13 L73.24 253.13 L78.9 253.07 L84.8 252.97 L90.93 252.82 L97.27 252.62 L103.8 252.36 L110.54 252.04 L117.44 251.68 L124.51 251.24 L131.71 250.76 L139.07 250.2 L146.54 249.59 L154.12 248.91 L161.79 248.15 L169.56 247.33 L177.38 246.44 L185.25 245.48 L193.15 244.44 L201.08 243.32 L209.02 242.13 L216.95 240.87 L224.87 239.52 L232.75 238.08 L240.57 236.57 L248.33 234.96 L256.02 233.28 L263.63 231.52 L271.12 229.66 L278.52 227.71 L285.78 225.68 L292.91 223.56 L299.88 221.34 L306.7 219.04 L313.35 216.65 L319.83 214.17 L326.11 211.6 L332.21 208.94 L338.1 206.2 L343.79 203.38 L349.25 200.46 L354.5 197.47 L359.52 194.39 L364.31 191.24 L368.87 188.01 L373.18 184.71 L377.25 181.34 L381.09 177.89 L384.67 174.4 L388.02 170.83 L391.11 167.22 L393.96 163.56 L396.57 159.84 L398.94 156.09 L401.07 152.31 L402.96 148.5 L404.62 144.67 L406.05 140.81 L407.25 136.95 L408.24 133.09 L409.02 129.24 L409.59 125.4 L409.96 121.58 L410.13 117.78 L410.12 114.02 L409.93 110.31 L409.56 106.65 L409.04 103.05 L408.35 99.53 L407.53 96.08 L406.57 92.72 L405.48 89.47 L404.27 86.31 L402.96 83.28 L401.54 80.37 L400.03 77.59 L398.44 74.95 L396.78 72.48 L395.07 70.15 L393.28 68 L391.47 66.03 L389.62 64.25 L387.75 62.66 L385.86 61.28 L383.96 60.1 L382.06 59.15 L380.17 58.42 L378.3 57.91 L376.46 57.65 L374.65 57.63 L372.89 57.87 L371.16 58.36 L369.5 59.11 L367.89 60.12 L366.35 61.39 L364.89 62.94 L363.49 64.75 L362.18 66.85 L360.97 69.22 L359.84 71.86 L358.8 74.78 L357.87 77.97 L357.04 81.45 L356.3 85.19 L355.68 89.2 L355.16 93.49 L354.76 98.03 L354.46 102.83 L354.28 107.89 L354.21 113.2 L354.25 118.75 L354.41 124.54 L354.69 130.56 L355.07 136.79 L355.56 143.24 L356.16 149.89 L356.88 156.74 L357.7 163.77 L358.63 170.97 L359.65 178.34 L360.78 185.85 L362.01 193.52 L363.33 201.29 L364.75 209.19 L366.24 217.18 L367.84 225.27 L369.51 233.43 L371.26 241.65 L373.1 249.91 L375 258.2 L376.98 266.51 L379.02 274.83 L381.12 283.13 L383.27 291.41 L385.49 299.66 L387.75 307.84 L390.07 315.96 L392.42 324 L394.82 331.94 L397.25 339.77 L399.72 347.47 L402.21 355.05 L404.73 362.47 L407.27 369.73 L409.83 376.82 L412.4 383.72 L414.99 390.43 L417.58 396.94 L420.19 403.21 L422.78 409.27 L425.37 415.11 L427.97 420.68 L430.54 426.02 L433.12 431.09 L435.67 435.9 L438.21 440.43 L440.72 444.7 L443.21 448.68 L445.67 452.38 L448.1 455.8 L450.49 458.92 L452.85 461.76 L455.17 464.29 L457.44 466.55 L459.66 468.51 L461.84 470.2 L463.96 471.58 L466.03 472.68 L468.03 473.51 L469.98 474.06 L471.85 474.33 L473.65 474.34 L475.38 474.1 L477.04 473.6 L478.6 472.85 L480.09 471.87 L481.48 470.66 L482.79 469.23 L484 467.58 L485.11 465.74 L486.11 463.71 L487.01 461.49 L487.79 459.11 L488.46 456.57 L489.01 453.88 L489.43 451.07 L489.73 448.13 L489.89 445.07 L489.92 441.92 L489.81 438.69 L489.55 435.38 L489.15 432.02 L488.59 428.61 L487.88 425.16 L487.02 421.69 L485.98 418.21 L484.78 414.74 L483.41 411.27 L481.88 407.84 L480.17 404.44 L478.28 401.1 L476.2 397.81 L473.94 394.58 L471.5 391.44 L468.87 388.4 L466.06 385.45 L463.05 382.61 L459.86 379.89 L456.46 377.29 L452.89 374.83 L449.12 372.5 L445.16 370.32 L441 368.29 L436.65 366.43 L432.12 364.72 L427.4 363.17 L422.5 361.81 L417.41 360.61 L412.15 359.59 L406.71 358.74 L401.1 358.08 L395.32 357.59 L389.38 357.28 L383.28 357.15 L377.04 357.2 L370.64 357.43 L364.11 357.84 L357.44 358.41 L350.65 359.15 L343.74 360.07 L336.73 361.14 L329.61 362.37 L322.4 363.76 L315.1 365.29 L307.75 366.97 L300.31 368.78 L292.84 370.71 L285.31 372.78 L277.76 374.96 L270.18 377.24 L262.6 379.64 L255.01 382.13 L247.45 384.7 L239.9 387.34 L232.39 390.07 L224.93 392.85 L217.54 395.69 L210.2 398.57 L202.96 401.49 L195.81 404.44 L188.78 407.41 L181.85 410.39 L175.06 413.38 L168.42 416.36 L161.92 419.33 L155.6 422.27 L149.44 425.2 L143.47 428.08 L137.7 430.92 L132.12 433.71 L126.77 436.44 L121.64 439.11 L116.73 441.7 L112.08 444.22 L107.66 446.65 L103.51 448.99 L99.62 451.24 L95.98 453.38 L92.63 455.41 L89.54 457.34 L86.73 459.16 L84.22 460.84 L81.99 462.4 L80.05 463.84 L78.4 465.15 L77.04 466.31 L75.97 467.35 L75.19 468.25 L74.7 469 L74.51 469.6 L74.59 470.06 L74.95 470.37 L75.6 470.53 L76.52 470.54 L77.69 470.4 L79.15 470.12 L80.84 469.67 L82.79 469.08 L84.98 468.32 L87.41 467.43 L90.05 466.37 L92.91 465.18 L95.97 463.82 L99.23 462.32 L102.66 460.67 L106.27 458.87 L110.03 456.93 L113.95 454.84 L118 452.6 L122.17 450.23 L126.45 447.71 L130.82 445.05 L135.29 442.25 L139.81 439.33 L144.4 436.26 L149.02 433.08 L153.69 429.75 L158.35 426.29 L163.02 422.72 L167.69 419.02 L172.32 415.2 L176.92 411.24 L181.47 407.19 L185.95 403.02 L190.36 398.73 L194.68 394.33 L198.89 389.83 L203 385.21 L206.99 380.5 L210.84 375.69 L214.55 370.77 L218.11 365.77 L221.51 360.67 L224.73 355.48 L227.78 350.2 L230.65 344.85 L233.32 339.4 L235.8 333.89 L238.06 328.29 L240.13 322.64 L241.98 316.91 L243.62 311.11 L245.04 305.27 L246.24 299.36 L247.22 293.41 L247.98 287.4 L248.52 281.36 L248.84 275.27 L248.93 269.15 L248.82 263.01 L248.49 256.85 L247.94 250.66 L247.2 244.46 L246.25 238.25 L245.1 232.04 L243.77 225.84 L242.25 219.65 L240.55 213.47 L238.69 207.31 L236.66 201.19 L234.48 195.1 L232.15 189.06 L229.7 183.06 L227.12 177.13 L224.42 171.25 L221.62 165.45 L218.73 159.73 L215.76 154.09 L212.71 148.55 L209.6 143.1 L206.45 137.76 L203.25 132.55 L200.04 127.46 L196.81 122.49 L193.58 117.66 L190.36 112.97 L187.15 108.45 L183.99 104.08 L180.86 99.87 L177.79 95.84 L174.8 91.99 L171.87 88.33 L169.04 84.85 L166.31 81.59 L163.69 78.52 L161.17 75.65 L158.79 73.01 L156.55 70.59 L154.45 68.4 L152.51 66.43 L150.73 64.68 L149.11 63.19 L147.67 61.92 L146.41 60.9 L145.34 60.13 L144.46 59.59 L143.77 59.31 L143.3 59.27 L143.03 59.49 L142.96 59.94 L143.11 60.63 L143.48 61.58 L144.05 62.77 L144.85 64.2 L145.86 65.87 L147.09 67.77 L148.55 69.9 L150.21 72.26 L152.09 74.83 L154.19 77.62 L156.5 80.62 L159.02 83.82 L161.75 87.22 L164.68 90.8 L167.79 94.57 L171.12 98.5 L174.64 102.6 L178.33 106.84 L182.21 111.23 L186.26 115.75 L190.48 120.4 L194.86 125.15 L199.41 130.01 L204.1 134.95 L208.93 139.97 L213.9 145.06 L219 150.2 L224.23 155.39 L229.57 160.6 L235.01 165.82 L240.57 171.05 L246.2 176.28 L251.93 181.49 L257.74 186.66 L263.62 191.78 L269.55 196.84 L275.55 201.84 L281.59 206.77 L287.68 211.6 L293.8 216.32 L299.94 220.92 L306.1 225.41 L312.28 229.76 L318.47 233.95 L324.65 238 L330.83 241.9 L337 245.61 L343.13 249.13 L349.25 252.48 L355.34 255.63 L361.39 258.58 L367.4 261.32 L373.36 263.85 L379.26 266.16 L385.12 268.25 L390.9 270.12 L396.62 271.77 L402.26 273.18 L407.83 274.37 L413.31 275.33 L418.72 276.06 L424.03 276.56 L429.24 276.84 L434.37 276.89 L439.39 276.72 L444.31 276.32 L449.13 275.72 L453.83 274.92 L458.42 273.9 L462.9 272.69 L467.26 271.29 L471.49 269.72 L475.61 267.96 L479.59 266.04 L483.45 263.97 L487.18 261.76 L490.77 259.4 L494.24 256.92 L497.55 254.33 L500.73 251.63 L503.77 248.85 L506.66 245.97 L509.4 243.04 L512 240.05 L514.44 237.02 L516.74 233.96 L518.88 230.89 L520.87 227.82 L522.69 224.75 L524.37 221.7 L525.87 218.7 L527.22 215.74 L528.4 212.84 L529.41 210.01 L530.26 207.28 L530.94 204.65 L531.44 202.13 L531.79 199.74 L531.96 197.47 L531.96 195.36 L531.79 193.4 L531.44 191.61 L530.92 189.99 L530.23 188.57 L529.37 187.33 L528.33 186.31 L527.11 185.49 L525.72 184.89 L524.17 184.53 L522.43 184.38 L520.54 184.48 L518.47 184.81 L516.25 185.4 L513.85 186.24 L511.3 187.32 L508.57 188.67 L505.7 190.26 L502.67 192.11 L499.48 194.22 L496.16 196.58 L492.69 199.2 L489.08 202.06 L485.33 205.19 L481.46 208.56 L477.46 212.16 L473.34 216.01 L469.12 220.09 L464.77 224.4 L460.33 228.93 L455.8 233.68 L451.17 238.64 L446.46 243.79 L441.68 249.13 L436.84 254.67 L431.93 260.36 L426.98 266.23 L421.98 272.25 L416.95 278.42 L411.89 284.73 L406.81 291.15 L401.73 297.69 L396.65 304.33 L391.57 311.05 L386.52 317.87 L381.49 324.74 L376.5 331.67 L371.56 338.65 L366.68 345.66 L361.85 352.69 L357.1 359.73 L352.43 366.76 L347.86 373.78 L343.38 380.78 L339.02 387.74 L334.76 394.65 L330.63 401.5 L326.64 408.28 L322.78 414.99 L319.06 421.61 L315.51 428.13 L312.11 434.53 L308.89 440.83 L305.83 447 L302.95 453.03 L300.24 458.92 L297.73 464.65 L295.4 470.24 L293.27 475.65 L291.33 480.9 L289.6 485.98 L288.06 490.87 L286.73 495.57 L285.6 500.08 L284.67 504.4 L283.94 508.51 L283.41 512.43 L283.08 516.14 L282.95 519.64 L283 522.94 L283.26 526.02 L283.7 528.88 L284.32 531.53 L285.11 533.97 L286.08 536.2 L287.22 538.21 L288.51 540 L289.96 541.58 L291.54 542.96 L293.25 544.12 L295.09 545.08 L297.05 545.82 L299.12 546.37 L301.29 546.71 L303.54 546.86 L305.87 546.81 L308.25 546.56 L310.7 546.14 L313.18 545.51 L315.7 544.72 L318.23 543.75 L320.77 542.6 L323.3 541.29 L325.81 539.8 L328.29 538.16 L330.73 536.37 L333.1 534.42 L335.42 532.32 L337.65 530.07 L339.79 527.69 L341.83 525.18 L343.75 522.53 L345.54 519.76 L347.19 516.87 L348.69 513.86 L350.04 510.74 L351.21 507.51 L352.2 504.19 L353.02 500.76 L353.62 497.24 L354.03 493.62 L354.21 489.92 L354.19 486.14 L353.94 482.28 L353.45 478.33 L352.73 474.33 L351.76 470.27 L350.55 466.13 L349.09 461.94 L347.37 457.69 L345.41 453.39 L343.18 449.05 L340.71 444.66 L337.98 440.24 L335 435.78 L331.76 431.28 L328.27 426.76 L324.54 422.22 L320.57 417.66 L316.35 413.08 L311.91 408.48 L307.23 403.88 L302.34 399.27 L297.23 394.67 L291.93 390.07 L286.41 385.47 L280.72 380.89 L274.85 376.31 L268.8 371.77 L262.6 367.24 L256.25 362.74 L249.77 358.27 L243.16 353.85 L236.44 349.45 L229.63 345.11 L222.73 340.82 L215.75 336.57 L208.72 332.39 L201.64 328.27 L194.53 324.21 L187.4 320.23 L180.26 316.33 L173.14 312.5 L166.04 308.76 L158.98 305.1 L151.97 301.55 L145.02 298.08 L138.16 294.72 L131.39 291.46 L124.71 288.32 L118.17 285.28 L111.75 282.36 L105.48 279.57 L99.37 276.9 L93.42 274.35 L87.64 271.93 L82.06 269.65 L76.68 267.49 L71.51 265.48 L66.56 263.61 L61.83 261.88 L57.35 260.28 L53.1 258.84 L49.11 257.54 L45.37 256.38 L41.9 255.37 L38.69 254.51 L35.76 253.79 L33.11 253.21 L30.74 252.79 L28.65 252.49 L26.85 252.34 L25.35 252.33 L24.12 252.46 L23.19 252.72 L22.53 253.1 L22.18 253.62 L22.11 254.25 L22.32 254.99 L22.81 255.86 L23.58 256.83 L24.63 257.9 L25.95 259.06 L27.52 260.31 L29.37 261.65 L31.47 263.05 L33.8 264.53 L36.39 266.06 L39.21 267.65 L42.26 269.28 L45.53 270.95 L49 272.64 L52.67 274.35 L56.56 276.06 L60.61 277.79 L64.85 279.49 L69.25 281.17 L73.81 282.84 L78.53 284.45 L83.38 286.02 L88.36 287.54 L93.46 288.98 L98.66 290.35 L103.98 291.64 L109.38 292.83 L114.86 293.91 L120.42 294.88 L126.04 295.72 L131.71 296.43 L137.43 297 L143.18 297.43 L148.95 297.71 L154.75 297.82 L160.56 297.76 L166.37 297.52 L172.16 297.1 L177.95 296.49 L183.72 295.7 L189.45 294.7 L195.15 293.5 L200.82 292.09 L206.42 290.49 L211.98 288.67 L217.48 286.63 L222.9 284.38 L228.27 281.92 L233.56 279.24 L238.77 276.35 L243.89 273.25 L248.92 269.94 L253.88 266.41 L258.73 262.69 L263.48 258.76 L268.13 254.64 L272.69 250.32 L277.14 245.82 L281.48 241.14 L285.72 236.29 L289.85 231.27 L293.87 226.09 L297.77 220.78 L301.57 215.32 L305.25 209.73 L308.82 204.02 L312.27 198.2 L315.62 192.29 L318.85 186.3 L321.97 180.23 L324.98 174.09 L327.87 167.91 L330.66 161.71 L333.33 155.47 L335.89 149.22 L338.34 142.98 L340.69 136.76 L342.94 130.57 L345.07 124.43 L347.09 118.35 L349.03 112.34 L350.85 106.42 L352.57 100.61 L354.19 94.9 L355.73 89.33 L357.15 83.9 L358.49 78.62 L359.73 73.53 L360.87 68.6 L361.93 63.87 L362.89 59.35 L363.77 55.04 L364.55 50.96 L365.25 47.12 L365.88 43.53 L366.41 40.19 L366.87 37.12 L367.24 34.32 L367.54 31.8 L367.76 29.58 L367.91 27.65 L367.98 26.03 L367.99 24.7 L367.92 23.69 L367.79 23 L367.6 22.62 L367.34 22.56 L367.03 22.83 L366.65 23.42 L366.22 24.33 L365.74 25.55 L365.21 27.1 L364.64 28.97 L364.03 31.15 L363.36 33.64 L362.67 36.45 L361.94 39.54 L361.18 42.94 L360.4 46.63 L359.59 50.6 L358.77 54.85 L357.93 59.37 L357.09 64.14 L356.23 69.16 L355.37 74.43 L354.52 79.92 L353.68 85.63 L352.85 91.56 L352.05 97.67 L351.25 103.98 L350.49 110.46 L349.77 117.09 L349.08 123.87 L348.43 130.79 L347.84 137.84 L347.29 144.99 L346.82 152.24 L346.4 159.58 L346.06 166.97 L345.78 174.43 L345.59 181.93 L345.49 189.46 L345.47 197 L345.56 204.56 L345.74 212.09 L346.03 219.62 L346.42 227.1 L346.94 234.54 L347.56 241.91 L348.31 249.22 L349.18 256.46 L350.18 263.59 L351.32 270.63 L352.59 277.55 L353.99 284.36 L355.53 291.03 L357.21 297.57 L359.04 303.96 L361 310.18 L363.11 316.25 L365.35 322.16 L367.75 327.89 L370.28 333.44 L372.96 338.8 L375.77 343.98 L378.72 348.96 L381.8 353.75 L385.02 358.33 L388.35 362.72 L391.82 366.9 L395.4 370.88 L399.11 374.65 L402.92 378.22 L406.83 381.59 L410.83 384.75 L414.93 387.7 L419.11 390.46 L423.36 393.02 L427.69 395.37 L432.07 397.54 L436.5 399.52 L440.98 401.31 L445.48 402.92 L450.01 404.35 L454.54 405.6 L459.09 406.69 L463.61 407.62 L468.12 408.39 L472.6 409.01 L477.04 409.47 L481.41 409.8 L485.73 410 L489.97 410.07 L494.12 410.02 L498.17 409.85 L502.11 409.57 L505.92 409.19 L509.59 408.71 L513.13 408.16 L516.5 407.5 L519.71 406.79 L522.73 406 L525.57 405.14 L528.21 404.22 L530.63 403.26 L532.84 402.26 L534.81 401.21 L536.55 400.15 L538.04 399.04 L539.28 397.91 L540.26 396.77 L540.96 395.62 L541.4 394.46 L541.54 393.29 L541.41 392.14 L540.97 390.99 L540.25 389.85 L539.23 388.73 L537.91 387.62 L536.28 386.54 L534.35 385.49 L532.12 384.46 L529.57 383.47 L526.73 382.52 L523.58 381.6 L520.13 380.73 L516.39 379.9 L512.35 379.11 L508.02 378.36 L503.4 377.67 L498.51 377.04 L493.35 376.44 L487.91 375.91 L482.23 375.43 L476.29 375.01 L470.1 374.64 L463.69 374.33 L457.06 374.08 L450.22 373.89 L443.18 373.76 L435.95 373.7 L428.54 373.69 L420.97 373.75 L413.24 373.87 L405.39 374.05 L397.41 374.29 L389.32 374.6 L381.14 374.98 L372.87 375.41 L364.54 375.92 L356.15 376.49 L347.73 377.12 L339.28 377.82 L330.83 378.58 L322.38 379.41 L313.96 380.3 L305.56 381.26 L297.22 382.28 L288.96 383.37 L280.76 384.52 L272.66 385.75 L264.66 387.03 L256.79 388.37 L249.04 389.79 L241.44 391.26 L234 392.8 L226.73 394.4 L219.64 396.06 L212.74 397.78 L206.03 399.56 L199.55 401.4 L193.28 403.3 L187.23 405.26 L181.43 407.27 L175.86 409.33 L170.55 411.45 L165.49 413.61 L160.69 415.83 L156.15 418.09 L151.88 420.38 L147.88 422.72 L144.16 425.1 L140.72 427.51 L137.54 429.95 L134.65 432.42 L132.03 434.91 L129.69 437.42 L127.62 439.95 L125.82 442.48 L124.29 445.03 L123.03 447.57 L122.02 450.11 L121.28 452.64 L120.77 455.16 L120.53 457.65 L120.51 460.12 L120.72 462.55 L121.16 464.95 L121.82 467.3 L122.68 469.59 L123.74 471.84 L124.99 474.01 L126.43 476.11 L128.03 478.14 L129.79 480.07 L131.71 481.91 L133.76 483.64 L135.95 485.27 L138.26 486.78 L140.68 488.17 L143.18 489.42 L145.78 490.53 L148.46 491.5 L151.2 492.33 L153.99 492.98 L156.83 493.46 L159.72 493.78 L162.61 493.92 L165.52 493.86 L168.43 493.61 L171.34 493.17 L174.23 492.51 L177.09 491.66 L179.92 490.58 L182.72 489.29 L185.45 487.77 L188.12 486.02 L190.74 484.05 L193.27 481.84 L195.73 479.38 L198.09 476.7 L200.36 473.78 L202.54 470.61 L204.61 467.21 L206.57 463.55 L208.41 459.66 L210.14 455.53 L211.76 451.17 L213.24 446.56 L214.6 441.72 L215.84 436.65 L216.93 431.35 L217.9 425.84 L218.75 420.11 L219.45 414.17 L220.03 408.02 L220.48 401.67 L220.79 395.14 L220.97 388.41 L221.03 381.52 L220.96 374.46 L220.77 367.24 L220.46 359.88 L220.02 352.38 L219.47 344.76 L218.82 337.02 L218.04 329.17 L217.17 321.24 L216.19 313.23 L215.12 305.15 L213.95 297.02 L212.71 288.86 L211.37 280.66 L209.95 272.44 L208.47 264.23 L206.91 256.03 L205.29 247.87 L203.62 239.74 L201.88 231.67 L200.1 223.66 L198.28 215.74 L196.42 207.91 L194.53 200.19 L192.61 192.6 L190.66 185.14 L188.7 177.83 L186.72 170.69 L184.74 163.72 L182.75 156.92 L180.76 150.34 L178.78 143.95 L176.8 137.78 L174.85 131.85 L172.91 126.15 L171 120.7 L169.11 115.51 L167.26 110.58 L165.44 105.92 L163.66 101.54 L161.91 97.44 L160.22 93.63 L158.58 90.12 L156.98 86.9 L155.45 83.98 L153.97 81.37 L152.56 79.06 L151.21 77.06 L149.92 75.37 L148.72 73.98 L147.57 72.9 L146.51 72.12 L145.52 71.64 L144.62 71.47 L143.79 71.58 L143.06 71.98 L142.41 72.66 L141.85 73.62 L141.39 74.86 L141.02 76.37 L140.75 78.12 L140.58 80.12 L140.51 82.36 L140.54 84.83 L140.68 87.52 L140.93 90.42 L141.29 93.52 L141.75 96.79 L142.34 100.25 L143.04 103.87 L143.86 107.65 L144.81 111.55 L145.87 115.58 L147.07 119.72 L148.39 123.97 L149.83 128.3 L151.42 132.7 L153.13 137.16 L154.97 141.67 L156.96 146.21 L159.08 150.76 L161.35 155.33 L163.75 159.88 L166.3 164.43 L168.99 168.93 L171.82 173.4 L174.81 177.8 L177.94 182.14 L181.23 186.4 L184.66 190.57 L188.24 194.64 L191.96 198.59 L195.84 202.43 L199.87 206.13 L204.05 209.71 L208.38 213.13 L212.84 216.4 L217.47 219.51 L222.23 222.45 L227.14 225.22 L232.18 227.82 L237.37 230.22 L242.7 232.45 L248.14 234.49 L253.73 236.33 L259.44 237.97 L265.27 239.43 L271.21 240.69 L277.27 241.75 L283.44 242.61 L289.71 243.28 L296.07 243.76 L302.53 244.03 L309.07 244.13 L315.69 244.04 L322.38 243.77 L329.12 243.32 L335.93 242.7 L342.78 241.9 L349.67 240.96 L356.59 239.86 L363.53 238.61 L370.48 237.21 L377.43 235.69 L384.38 234.03 L391.31 232.26 L398.21 230.38 L405.09 228.4 L411.91 226.32 L418.67 224.17 L425.36 221.93 L431.98 219.64 L438.5 217.28 L444.94 214.88 L451.26 212.45 L457.45 209.98 L463.51 207.5 L469.44 205.01 L475.22 202.52 L480.83 200.04 L486.27 197.58 L491.52 195.14 L496.59 192.75 L501.46 190.4 L506.13 188.1 L510.57 185.86 L514.79 183.71 L518.78 181.62 L522.52 179.62 L526.02 177.71 L529.27 175.9 L532.26 174.2 L534.98 172.61 L537.42 171.13 L539.6 169.78 L541.5 168.57 L543.12 167.48 L544.45 166.53 L545.49 165.73 L546.26 165.06 L546.72 164.56 L546.9 164.2 L546.79 163.99 L546.4 163.95 L545.71 164.06 L544.75 164.34 L543.5 164.77 L541.98 165.37 L540.19 166.13 L538.13 167.06 L535.8 168.15 L533.22 169.41 L530.4 170.82 L527.33 172.4 L524.02 174.14 L520.49 176.04 L516.74 178.09 L512.79 180.31 L508.65 182.67 L504.32 185.18 L499.81 187.84 L495.14 190.66 L490.32 193.61 L485.34 196.71 L480.26 199.93 L475.06 203.3 L469.75 206.79 L464.35 210.41 L458.88 214.15 L453.35 218.01 L447.77 221.99 L442.16 226.08 L436.52 230.28 L430.88 234.58 L425.24 238.98 L419.63 243.48 L414.05 248.07 L408.51 252.75 L403.04 257.51 L397.63 262.36 L392.31 267.28 L387.09 272.27 L381.98 277.33 L376.99 282.46 L372.13 287.65 L367.4 292.9 L362.84 298.19 L358.43 303.54 L354.2 308.94 L350.15 314.36 L346.28 319.84 L342.61 325.34 L339.14 330.88 L335.89 336.43 L332.84 342.02 L330.02 347.61 L327.41 353.22 L325.03 358.85 L322.88 364.47 L320.96 370.11 L319.27 375.73 L317.82 381.35 L316.6 386.96 L315.61 392.55 L314.85 398.13 L314.31 403.68 L314.02 409.2 L313.93 414.69 L314.06 420.15 L314.41 425.55 L314.97 430.92 L315.72 436.23 L316.67 441.48 L317.81 446.68 L319.12 451.81 L320.62 456.86 L322.26 461.84 L324.07 466.73 L326.02 471.54 L328.1 476.26 L330.3 480.88 L332.62 485.38 L335.04 489.79 L337.55 494.08 L340.13 498.25 L342.78 502.29 L345.49 506.2 L348.23 509.97 L351.01 513.6 L353.81 517.08 L356.6 520.4 L359.4 523.57 L362.17 526.58 L364.92 529.41 L367.61 532.08 L370.25 534.55 L372.84 536.85 L375.33 538.95 L377.75 540.86 L380.06 542.57 L382.25 544.09 L384.33 545.4 L386.28 546.48 L388.1 547.37 L389.76 548.04 L391.26 548.48 L392.6 548.71 L393.76 548.71 L394.75 548.49 L395.54 548.05 L396.15 547.37 L396.55 546.46 L396.76 545.34 L396.76 543.98 L396.54 542.39 L396.12 540.57 L395.46 538.54 L394.6 536.28 L393.51 533.8 L392.2 531.1 L390.67 528.19 L388.92 525.07 L386.94 521.74 L384.75 518.22 L382.33 514.48 L379.71 510.57 L376.87 506.47 L373.82 502.2 L370.56 497.74 L367.11 493.13 L363.45 488.36 L359.61 483.44 L355.58 478.39 L351.36 473.22 L346.99 467.91 L342.43 462.49 L337.73 456.98 L332.87 451.37 L327.86 445.68 L322.72 439.93 L317.44 434.12 L312.05 428.25 L306.55 422.36 L300.95 416.44 L295.24 410.51 L289.46 404.58 L283.59 398.66 L277.66 392.76 L271.67 386.89 L265.63 381.08 L259.54 375.31 L253.42 369.62 L247.28 364.01 L241.13 358.49 L234.96 353.08 L228.81 347.77 L222.66 342.59 L216.53 337.54 L210.43 332.64 L204.36 327.9 L198.33 323.3 L192.36 318.89 L186.44 314.65 L180.59 310.6 L174.8 306.75 L169.09 303.08 L163.48 299.64 L157.94 296.4 L152.51 293.37 L147.17 290.58 L141.94 287.99 L136.83 285.65 L131.83 283.53 L126.95 281.65 L122.2 279.99 L117.59 278.57 L113.09 277.39 L108.74 276.43 L104.53 275.71 L100.46 275.21 L96.54 274.95 L92.76 274.91 L89.14 275.07 L85.66 275.45 L82.35 276.04 L79.19 276.84 L76.19 277.82 L73.35 278.99 L70.66 280.34 L68.15 281.87 L65.79 283.55 L63.59 285.38 L61.57 287.35 L59.7 289.46 L58.01 291.69 L56.48 294.02 L55.11 296.46 L53.9 298.99 L52.87 301.58 L52 304.23 L51.3 306.94 L50.75 309.67 L50.39 312.43 L50.18 315.2 L50.13 317.98 L50.25 320.73 L50.53 323.45 L50.97 326.13 L51.58 328.77 L52.35 331.32 L53.28 333.81 L54.37 336.19 L55.61 338.47 L57.01 340.64 L58.57 342.68 L60.29 344.57 L62.16 346.32 L64.19 347.91 L66.36 349.32 L68.68 350.56 L71.16 351.61 L73.78 352.46 L76.55 353.11 L79.46 353.55 L82.51 353.77 L85.69 353.76 L89.02 353.53 L92.49 353.06 L96.08 352.34 L99.8 351.39 L103.65 350.2 L107.62 348.76 L111.7 347.07 L115.91 345.13 L120.23 342.95 L124.66 340.51 L129.19 337.83 L133.82 334.91 L138.55 331.74 L143.37 328.33 L148.27 324.7 L153.25 320.84 L158.31 316.75 L163.44 312.44 L168.64 307.93 L173.89 303.21 L179.19 298.29 L184.55 293.19 L189.93 287.92 L195.36 282.47 L200.81 276.86 L206.28 271.1 L211.76 265.2 L217.24 259.18 L222.72 253.04 L228.19 246.8 L233.64 240.46 L239.06 234.03 L244.46 227.54 L249.81 220.99 L255.11 214.4 L260.35 207.78 L265.53 201.12 L270.64 194.47 L275.66 187.82 L280.59 181.19 L285.43 174.59 L290.16 168.02 L294.79 161.52 L299.29 155.08 L303.68 148.72 L307.92 142.44 L312.02 136.27 L315.99 130.2 L319.8 124.26 L323.45 118.46 L326.95 112.79 L330.26 107.28 L333.41 101.92 L336.38 96.73 L339.16 91.73 L341.77 86.91 L344.18 82.29 L346.41 77.85 L348.44 73.63 L350.27 69.62 L351.91 65.83 L353.34 62.27 L354.58 58.92 L355.63 55.81 L356.47 52.94 L357.11 50.3 L357.57 47.9 L357.83 45.74 L357.9 43.82 L357.78 42.15 L357.48 40.72 L357.01 39.53 L356.35 38.59 L355.54 37.9 L354.56 37.45 L353.42 37.23 L352.13 37.25 L350.72 37.51 L349.15 37.99 L347.47 38.7 L345.67 39.64 L343.77 40.8 L341.76 42.18 L339.67 43.76 L337.5 45.55 L335.26 47.55 L332.97 49.74 L330.62 52.13 L328.25 54.7 L325.85 57.45 L323.44 60.37 L321.03 63.46 L318.63 66.71 L316.25 70.12 L313.92 73.67 L311.62 77.37 L309.38 81.2 L307.21 85.16 L305.13 89.25 L303.13 93.45 L301.25 97.76 L299.47 102.17 L297.83 106.68 L296.31 111.29 L294.95 115.97 L293.73 120.74 L292.68 125.58 L291.8 130.49 L291.1 135.45 L290.6 140.47 L290.28 145.55 L290.17 150.66 L290.27 155.81 L290.59 160.99 L291.12 166.21 L291.89 171.45 L292.88 176.71 L294.09 181.97 L295.54 187.25 L297.22 192.54 L299.15 197.82 L301.31 203.1 L303.7 208.37 L306.33 213.63 L309.19 218.87 L312.29 224.09 L315.61 229.3 L319.15 234.47 L322.93 239.61 L326.9 244.72 L331.08 249.79 L335.48 254.82 L340.06 259.8 L344.83 264.73 L349.78 269.61 L354.9 274.44 L360.17 279.21 L365.6 283.93 L371.16 288.58 L376.86 293.16 L382.67 297.68 L388.58 302.11 L394.59 306.48 L400.68 310.77 L406.84 314.98 L413.05 319.1 L419.29 323.14 L425.57 327.08 L431.86 330.95 L438.15 334.7 L444.42 338.36 L450.67 341.93 L456.87 345.38 L463.02 348.74 L469.1 351.99 L475.09 355.11 L480.98 358.13 L486.76 361.04 L492.41 363.83 L497.93 366.49 L503.3 369.04 L508.5 371.45 L513.53 373.75 L518.38 375.92 L523.02 377.95 L527.45 379.85 L531.67 381.62 L535.66 383.26 L539.42 384.76 L542.91 386.14 L546.16 387.36 L549.15 388.46 L551.86 389.42 L554.31 390.24 L556.46 390.93 L558.34 391.48 L559.92 391.9 L561.21 392.18 L562.2 392.33 L562.89 392.36 L563.29 392.25 L563.37 392.03 L563.16 391.67 L562.64 391.19 L561.82 390.61 L560.7 389.91 L559.29 389.1 L557.58 388.17 L555.58 387.16 L553.3 386.05 L550.73 384.84 L547.89 383.55 L544.77 382.18 L541.4 380.74 L537.76 379.23 L533.88 377.66 L529.75 376.04 L525.4 374.36 L520.81 372.65 L516.01 370.91 L511.01 369.13 L505.81 367.35 L500.41 365.56 L494.86 363.77 L489.13 361.98 L483.25 360.2 L477.22 358.46 L471.06 356.75 L464.77 355.08 L458.37 353.45 L451.89 351.88 L445.3 350.38 L438.64 348.96 L431.92 347.62 L425.15 346.37 L418.32 345.21 L411.46 344.17 L404.59 343.24 L397.7 342.44 L390.81 341.76 L383.93 341.22 L377.07 340.83 L370.22 340.57 L363.43 340.48 L356.68 340.54 L349.99 340.77 L343.35 341.16 L336.79 341.74 L330.31 342.49 L323.92 343.42 L317.62 344.53 L311.42 345.83 L305.32 347.31 L299.34 348.99 L293.48 350.85 L287.75 352.9 L282.13 355.13 L276.66 357.55 L271.31 360.16 L266.1 362.95 L261.04 365.92 L256.12 369.07 L251.35 372.38 L246.74 375.86 L242.26 379.5 L237.94 383.29 L233.79 387.24 L229.78 391.33 L225.91 395.55 L222.22 399.9 L218.67 404.35 L215.27 408.93 L212.03 413.59 L208.94 418.34 L206 423.19 L203.21 428.08 L200.57 433.04 L198.07 438.03 L195.72 443.06 L193.51 448.11 L191.43 453.16 L189.49 458.21 L187.69 463.24 L186.01 468.24 L184.47 473.19 L183.04 478.08 L181.75 482.9 L180.57 487.64 L179.51 492.29 L178.56 496.81 L177.73 501.22 L176.99 505.48 L176.37 509.6 L175.84 513.56 L175.42 517.35 L175.08 520.95 L174.84 524.35 L174.7 527.54 L174.63 530.51 L174.65 533.26 L174.75 535.76 L174.91 538.01 L175.17 540.01 L175.49 541.74 L175.87 543.2 L176.33 544.38 L176.84 545.27 L177.42 545.86 L178.05 546.16 L178.75 546.15 L179.48 545.83 L180.27 545.21 L181.1 544.28 L181.98 543.03 L182.9 541.46 L183.86 539.58 L184.85 537.39 L185.88 534.88 L186.94 532.06 L188.02 528.93 L189.13 525.49 L190.26 521.76 L191.41 517.73 L192.57 513.4 L193.75 508.8 L194.92 503.92 L196.12 498.77 L197.31 493.35 L198.51 487.68 L199.7 481.77 L200.87 475.62 L202.05 469.26 L203.2 462.67 L204.35 455.89 L205.47 448.92 L206.56 441.77 L207.63 434.45 L208.66 426.99 L209.66 419.38 L210.61 411.65 L211.53 403.81 L212.39 395.87 L213.2 387.85 L213.96 379.76 L214.66 371.6 L215.29 363.41 L215.86 355.19 L216.36 346.97 L216.78 338.73 L217.12 330.51 L217.39 322.32 L217.57 314.18 L217.65 306.08 L217.65 298.06 L217.55 290.12 L217.36 282.27 L217.06 274.53 L216.66 266.91 L216.16 259.41 L215.55 252.05 L214.83 244.86 L213.99 237.81 L213.05 230.93 L212 224.24 L210.83 217.73 L209.55 211.42 L208.15 205.3 L206.64 199.4 L205.01 193.72 L203.27 188.25 L201.43 183.01 L199.47 178 L197.4 173.23 L195.23 168.7 L192.95 164.4 L190.59 160.35 L188.12 156.54 L185.56 152.97 L182.91 149.65 L180.18 146.58 L177.38 143.73 L174.5 141.14 L171.56 138.79 L168.56 136.68 L165.5 134.79 L162.4 133.14 L159.26 131.71 L156.09 130.52 L152.9 129.53 L149.7 128.75 L146.49 128.19 L143.28 127.82 L140.08 127.65 L136.91 127.67 L133.76 127.85 L130.67 128.23 L127.62 128.76 L124.63 129.46 L121.71 130.3 L118.87 131.29 L116.13 132.41 L113.5 133.67 L110.96 135.03 L108.56 136.51 L106.28 138.09 L104.15 139.77 L102.17 141.54 L100.35 143.37 L98.7 145.28 L97.24 147.26 L95.97 149.28 L94.89 151.36 L94.03 153.47 L93.38 155.62 L92.94 157.78 L92.74 159.96 L92.78 162.16 L93.07 164.36 L93.61 166.56 L94.4 168.75 L95.45 170.92 L96.75 173.07 L98.34 175.2 L100.19 177.3 L102.32 179.36 L104.72 181.38 L107.41 183.36 L110.38 185.29 L113.62 187.16 L117.13 188.98 L120.93 190.76 L125 192.45 L129.35 194.09 L133.96 195.67 L138.83 197.17 L143.97 198.6 L149.37 199.96 L155.01 201.25 L160.89 202.47 L167.02 203.61 L173.37 204.67 L179.93 205.66 L186.72 206.57 L193.7 207.4 L200.86 208.15 L208.21 208.84 L215.74 209.44 L223.41 209.96 L231.23 210.42 L239.18 210.8 L247.25 211.09 L255.43 211.32 L263.71 211.48 L272.05 211.57 L280.47 211.59 L288.94 211.53 L297.44 211.41 L305.96 211.23 L314.49 210.97 L323.02 210.66 L331.51 210.28 L339.98 209.84 L348.39 209.35 L356.73 208.8 L365 208.19 L373.16 207.53 L381.22 206.81 L389.16 206.03 L396.96 205.22 L404.6 204.35 L412.1 203.44 L419.4 202.48 L426.53 201.47 L433.45 200.43 L440.17 199.34 L446.67 198.22 L452.93 197.05 L458.96 195.86 L464.73 194.64 L470.26 193.37 L475.51 192.08 L480.49 190.77 L485.21 189.43 L489.63 188.06 L493.77 186.69 L497.61 185.28 L501.16 183.86 L504.41 182.44 L507.37 181 L510.01 179.56 L512.36 178.1 L514.39 176.66 L516.14 175.21 L517.58 173.77 L518.72 172.33 L519.57 170.91 L520.14 169.51 L520.4 168.12 L520.39 166.76 L520.11 165.44 L519.55 164.13 L518.73 162.87 L517.66 161.66 L516.34 160.49 L514.77 159.37 L512.97 158.31 L510.95 157.31 L508.72 156.37 L506.29 155.52 L503.66 154.73 L500.86 154.03 L497.88 153.42 L494.74 152.9 L491.45 152.49 L488.04 152.17 L484.49 151.97 L480.84 151.89 L477.08 151.93 L473.24 152.1 L469.3 152.4 L465.32 152.83 L461.29 153.42 L457.21 154.15 L453.1 155.04 L448.97 156.09 L444.84 157.3 L440.72 158.68 L436.61 160.23 L432.52 161.96 L428.48 163.87 L424.48 165.97 L420.54 168.25 L416.67 170.73 L412.87 173.4 L409.16 176.26 L405.53 179.32 L402.02 182.59 L398.6 186.04 L395.29 189.71 L392.12 193.57 L389.06 197.63 L386.13 201.89 L383.33 206.36 L380.69 211.02 L378.17 215.87 L375.82 220.92 L373.6 226.17 L371.54 231.6 L369.64 237.2 L367.89 242.99 L366.28 248.95 L364.84 255.08 L363.55 261.37 L362.42 267.82 L361.44 274.4 L360.61 281.13 L359.93 287.99 L359.39 294.99 L359.01 302.08 L358.76 309.29 L358.65 316.6 L358.67 323.99 L358.82 331.45 L359.1 338.99 L359.49 346.56 L360.01 354.18 L360.62 361.85 L361.34 369.51 L362.16 377.19 L363.08 384.87 L364.08 392.52 L365.15 400.14 L366.31 407.71 L367.53 415.23 L368.82 422.68 L370.15 430.05 L371.54 437.31 L372.97 444.47 L374.43 451.51 L375.93 458.42 L377.44 465.18 L378.98 471.78 L380.51 478.21 L382.07 484.45 L383.61 490.5 L385.15 496.35 L386.66 501.98 L388.16 507.38 L389.65 512.55 L391.1 517.48 L392.5 522.16 L393.88 526.56 L395.2 530.7 L396.48 534.57 L397.71 538.15 L398.87 541.43 L399.98 544.44 L401.01 547.13 L401.98 549.52 L402.87 551.6 L403.68 553.38 L404.41 554.84 L405.07 555.99 L405.63 556.82 L406.11 557.35 L406.5 557.55 L406.79 557.45 L406.99 557.04 L407.1 556.32 L407.1 555.3 L407 553.98 L406.8 552.37 L406.49 550.47 L406.09 548.3 L405.57 545.84 L404.95 543.13 L404.21 540.15 L403.38 536.93 L402.43 533.46 L401.37 529.78 L400.2 525.87 L398.92 521.75 L397.52 517.43 L396.02 512.94 L394.4 508.28 L392.67 503.44 L390.82 498.46 L388.86 493.35 L386.79 488.13 L384.6 482.79 L382.29 477.35 L379.88 471.85 L377.34 466.28 L374.69 460.64 L371.93 454.98 L369.06 449.28 L366.07 443.59 L362.96 437.89 L359.74 432.22 L356.4 426.56 L352.96 420.96 L349.4 415.4 L345.73 409.93 L341.95 404.53 L338.05 399.22 L334.05 394.02 L329.93 388.93 L325.71 383.97 L321.38 379.14 L316.95 374.46 L312.41 369.94 L307.77 365.58 L303.03 361.38 L298.19 357.37 L293.26 353.55 L288.23 349.91 L283.12 346.47 L277.92 343.23 L272.62 340.2 L267.25 337.38 L261.8 334.77 L256.27 332.37 L250.68 330.19 L245.02 328.22 L239.3 326.48 L233.52 324.95 L227.69 323.63 L221.81 322.53 L215.89 321.64 L209.93 320.96 L203.95 320.48 L197.94 320.19 L191.92 320.11 L185.89 320.22 L179.85 320.51 L173.82 320.99 L167.8 321.62 L161.8 322.43 L155.83 323.39 L149.9 324.5 L144.01 325.75 L138.17 327.12 L132.39 328.63 L126.69 330.24 L121.05 331.97 L115.51 333.78 L110.05 335.67 L104.7 337.64 L99.48 339.67 L94.37 341.76 L89.39 343.88 L84.55 346.04 L79.85 348.21 L75.32 350.4 L70.95 352.6 L66.76 354.78 L62.75 356.94 L58.94 359.08 L55.32 361.16 L51.9 363.21 L48.7 365.19 L45.72 367.12 L42.97 368.96 L40.46 370.71 L38.18 372.38 L36.15 373.95 L34.37 375.4 L32.84 376.74 L31.58 377.96 L30.58 379.05 L29.85 380.01 L29.39 380.82 L29.2 381.49 L29.28 382.02 L29.64 382.38 L30.28 382.59 L31.19 382.63 L32.39 382.52 L33.85 382.23 L35.58 381.78 L37.59 381.15 L39.87 380.36 L42.42 379.4 L45.22 378.25 L48.28 376.95 L51.59 375.46 L55.15 373.8 L58.94 371.98 L62.97 369.98 L67.23 367.81 L71.69 365.48 L76.37 363 L81.25 360.34 L86.31 357.54 L91.56 354.58 L96.97 351.47 L102.54 348.21 L108.26 344.82 L114.11 341.28 L120.08 337.62 L126.17 333.83 L132.36 329.92 L138.63 325.88 L144.96 321.74 L151.37 317.48 L157.81 313.12 L164.3 308.68 L170.79 304.13 L177.3 299.51 L183.8 294.8 L190.28 290.01 L196.72 285.16 L203.11 280.25 L209.45 275.27 L215.71 270.25 L221.88 265.18 L227.95 260.06 L233.92 254.92 L239.77 249.74 L245.47 244.54 L251.03 239.31 L256.44 234.07 L261.68 228.83 L266.75 223.57 L271.63 218.32 L276.31 213.07 L280.8 207.84 L285.07 202.61 L289.14 197.4 L292.99 192.22 L296.6 187.07 L299.99 181.94 L303.13 176.86 L306.03 171.81 L308.71 166.81 L311.12 161.86 L313.3 156.97 L315.23 152.13 L316.92 147.35 L318.36 142.64 L319.55 137.98 L320.51 133.41 L321.22 128.91 L321.7 124.49 L321.96 120.16 L321.98 115.9 L321.78 111.74 L321.37 107.68 L320.76 103.71 L319.94 99.85 L318.93 96.09 L317.74 92.44 L316.37 88.9 L314.84 85.48 L313.15 82.17 L311.32 78.99 L309.35 75.94 L307.27 73.02 L305.07 70.23 L302.78 67.58 L300.39 65.07 L297.93 62.7 L295.4 60.49 L292.83 58.43 L290.22 56.52 L287.58 54.77 L284.94 53.18 L282.28 51.76 L279.65 50.51 L277.03 49.43 L274.46 48.53 L271.94 47.8 L269.48 47.25 L267.09 46.89 L264.79 46.71 L262.59 46.72 L260.49 46.93 L258.51 47.33 L256.66 47.92 L254.95 48.71 L253.39 49.69 L251.98 50.88 L250.74 52.27 L249.67 53.85 L248.79 55.64 L248.08 57.63 L247.58 59.82 L247.26 62.21 L247.16 64.8 L247.27 67.59 L247.59 70.58 L248.11 73.76 L248.87 77.13 L249.84 80.69 L251.03 84.46 L252.45 88.39 L254.08 92.51 L255.94 96.8 L258.03 101.27 L260.33 105.9 L262.85 110.69 L265.58 115.65 L268.53 120.75 L271.68 125.99 L275.03 131.38 L278.58 136.89 L282.32 142.53 L286.25 148.28 L290.36 154.13 L294.64 160.09 L299.08 166.13 L303.69 172.26 L308.44 178.45 L313.33 184.71 L318.36 191.02 L323.51 197.37 L328.78 203.75 L334.14 210.15 L339.61 216.57 L345.16 222.97 L350.8 229.38 L356.49 235.76 L362.23 242.11 L368.04 248.41 L373.86 254.67 L379.72 260.85 L385.59 266.96 L391.47 272.98 L397.34 278.91 L403.19 284.73 L409.04 290.43 L414.83 296 L420.59 301.45 L426.29 306.74 L431.94 311.88 L437.5 316.86 L443 321.66 L448.4 326.28 L453.72 330.72 L458.93 334.96 L464.02 339 L469 342.83 L473.86 346.44 L478.58 349.85 L483.17 353.03 L487.61 355.98 L491.91 358.7 L496.05 361.18 L500.04 363.44 L503.86 365.45 L507.51 367.23 L511 368.78 L514.31 370.09 L517.44 371.15 L520.39 371.99 L523.17 372.59 L525.76 372.97 L528.16 373.12 L530.38 373.05 L532.41 372.75 L534.25 372.25 L535.89 371.54 L537.36 370.64 L538.62 369.55 L539.7 368.26 L540.59 366.81 L541.29 365.19 L541.8 363.41 L542.13 361.49 L542.28 359.43 L542.23 357.24 L542 354.94 L541.59 352.53 L541.01 350.04 L540.25 347.45 L539.32 344.81 L538.21 342.1 L536.93 339.35 L535.48 336.58 L533.87 333.79 L532.1 330.99 L530.17 328.19 L528.08 325.42 L525.83 322.69 L523.43 320 L520.89 317.36 L518.2 314.8 L515.37 312.32 L512.38 309.95 L509.28 307.67 L506.03 305.52 L502.65 303.49 L499.15 301.61 L495.52 299.88 L491.77 298.3 L487.9 296.91 L483.92 295.69 L479.82 294.65 L475.61 293.81 L471.31 293.17 L466.89 292.75 L462.37 292.54 L457.76 292.55 L453.06 292.78 L448.27 293.24 L443.39 293.94 L438.43 294.87 L433.4 296.03 L428.29 297.44 L423.12 299.08 L417.87 300.98 L412.56 303.09 L407.19 305.45 L401.78 308.04 L396.31 310.88 L390.8 313.93 L385.24 317.2 L379.66 320.7 L374.05 324.4 L368.4 328.31 L362.74 332.42 L357.07 336.73 L351.37 341.21 L345.69 345.88 L340 350.71 L334.31 355.69 L328.65 360.83 L323 366.1 L317.37 371.48 L311.78 377 L306.22 382.6 L300.71 388.3 L295.25 394.08 L289.84 399.93 L284.5 405.82 L279.22 411.76 L274.02 417.72 L268.91 423.7 L263.88 429.68 L258.93 435.65 L254.1 441.6 L249.37 447.5 L244.76 453.36 L240.26 459.16 L235.89 464.88 L231.66 470.5 L227.55 476.04 L223.6 481.45 L219.79 486.75 L216.12 491.91 L212.62 496.92 L209.28 501.77 L206.11 506.45 L203.11 510.97 L200.28 515.3 L197.64 519.42 L195.17 523.35 L192.88 527.06 L190.79 530.55 L188.88 533.82 L187.16 536.85 L185.64 539.65 L184.31 542.21 L183.17 544.51 L182.22 546.56 L181.47 548.37 L180.9 549.9 L180.53 551.18 L180.34 552.19 L180.34 552.94 L180.52 553.43 L180.88 553.64 L181.42 553.59 L182.13 553.29 L183.01 552.71 L184.05 551.88 L185.24 550.79 L186.59 549.45 L188.07 547.85 L189.7 546.01 L191.45 543.92 L193.33 541.59 L195.32 539.04 L197.41 536.25 L199.6 533.24 L201.87 530.02 L204.23 526.58 L206.65 522.94 L209.13 519.11 L211.66 515.09 L214.22 510.89 L216.81 506.51 L219.41 501.97 L222.02 497.28 L224.63 492.42 L227.21 487.43 L229.78 482.32 L232.29 477.07 L234.77 471.71 L237.17 466.24 L239.51 460.67 L241.77 455.01 L243.92 449.27 L245.98 443.44 L247.93 437.55 L249.76 431.61 L251.45 425.61 L253 419.57 L254.4 413.49 L255.65 407.39 L256.73 401.26 L257.63 395.13 L258.35 388.99 L258.89 382.84 L259.23 376.7 L259.38 370.57 L259.33 364.46 L259.06 358.38 L258.6 352.32 L257.91 346.3 L257 340.33 L255.89 334.4 L254.55 328.52 L252.99 322.69 L251.22 316.93 L249.23 311.22 L247.02 305.59 L244.61 300.02 L241.97 294.54 L239.14 289.13 L236.1 283.81 L232.87 278.56 L229.44 273.41 L225.83 268.34 L222.03 263.37 L218.07 258.5 L213.95 253.72 L209.68 249.04 L205.26 244.46 L200.71 239.99 L196.03 235.62 L191.24 231.36 L186.34 227.21 L181.36 223.17 L176.3 219.24 L171.17 215.42 L165.98 211.72 L160.76 208.13 L155.51 204.66 L150.25 201.3 L144.98 198.07 L139.72 194.95 L134.51 191.96 L129.32 189.09 L124.19 186.34 L119.13 183.72 L114.15 181.21 L109.26 178.83 L104.49 176.58 L99.83 174.45 L95.32 172.45 L90.94 170.58 L86.73 168.83 L82.69 167.21 L78.84 165.73 L75.19 164.36 L71.74 163.13 L68.52 162.02 L65.51 161.04 L62.74 160.2 L60.23 159.48 L57.96 158.88 L55.96 158.41 L54.23 158.07 L52.77 157.85 L51.59 157.76 L50.71 157.79 L50.12 157.94 L49.82 158.21 L49.82 158.6 L50.13 159.1 L50.73 159.73 L51.64 160.46 L52.86 161.29 L54.39 162.24 L56.22 163.29 L58.35 164.44 L60.78 165.69 L63.51 167.02 L66.53 168.45 L69.83 169.96 L73.43 171.55 L77.31 173.22 L81.45 174.95 L85.85 176.77 L90.53 178.63 L95.45 180.55 L100.61 182.52 L105.99 184.53 L111.61 186.58 L117.44 188.66 L123.47 190.77 L129.7 192.89 L136.09 195.02 L142.68 197.16 L149.41 199.3 L156.29 201.43 L163.3 203.54 L170.45 205.63 L177.7 207.68 L185.04 209.7 L192.48 211.67 L199.98 213.59 L207.56 215.44 L215.17 217.23 L222.83 218.94 L230.5 220.58 L238.19 222.12 L245.88 223.57 L253.55 224.91 L261.2 226.15 L268.82 227.27 L276.39 228.28 L283.9 229.15 L291.34 229.89 L298.7 230.51 L305.98 230.97 L313.14 231.3 L320.21 231.48 L327.16 231.5 L334 231.36 L340.69 231.06 L347.23 230.62 L353.64 229.99 L359.9 229.21 L365.99 228.27 L371.91 227.15 L377.67 225.87 L383.24 224.44 L388.64 222.84 L393.86 221.06 L398.89 219.14 L403.73 217.05 L408.37 214.83 L412.82 212.44 L417.08 209.9 L421.14 207.24 L425 204.44 L428.66 201.51 L432.13 198.45 L435.39 195.29 L438.47 192.01 L441.34 188.64 L444.04 185.17 L446.53 181.63 L448.84 178.01 L450.96 174.33 L452.89 170.6 L454.65 166.82 L456.24 163.01 L457.64 159.19 L458.88 155.35 L459.96 151.52 L460.87 147.7 L461.62 143.9 L462.23 140.15 L462.69 136.45 L463.01 132.8 L463.18 129.23 L463.23 125.75 L463.14 122.38 L462.93 119.1 L462.6 115.96 L462.17 112.95 L461.62 110.09 L460.97 107.39 L460.22 104.85 L459.37 102.51 L458.44 100.35 L457.42 98.39 L456.32 96.64 L455.16 95.13 L453.91 93.83 L452.6 92.78 L451.24 91.98 L449.8 91.44 L448.32 91.16 L446.79 91.14 L445.22 91.41 L443.6 91.94 L441.94 92.77 L440.25 93.89 L438.53 95.3 L436.78 97 L435.02 99 L433.23 101.3 L431.41 103.89 L429.59 106.78 L427.75 109.98 L425.91 113.47 L424.06 117.25 L422.21 121.32 L420.35 125.68 L418.5 130.31 L416.66 135.22 L414.82 140.41 L413 145.85 L411.19 151.56 L409.38 157.51 L407.61 163.71 L405.85 170.12 L404.12 176.77 L402.4 183.62 L400.72 190.67 L399.08 197.91 L397.45 205.33 L395.87 212.91 L394.32 220.65 L392.82 228.52 L391.36 236.51 L389.94 244.62 L388.57 252.83 L387.25 261.11 L385.99 269.48 L384.78 277.9 L383.62 286.35 L382.53 294.83 L381.5 303.32 L380.53 311.81 L379.63 320.28 L378.8 328.72 L378.04 337.11 L377.35 345.44 L376.75 353.7 L376.21 361.87 L375.76 369.93 L375.39 377.88 L375.11 385.7 L374.9 393.38 L374.79 400.91 L374.76 408.26 L374.82 415.45 L374.97 422.45 L375.2 429.25 L375.53 435.85 L375.96 442.23 L376.46 448.38 L377.07 454.3 L377.77 459.99 L378.55 465.42 L379.42 470.61 L380.38 475.53 L381.43 480.2 L382.57 484.59 L383.79 488.71 L385.09 492.56 L386.46 496.14 L387.91 499.43 L389.43 502.45 L391.03 505.2 L392.68 507.65 L394.4 509.84 L396.17 511.75 L398 513.38 L399.87 514.74 L401.78 515.84 L403.72 516.67 L405.7 517.25 L407.69 517.57 L409.7 517.64 L411.73 517.47 L413.75 517.07 L415.77 516.43 L417.77 515.57 L419.76 514.5 L421.71 513.23 L423.63 511.75 L425.5 510.09 L427.32 508.25 L429.08 506.23 L430.76 504.05 L432.36 501.72 L433.89 499.25 L435.3 496.63 L436.62 493.9 L437.82 491.06 L438.89 488.1 L439.84 485.06 L440.64 481.92 L441.29 478.72 L441.79 475.44 L442.13 472.12 L442.28 468.74 L442.26 465.33 L442.06 461.89 L441.65 458.43 L441.05 454.96 L440.25 451.48 L439.22 448.02 L437.98 444.56 L436.51 441.13 L434.82 437.73 L432.9 434.35 L430.74 431.03 L428.34 427.75 L425.7 424.52 L422.82 421.36 L419.69 418.26 L416.32 415.23 L412.71 412.27 L408.85 409.4 L404.74 406.61 L400.39 403.9 L395.81 401.28 L390.98 398.76 L385.93 396.32 L380.63 393.99 L375.13 391.75 L369.39 389.61 L363.44 387.58 L357.29 385.64 L350.94 383.81 L344.39 382.09 L337.67 380.45 L330.77 378.93 L323.7 377.5 L316.47 376.18 L309.1 374.96 L301.61 373.83 L293.99 372.8 L286.24 371.87 L278.41 371.03 L270.49 370.27 L262.5 369.62 L254.44 369.05 L246.34 368.55 L238.21 368.14 L230.06 367.82 L221.9 367.56 L213.76 367.38 L205.63 367.28 L197.55 367.24 L189.51 367.26 L181.54 367.35 L173.66 367.5 L165.86 367.71 L158.18 367.97 L150.62 368.28 L143.19 368.64 L135.91 369.04 L128.8 369.48 L121.87 369.97 L115.12 370.48 L108.58 371.04 L102.24 371.62 L96.12 372.22 L90.24 372.86 L84.61 373.52 L79.22 374.19 L74.1 374.89 L69.25 375.59 L64.68 376.31 L60.4 377.04 L56.41 377.77 L52.71 378.51 L49.32 379.24 L46.24 379.99 L43.47 380.72 L41 381.44 L38.86 382.15 L37.04 382.87 L35.53 383.55 L34.36 384.22 L33.5 384.88 L32.94 385.51 L32.71 386.12 L32.79 386.69 L33.18 387.23 L33.87 387.74 L34.87 388.21 L36.16 388.65 L37.73 389.04 L39.58 389.38 L41.71 389.67 L44.11 389.92 L46.76 390.1 L49.66 390.21 L52.8 390.27 L56.17 390.27 L59.75 390.19 L63.55 390.04 L67.54 389.8 L71.7 389.49 L76.04 389.09 L80.55 388.6 L85.2 388.02 L89.98 387.33 L94.88 386.55 L99.89 385.66 L105 384.67 L110.2 383.56 L115.46 382.33 L120.77 380.99 L126.14 379.51 L131.53 377.92 L136.93 376.19 L142.35 374.32 L147.75 372.33 L153.14 370.19 L158.5 367.91 L163.81 365.48 L169.07 362.91 L174.26 360.17 L179.38 357.3 L184.41 354.27 L189.34 351.09 L194.17 347.74 L198.88 344.23 L203.48 340.58 L207.93 336.76 L212.26 332.79 L216.44 328.65 L220.47 324.36 L224.34 319.92 L228.05 315.32 L231.59 310.57 L234.96 305.67 L238.16 300.62 L241.18 295.42 L244.03 290.09 L246.69 284.62 L249.17 279.01 L251.47 273.29 L253.59 267.44 L255.52 261.48 L257.27 255.4 L258.85 249.22 L260.24 242.94 L261.46 236.59 L262.51 230.14 L263.39 223.63 L264.11 217.04 L264.67 210.41 L265.06 203.73 L265.31 197.01 L265.42 190.26 L265.39 183.5 L265.22 176.74 L264.93 169.97 L264.51 163.22 L263.98 156.5 L263.34 149.81 L262.61 143.18 L261.79 136.61 L260.88 130.1 L259.89 123.69 L258.83 117.36 L257.71 111.14 L256.54 105.04 L255.31 99.08 L254.05 93.25 L252.77 87.59 L251.46 82.07 L250.13 76.74 L248.8 71.59 L247.46 66.64 L246.13 61.9 L244.82 57.38 L243.52 53.07 L242.25 49.01 L241.01 45.19 L239.83 41.61 L238.68 38.31 L237.58 35.27 L236.54 32.51 L235.56 30.02 L234.66 27.82 L233.82 25.91 L233.06 24.31 L232.38 23 L231.8 21.99 L231.29 21.29 L230.88 20.9 L230.57 20.82 L230.36 21.05 L230.25 21.58 L230.24 22.44 L230.34 23.59 L230.55 25.06 L230.87 26.82 L231.3 28.89 L231.85 31.25 L232.5 33.9 L233.27 36.84 L234.16 40.06 L235.16 43.54 L236.28 47.3 L237.51 51.31 L238.87 55.57 L240.33 60.07 L241.9 64.79 L243.6 69.74 L245.41 74.89 L247.32 80.25 L249.36 85.78 L251.5 91.49 L253.75 97.36 L256.1 103.37 L258.57 109.53 L261.13 115.79 L263.81 122.17 L266.59 128.65 L269.46 135.2 L272.43 141.81 L275.5 148.49 L278.67 155.19 L281.93 161.92 L285.27 168.66 L288.72 175.39 L292.24 182.1 L295.86 188.79 L299.55 195.42 L303.33 201.99 L307.18 208.49 L311.12 214.9 L315.13 221.21 L319.21 227.42 L323.37 233.5 L327.6 239.44 L331.89 245.24 L336.24 250.89 L340.66 256.36 L345.13 261.67 L349.66 266.79 L354.25 271.71 L358.89 276.44 L363.57 280.97 L368.3 285.27 L373.08 289.36 L377.88 293.22 L382.73 296.87 L387.61 300.27 L392.51 303.45 L397.44 306.38 L402.4 309.08 L407.37 311.55 L412.35 313.77 L417.34 315.75 L422.34 317.5 L427.33 319.01 L432.32 320.28 L437.3 321.33 L442.26 322.15 L447.21 322.76 L452.13 323.14 L457.01 323.32 L461.85 323.29 L466.65 323.06 L471.4 322.65 L476.1 322.05 L480.73 321.28 L485.3 320.34 L489.79 319.25 L494.2 318.02 L498.51 316.63 L502.73 315.12 L506.85 313.51 L510.86 311.78 L514.75 309.96 L518.51 308.04 L522.15 306.06 L525.64 304.02 L529 301.93 L532.2 299.8 L535.24 297.64 L538.11 295.46 L540.81 293.27 L543.34 291.09 L545.67 288.93 L547.81 286.79 L549.75 284.7 L551.49 282.64 L553.02 280.65 L554.34 278.73" fill="none" stroke="hsl(150 100% 27%)" stroke-width="1.5" opacity="0.65" stroke-linecap="round" stroke-linejoin="round"/>
</svg>