<svg xmlns="http://www.w3.org/2000/svg" viewBox="0 0 600 600" width="600" height="600" style="max-width:100%;height:auto">

<path d="M580 295.2 L579.83 300.07 L579.38 304.94 L578.57 309.79 L577.48 314.6 L576.08 319.36 L574.37 324.04 L572.33 328.63 L570.03 333.14 L567.4 337.57 L564.51 341.85 L561.32 346 L557.85 350 L554.1 353.87 L550.12 357.56 L545.86 361.09 L541.35 364.42 L536.62 367.56 L531.64 370.47 L526.46 373.19 L521.08 375.68 L515.48 377.92 L509.71 379.94 L503.74 381.7 L497.64 383.21 L491.37 384.45 L484.98 385.43 L478.46 386.15 L471.82 386.57 L465.07 386.72 L458.27 386.6 L451.35 386.18 L444.4 385.45 L437.4 384.47 L430.37 383.16 L423.34 381.59 L416.29 379.71 L409.26 377.56 L402.23 375.09 L395.26 372.38 L388.34 369.35 L381.48 366.05 L374.7 362.49 L368.01 358.65 L361.4 354.54 L354.93 350.17 L348.6 345.55 L342.38 340.7 L336.34 335.61 L330.45 330.26 L324.74 324.71 L319.2 318.97 L313.88 313.01 L308.72 306.85 L303.82 300.52 L299.12 293.99 L294.67 287.33 L290.44 280.52 L286.46 273.58 L282.71 266.49 L279.23 259.32 L276.04 252.04 L273.1 244.68 L270.41 237.23 L268.03 229.72 L265.9 222.19 L264.08 214.63 L262.54 207.04 L261.26 199.45 L260.28 191.86 L259.6 184.3 L259.18 176.77 L259.04 169.29 L259.21 161.9 L259.63 154.56 L260.33 147.34 L261.31 140.22 L262.57 133.19 L264.06 126.33 L265.82 119.58 L267.84 113.03 L270.08 106.62 L272.57 100.37 L275.29 94.35 L278.23 88.53 L281.39 82.9 L284.72 77.49 L288.28 72.34 L292 67.41 L295.9 62.73 L299.96 58.34 L304.16 54.19 L308.5 50.3 L312.98 46.72 L317.57 43.41 L322.25 40.39 L327.01 37.67 L331.88 35.26 L336.78 33.16 L341.74 31.34 L346.75 29.86 L351.77 28.68 L356.81 27.81 L361.82 27.25 L366.83 27 L371.79 27.09 L376.72 27.48 L381.59 28.15 L386.41 29.16 L391.11 30.45 L395.73 32.07 L400.24 33.95 L404.61 36.13 L408.87 38.62 L412.98 41.37 L416.9 44.39 L420.68 47.67 L424.27 51.22 L427.69 55.01 L430.88 59.04 L433.85 63.29 L436.62 67.78 L439.14 72.45 L441.44 77.35 L443.48 82.42 L445.27 87.69 L446.78 93.09 L448.04 98.66 L449.05 104.38 L449.75 110.2 L450.17 116.17 L450.31 122.22 L450.17 128.38 L449.72 134.59 L448.97 140.89 L447.93 147.22 L446.62 153.58 L444.96 159.96 L443.03 166.38 L440.82 172.76 L438.27 179.12 L435.47 185.48 L432.36 191.75 L428.95 197.99 L425.28 204.16 L421.33 210.23 L417.1 216.2 L412.59 222.05 L407.83 227.79 L402.82 233.39 L397.55 238.85 L392.06 244.15 L386.35 249.27 L380.39 254.2 L374.23 258.96 L367.87 263.52 L361.34 267.87 L354.59 272.01 L347.71 275.9 L340.65 279.57 L333.45 283.02 L326.11 286.18 L318.66 289.12 L311.1 291.78 L303.46 294.19 L295.73 296.32 L287.92 298.19 L280.08 299.79 L272.18 301.11 L264.25 302.14 L256.33 302.9 L248.37 303.37 L240.48 303.57 L232.58 303.46 L224.74 303.09 L216.93 302.45 L209.22 301.55 L201.58 300.35 L194.05 298.89 L186.6 297.19 L179.29 295.2 L172.12 292.96 L165.09 290.49 L158.23 287.78 L151.54 284.81 L145.04 281.64 L138.74 278.25 L132.63 274.64 L126.72 270.86 L121.07 266.86 L115.63 262.68 L110.45 258.37 L105.5 253.86 L100.85 249.21 L96.42 244.45 L92.28 239.55 L88.44 234.54 L84.86 229.44 L81.58 224.23 L78.61 218.97 L75.92 213.65 L73.54 208.27 L71.47 202.87 L69.71 197.46 L68.25 192.03 L67.08 186.6 L66.23 181.22 L65.7 175.84 L65.48 170.52 L65.56 165.26 L65.95 160.08 L66.63 155.01 L67.61 150 L68.87 145.12 L70.44 140.39 L72.28 135.77 L74.38 131.32 L76.79 127.03 L79.42 122.89 L82.34 118.97 L85.47 115.24 L88.86 111.69 L92.47 108.38 L96.31 105.3 L100.34 102.44 L104.6 99.84 L109.03 97.49 L113.65 95.39 L118.41 93.57 L123.34 92 L128.38 90.74 L133.59 89.73 L138.88 89.03 L144.28 88.64 L149.8 88.53 L155.37 88.69 L161 89.2 L166.69 89.98 L172.43 91.1 L178.17 92.5 L183.91 94.21 L189.68 96.23 L195.39 98.55 L201.1 101.16 L206.73 104.07 L212.33 107.29 L217.85 110.79 L223.28 114.6 L228.63 118.66 L233.87 123 L238.96 127.62 L243.95 132.49 L248.77 137.65 L253.44 143.02 L257.92 148.65 L262.26 154.5 L266.38 160.55 L270.33 166.85 L274.05 173.32 L277.55 179.99 L280.86 186.85 L283.91 193.85 L286.71 201.02 L289.29 208.33 L291.61 215.78 L293.69 223.34 L295.48 231.01 L296.99 238.77 L298.25 246.61 L299.26 254.51 L299.96 262.43 L300.38 270.44 L300.55 278.45 L300.41 286.46 L300.01 294.47 L299.31 302.45 L298.36 310.43 L297.13 318.33 L295.59 326.2 L293.83 333.98 L291.75 341.68 L289.46 349.27 L286.88 356.75 L284.05 364.12 L280.97 371.31 L277.67 378.4 L274.14 385.29 L270.36 392.01 L266.38 398.56 L262.18 404.92 L257.78 411.05 L253.22 416.99 L248.46 422.67 L243.53 428.13 L238.43 433.37 L233.22 438.33 L227.85 443.03 L222.36 447.48 L216.76 451.66 L211.07 455.55 L205.3 459.16 L199.45 462.49 L193.54 465.52 L187.58 468.26 L181.58 470.7 L175.59 472.83 L169.57 474.68 L163.55 476.22 L157.58 477.45 L151.62 478.37 L145.74 478.99 L139.89 479.32 L134.15 479.35 L128.46 479.1 L122.92 478.54 L117.45 477.7 L112.13 476.58 L106.95 475.18 L101.94 473.5 L97.07 471.57 L92.39 469.38 L87.88 466.92 L83.6 464.23 L79.51 461.32 L75.64 458.18 L72 454.82 L68.59 451.26 L65.45 447.48 L62.54 443.54 L59.91 439.42 L57.55 435.16 L55.45 430.71 L53.66 426.14 L52.15 421.47 L50.94 416.65 L50.02 411.75 L49.38 406.77 L49.07 401.7 L49.07 396.57 L49.38 391.39 L49.99 386.18 L50.92 380.95 L52.15 375.71 L53.69 370.5 L55.54 365.29 L57.69 360.11 L60.19 354.99 L62.93 349.92 L66.01 344.93 L69.37 340.03 L73.01 335.22 L76.96 330.51 L81.16 325.95 L85.64 321.52 L90.37 317.24 L95.39 313.09 L100.62 309.14 L106.11 305.36 L111.83 301.78 L117.76 298.39 L123.9 295.2 L130.22 292.23 L136.75 289.48 L143.44 286.99 L150.33 284.72 L157.33 282.71 L164.5 280.97 L171.78 279.46 L179.18 278.23 L186.68 277.25 L194.24 276.55 L201.92 276.13 L209.64 275.99 L217.4 276.13 L225.19 276.55 L233.03 277.25 L240.84 278.25 L248.65 279.51 L256.44 281.06 L264.2 282.88 L271.9 284.98 L279.54 287.36 L287.1 290.02 L294.58 292.93 L301.95 296.09 L309.2 299.51 L316.34 303.18 L323.31 307.1 L330.15 311.24 L336.81 315.64 L343.31 320.23 L349.61 325.05 L355.74 330.03 L361.62 335.24 L367.31 340.62 L372.77 346.19 L378.01 351.91 L382.99 357.76 L387.72 363.75 L392.2 369.88 L396.4 376.13 L400.35 382.46 L404.02 388.9 L407.41 395.4 L410.52 401.95 L413.32 408.56 L415.87 415.22 L418.08 421.89 L420.04 428.55 L421.69 435.22 L423.04 441.88 L424.1 448.49 L424.86 455.05 L425.33 461.57 L425.5 467.98 L425.39 474.34 L425 480.59 L424.32 486.72 L423.37 492.71 L422.14 498.56 L420.66 504.28 L418.92 509.82 L416.93 515.2 L414.69 520.38 L412.2 525.34 L409.51 530.12 L406.57 534.66 L403.43 539 L400.1 543.09 L396.57 546.93 L392.88 550.51 L389.01 553.82 L384.98 556.87 L380.81 559.64 L376.49 562.11 L372.07 564.29 L367.53 566.19 L362.88 567.79 L358.18 569.08 L353.39 570.06 L348.55 570.76 L343.64 571.09 L338.74 571.15 L333.82 570.9 L328.89 570.31 L323.96 569.41 L319.06 568.21 L314.18 566.7 L309.37 564.85 L304.63 562.72 L299.96 560.29 L295.37 557.54 L290.91 554.52 L286.54 551.21 L282.32 547.6 L278.23 543.73 L274.28 539.59 L270.5 535.19 L266.89 530.52 L263.47 525.62 L260.22 520.49 L257.2 515.11 L254.4 509.54 L251.82 503.77 L249.44 497.78 L247.34 491.62 L245.43 485.29 L243.81 478.82 L242.47 472.16 L241.35 465.41 L240.53 458.52 L239.94 451.49 L239.66 444.4 L239.66 437.23 L239.94 429.98 L240.51 422.67 L241.37 415.34 L242.49 407.94 L243.92 400.58 L245.63 393.18 L247.65 385.82 L249.91 378.48 L252.49 371.17 L255.32 363.92 L258.46 356.75 L261.84 349.64 L265.48 342.64 L269.41 335.75 L273.55 328.97 L277.97 322.33 L282.62 315.84 L287.52 309.51 L292.65 303.32 L297.97 297.33 L303.51 291.53 L309.23 285.93 L315.16 280.52 L321.27 275.34 L327.51 270.39 L333.96 265.65 L340.51 261.17 L347.2 256.94 L354.01 252.97 L360.92 249.24 L367.95 245.8 L375.04 242.63 L382.21 239.72 L389.4 237.12 L396.66 234.76 L403.94 232.72 L411.25 230.96 L418.53 229.47 L425.81 228.27 L433.06 227.37 L440.26 226.76 L447.43 226.42 L454.51 226.39 L461.51 226.61 L468.4 227.15 L475.21 227.93 L481.87 229 L488.4 230.31 L494.78 231.88 L501.03 233.73 L507.08 235.8 L512.93 238.12 L518.61 240.67 L524.08 243.45 L529.34 246.44 L534.35 249.63 L539.14 253.02 L543.71 256.58 L547.99 260.33 L552.02 264.25 L555.78 268.31 L559.28 272.51 L562.47 276.85 L565.38 281.28 L568.01 285.84 L570.31 290.46 L572.33 295.2 L574.06 299.99 L575.46 304.83 L576.53 309.7 L577.31 314.6 L577.79 319.5 L577.93 324.41 L577.76 329.31 L577.28 334.18 L576.47 339 L575.38 343.76 L573.95 348.46 L572.24 353.08 L570.23 357.59 L567.9 362.02 L565.3 366.3 L562.41 370.44 L559.25 374.48 L555.83 378.34 L552.14 382.04 L548.16 385.54 L543.96 388.87 L539.51 391.98 L534.86 394.89 L529.96 397.61 L524.86 400.07 L519.57 402.31 L514.08 404.3 L508.42 406.04 L502.6 407.52 L496.6 408.73 L490.5 409.68 L484.25 410.35 L477.9 410.74 L471.43 410.85 L464.9 410.69 L458.27 410.21 L451.6 409.45 L444.85 408.42 L438.1 407.07 L431.33 405.42 L424.55 403.49 L417.77 401.28 L411.02 398.76 L404.3 395.96 L397.64 392.88 L391.03 389.49 L384.47 385.85 L378.03 381.93 L371.7 377.73 L365.46 373.27 L359.38 368.57 L353.42 363.61 L347.59 358.4 L341.94 352.97 L336.45 347.31 L331.15 341.46 L326.06 335.38 L321.16 329.11 L316.45 322.64 L311.97 316.03 L307.74 309.23 L303.74 302.28 L299.96 295.2 L296.43 287.97 L293.18 280.66 L290.18 273.24 L287.44 265.71 L284.98 258.12 L282.79 250.47 L280.89 242.77 L279.23 235.02 L277.89 227.26 L276.83 219.5 L276.04 211.74 L275.51 204.02 L275.31 196.31 L275.37 188.64 L275.71 181.05 L276.32 173.55 L277.19 166.1 L278.34 158.79 L279.77 151.56 L281.45 144.48 L283.38 137.53 L285.56 130.76 L288 124.12 L290.66 117.68 L293.55 111.43 L296.65 105.36 L299.96 99.5 L303.46 93.88 L307.18 88.5 L311.08 83.32 L315.11 78.42 L319.34 73.77 L323.71 69.37 L328.19 65.25 L332.81 61.42 L337.54 57.86 L342.38 54.59 L347.31 51.62 L352.3 48.93 L357.37 46.58 L362.46 44.5 L367.62 42.74 L372.77 41.28 L377.92 40.16 L383.1 39.32 L388.23 38.82 L393.35 38.62 L398.42 38.73 L403.41 39.15 L408.33 39.88 L413.18 40.89 L417.91 42.21 L422.56 43.83 L427.07 45.74 L431.44 47.95 L435.64 50.41 L439.7 53.16 L443.59 56.15 L447.29 59.4 L450.79 62.93 L454.09 66.65 L457.2 70.63 L460.06 74.83 L462.69 79.23 L465.07 83.85 L467.23 88.64 L469.1 93.62 L470.73 98.75 L472.07 104.04 L473.16 109.47 L473.95 115.02 L474.45 120.7 L474.68 126.47 L474.59 132.35 L474.23 138.29 L473.56 144.28 L472.58 150.33 L471.32 156.44 L469.75 162.54 L467.87 168.67 L465.69 174.78 L463.22 180.88 L460.45 186.93 L457.4 192.95 L454.04 198.92 L450.4 204.8 L446.48 210.6 L442.28 216.31 L437.79 221.91 L433.06 227.37 L428.08 232.72 L422.84 237.9 L417.35 242.94 L411.64 247.79 L405.7 252.49 L399.54 256.97 L393.18 261.26 L386.63 265.34 L379.88 269.24 L372.96 272.88 L365.91 276.29 L358.68 279.46 L351.32 282.4 L343.84 285.06 L336.25 287.5 L328.55 289.65 L320.77 291.53 L312.92 293.15 L305.03 294.5 L297.07 295.56 L289.06 296.35 L281.08 296.85 L273.07 297.07 L265.09 297.02 L257.11 296.68 L249.19 296.09 L241.32 295.2 L233.5 294.05 L225.77 292.59 L218.13 290.91 L210.6 288.95 L203.18 286.74 L195.89 284.25 L188.75 281.53 L181.78 278.59 L174.98 275.4 L168.34 271.98 L161.9 268.37 L155.65 264.53 L149.63 260.5 L143.81 256.27 L138.23 251.87 L132.91 247.28 L127.82 242.58 L123 237.7 L118.41 232.69 L114.12 227.57 L110.12 222.33 L106.36 216.98 L102.92 211.55 L99.76 206.06 L96.9 200.52 L94.35 194.91 L92.08 189.29 L90.12 183.63 L88.47 177.97 L87.15 172.31 L86.12 166.71 L85.39 161.11 L84.94 155.57 L84.83 150.11 L85.03 144.7 L85.5 139.38 L86.26 134.17 L87.32 129.08 L88.67 124.12 L90.32 119.27 L92.22 114.6 L94.38 110.09 L96.82 105.75 L99.5 101.6 L102.42 97.66 L105.58 93.93 L109 90.4 L112.61 87.1 L116.42 84.05 L120.42 81.25 L124.62 78.7 L129.02 76.4 L133.56 74.36 L138.23 72.62 L143.08 71.14 L148.04 69.96 L153.1 69.06 L158.28 68.48 L163.55 68.17 L168.9 68.17 L174.3 68.48 L179.74 69.09 L185.22 70.02 L190.74 71.25 L196.26 72.79 L201.78 74.64 L207.26 76.79 L212.72 79.26 L218.13 82.03 L223.48 85.08 L228.77 88.41 L233.95 92.05 L239.05 96 L244.03 100.2 L248.91 104.68 L253.64 109.42 L258.23 114.43 L262.66 119.67 L266.91 125.16 L270.97 130.9 L274.87 136.83 L278.56 143.02 L282.06 149.38 L285.31 155.93 L288.36 162.68 L291.16 169.6 L293.74 176.68 L296.07 183.91 L298.14 191.25 L299.96 198.72 L301.5 206.31 L302.79 213.99 L303.79 221.77 L304.55 229.58 L305 237.48 L305.19 245.41 L305.08 253.36 L304.72 261.34 L304.05 269.29 L303.12 277.25 L301.92 285.17 L300.41 293.07 L298.64 300.88 L296.6 308.64 L294.3 316.31 L291.72 323.9 L288.9 331.35 L285.82 338.72 L282.48 345.91 L278.93 353 L275.12 359.89 L271.09 366.64 L266.86 373.19 L262.4 379.55 L257.76 385.71 L252.91 391.67 L247.87 397.38 L242.69 402.9 L237.34 408.14 L231.85 413.15 L226.22 417.91 L220.45 422.42 L214.6 426.62 L208.64 430.57 L202.59 434.24 L196.48 437.63 L190.29 440.74 L184.05 443.54 L177.8 446.06 L171.53 448.27 L165.23 450.17 L158.96 451.8 L152.68 453.11 L146.47 454.12 L140.31 454.85 L134.2 455.27 L128.15 455.41 L122.22 455.24 L116.36 454.79 L110.65 454.04 L105.05 453.03 L99.59 451.74 L94.3 450.17 L89.14 448.35 L84.19 446.28 L79.42 443.96 L74.83 441.38 L70.49 438.58 L66.35 435.58 L62.43 432.33 L58.76 428.89 L55.31 425.28 L52.15 421.47 L49.24 417.49 L46.6 413.35 L44.25 409.03 L42.18 404.61 L40.39 400.07 L38.9 395.4 L37.73 390.64 L36.83 385.79 L36.24 380.89 L35.99 375.91 L36.02 370.89 L36.38 365.82 L37.05 360.76 L38.01 355.66 L39.32 350.59 L40.92 345.55 L42.82 340.54 L45.04 335.58 L47.56 330.68 L50.38 325.83 L53.52 321.1 L56.91 316.45 L60.61 311.94 L64.58 307.52 L68.84 303.26 L73.35 299.15 L78.11 295.2 L83.15 291.42 L88.41 287.8 L93.9 284.39 L99.62 281.2 L105.52 278.2 L111.66 275.4 L117.99 272.85 L124.48 270.53 L131.15 268.45 L137.98 266.63 L144.93 265.06 L152.04 263.75 L159.24 262.71 L166.55 261.93 L173.97 261.42 L181.44 261.23 L189.01 261.28 L196.59 261.62 L204.24 262.24 L211.88 263.13 L219.56 264.34 L227.23 265.82 L234.88 267.56 L242.47 269.6 L250.03 271.93 L257.53 274.5 L264.98 277.36 L272.32 280.5 L279.57 283.88 L286.68 287.55 L293.71 291.44 L300.57 295.59 L307.3 299.96 L313.85 304.58 L320.26 309.4 L326.45 314.44 L332.47 319.7 L338.27 325.13 L343.87 330.76 L349.25 336.56 L354.4 342.52 L359.3 348.63 L363.95 354.87 L368.37 361.26 L372.52 367.76 L376.38 374.34 L379.99 381.03 L383.33 387.78 L386.38 394.61 L389.15 401.5 L391.64 408.39 L393.83 415.34 L395.73 422.28 L397.33 429.23 L398.64 436.14 L399.68 443.03 L400.41 449.89 L400.86 456.67 L401.03 463.39 L400.89 470 L400.47 476.52 L399.79 482.94 L398.81 489.24 L397.61 495.37 L396.1 501.39 L394.36 507.22 L392.34 512.87 L390.13 518.36 L387.64 523.63 L384.95 528.7 L382.04 533.54 L378.9 538.16 L375.57 542.56 L372.07 546.68 L368.37 550.57 L364.54 554.18 L360.53 557.54 L356.36 560.59 L352.1 563.39 L347.68 565.89 L343.17 568.07 L338.58 569.97 L333.9 571.57 L329.14 572.86 L324.32 573.84 L319.48 574.48 L314.6 574.85 L309.73 574.88 L304.83 574.6 L299.96 574.01 L295.11 573.11 L290.3 571.88 L285.54 570.34 L280.86 568.52 L276.24 566.36 L271.7 563.93 L267.31 561.21 L262.99 558.18 L258.82 554.85 L254.82 551.27 L250.92 547.43 L247.23 543.31 L243.7 538.92 L240.34 534.33 L237.2 529.45 L234.23 524.38 L231.52 519.06 L229 513.57 L226.73 507.86 L224.71 501.98 L222.92 495.9 L221.38 489.69 L220.12 483.3 L219.11 476.8 L218.35 470.17 L217.91 463.42 L217.74 456.59 L217.82 449.64 L218.21 442.64 L218.91 435.58 L219.87 428.5 L221.13 421.36 L222.67 414.22 L224.51 407.07 L226.61 399.93 L229.02 392.82 L231.74 385.73 L234.71 378.71 L237.96 371.76 L241.49 364.87 L245.29 358.09 L249.35 351.4 L253.67 344.85 L258.23 338.41 L263.05 332.11 L268.09 325.97 L273.35 320.01 L278.84 314.21 L284.56 308.58 L290.46 303.18 L296.57 297.94 L302.84 292.96 L309.28 288.17 L315.89 283.63 L322.64 279.32 L329.5 275.26 L336.5 271.45 L343.64 267.89 L350.84 264.62 L358.15 261.62 L365.52 258.88 L372.94 256.41 L380.39 254.2 L387.89 252.32 L395.4 250.7 L402.93 249.35 L410.41 248.32 L417.88 247.53 L425.33 247.06 L432.73 246.86 L440.04 246.97 L447.29 247.34 L454.43 247.98 L461.46 248.88 L468.38 250.08 L475.15 251.51 L481.79 253.22 L488.29 255.18 L494.59 257.36 L500.72 259.8 L506.66 262.46 L512.4 265.34 L517.91 268.43 L523.21 271.73 L528.28 275.23 L533.09 278.9 L537.66 282.74 L541.97 286.74 L546 290.91 L549.78 295.2 L553.26 299.62 L556.45 304.16 L559.36 308.78 L561.97 313.51 L564.26 318.33 L566.28 323.2 L567.96 328.1 L569.36 333.06 L570.42 338.04 L571.18 343.03 L571.63 348.01 L571.74 352.97 L571.54 357.9 L571.07 362.8 L570.25 367.62 L569.13 372.38 L567.71 377.05 L566 381.65 L563.98 386.1 L561.69 390.47 L559.11 394.67 L556.22 398.73 L553.09 402.65 L549.7 406.37 L546.03 409.93 L542.11 413.32 L537.97 416.48 L533.6 419.42 L529 422.17 L524.19 424.66 L519.2 426.93 L513.99 428.95 L508.65 430.71 L503.1 432.22 L497.42 433.45 L491.59 434.43 L485.63 435.11 L479.58 435.53 L473.39 435.64 L467.14 435.47 L460.79 435.02 L454.4 434.27 L447.96 433.2 L441.46 431.86 L434.97 430.21 L428.47 428.27 L421.97 426.03 L415.48 423.48 L409.03 420.66 L402.62 417.55 L396.29 414.16 L390.02 410.46 L383.83 406.51 L377.75 402.29 L371.79 397.8 L365.96 393.04 L360.25 388.03 L354.68 382.79 L349.3 377.31 L344.06 371.59 L339 365.66 L334.15 359.49 L329.5 353.17 L325.05 346.64 L320.82 339.92 L316.82 333.03 L313.04 326 L309.51 318.83 L306.23 311.52 L303.21 304.1 L300.43 296.57 L297.94 288.95 L295.7 281.25 L293.74 273.49 L292.03 265.65 L290.63 257.81 L289.51 249.91 L288.64 242.02 L288.08 234.12 L287.8 226.25 L287.8 218.41 L288.06 210.6 L288.62 202.87 L289.46 195.19 L290.55 187.61 L291.92 180.1 L293.55 172.73 L295.42 165.48 L297.58 158.37 L299.96 151.4 L302.59 144.59 L305.45 137.98 L308.53 131.51 L311.83 125.27 L315.36 119.25 L319.06 113.42 L322.98 107.82 L327.04 102.44 L331.29 97.35 L335.69 92.47 L340.26 87.88 L344.96 83.54 L349.75 79.48 L354.68 75.7 L359.72 72.2 L364.82 69.01 L370 66.12 L375.23 63.52 L380.53 61.22 L385.85 59.23 L391.2 57.53 L396.54 56.15 L401.87 55.09 L407.19 54.33 L412.48 53.89 L417.72 53.77 L422.9 53.94 L427.99 54.42 L433.01 55.17 L437.91 56.24 L442.72 57.61 L447.37 59.26 L451.91 61.19 L456.31 63.41 L460.51 65.9 L464.57 68.64 L468.43 71.64 L472.1 74.89 L475.54 78.36 L478.79 82.09 L481.79 86.01 L484.59 90.15 L487.11 94.49 L489.41 99.03 L491.42 103.73 L493.19 108.61 L494.67 113.62 L495.88 118.77 L496.8 124.06 L497.44 129.47 L497.81 134.99 L497.84 140.59 L497.58 146.27 L497.05 152.01 L496.18 157.81 L495.04 163.63 L493.58 169.46 L491.79 175.31 L489.74 181.16 L487.36 186.99 L484.67 192.81 L481.71 198.55 L478.46 204.24 L474.9 209.87 L471.06 215.41 L466.95 220.85 L462.55 226.19 L457.9 231.38 L452.97 236.47 L447.79 241.4 L442.36 246.16 L436.7 250.75 L430.82 255.18 L424.72 259.41 L418.42 263.47 L411.89 267.28 L405.2 270.89 L398.34 274.28 L391.28 277.44 L384.08 280.36 L376.75 283.04 L369.3 285.45 L361.71 287.61 L354.03 289.51 L346.25 291.14 L338.41 292.51 L330.48 293.6 L322.53 294.41 L314.55 294.95 L306.51 295.2 L298.5 295.17 L290.49 294.86 L282.48 294.27 L274.53 293.41 L266.6 292.28 L258.76 290.86 L250.98 289.18 L243.28 287.24 L235.72 285.03 L228.24 282.54 L220.87 279.82 L213.68 276.85 L206.62 273.66 L199.76 270.22 L193.04 266.55 L186.51 262.66 L180.18 258.57 L174.05 254.28 L168.17 249.83 L162.49 245.15 L157.05 240.34 L151.87 235.35 L146.92 230.23 L142.24 224.99 L137.84 219.59 L133.7 214.1 L129.83 208.52 L126.25 202.84 L122.97 197.1 L119.97 191.3 L117.29 185.45 L114.88 179.54 L112.81 173.66 L111.01 167.75 L109.5 161.84 L108.33 155.96 L107.46 150.14 L106.87 144.34 L106.59 138.6 L106.62 132.97 L106.93 127.4 L107.54 121.94 L108.44 116.59 L109.61 111.38 L111.07 106.31 L112.81 101.38 L114.79 96.62 L117.03 92.05 L119.55 87.66 L122.3 83.46 L125.27 79.48 L128.49 75.73 L131.9 72.17 L135.55 68.9 L139.35 65.84 L143.36 63.04 L147.56 60.52 L151.9 58.25 L156.41 56.27 L161.03 54.56 L165.79 53.16 L170.66 52.04 L175.65 51.22 L180.72 50.69 L185.84 50.47 L191.05 50.55 L196.29 50.97 L201.58 51.67 L206.87 52.68 L212.16 54.03 L217.49 55.65 L222.75 57.61 L228.02 59.85 L233.22 62.43 L238.35 65.28 L243.42 68.45 L248.4 71.89 L253.27 75.62 L258.06 79.65 L262.71 83.93 L267.22 88.5 L271.59 93.31 L275.79 98.41 L279.82 103.73 L283.69 109.28 L287.36 115.07 L290.83 121.07 L294.11 127.28 L297.13 133.7 L299.96 140.31 L302.53 147.06 L304.89 154 L306.99 161.09 L308.84 168.31 L310.4 175.65 L311.75 183.12 L312.78 190.66 L313.57 198.3 L314.07 206.03 L314.3 213.82 L314.27 221.63 L313.93 229.47 L313.32 237.34 L312.42 245.24 L311.24 253.08 L309.79 260.92 L308.05 268.73 L306.03 276.49 L303.77 284.16 L301.22 291.78 L298.39 299.29 L295.31 306.68 L291.98 313.99 L288.39 321.16 L284.58 328.16 L280.52 335.02 L276.24 341.71 L271.76 348.24 L267.05 354.57 L262.12 360.7 L257.03 366.64 L251.76 372.35 L246.3 377.81 L240.7 383.07 L234.93 388.06 L229.02 392.82 L223 397.3 L216.87 401.53 L210.65 405.48 L204.32 409.17 L197.94 412.56 L191.47 415.67 L184.97 418.5 L178.45 421.02 L171.89 423.26 L165.31 425.22 L158.76 426.87 L152.24 428.22 L145.71 429.28 L139.27 430.04 L132.88 430.49 L126.56 430.68 L120.34 430.57 L114.21 430.15 L108.19 429.48 L102.3 428.53 L96.56 427.29 L90.96 425.78 L85.53 424.04 L80.29 422.03 L75.22 419.76 L70.35 417.27 L65.7 414.55 L61.28 411.61 L57.08 408.45 L53.1 405.11 L49.38 401.56 L45.93 397.83 L42.74 393.94 L39.8 389.88 L37.17 385.68 L34.79 381.37 L32.71 376.91 L30.95 372.35 L29.47 367.67 L28.29 362.94 L27.42 358.12 L26.86 353.25 L26.64 348.32 L26.69 343.39 L27.09 338.41 L27.79 333.45 L28.79 328.49 L30.11 323.57 L31.76 318.66 L33.69 313.82 L35.93 309.03 L38.48 304.33 L41.34 299.71 L44.48 295.2 L47.92 290.8 L51.62 286.52 L55.62 282.4 L59.88 278.39 L64.39 274.59 L69.15 270.95 L74.16 267.47 L79.4 264.2 L84.86 261.14 L90.54 258.26 L96.45 255.63 L102.53 253.22 L108.77 251.06 L115.21 249.13 L121.8 247.45 L128.54 246.05 L135.41 244.9 L142.41 244.01 L149.49 243.39 L156.69 243.05 L163.97 243 L171.31 243.22 L178.7 243.73 L186.12 244.51 L193.6 245.6 L201.08 246.97 L208.55 248.63 L216 250.56 L223.42 252.77 L230.82 255.26 L238.12 258.04 L245.38 261.09 L252.57 264.42 L259.63 268.01 L266.6 271.84 L273.47 275.96 L280.19 280.3 L286.74 284.86 L293.15 289.68 L299.4 294.72 L305.47 299.99 L311.33 305.45 L317.01 311.1 L322.47 316.93 L327.71 322.95 L332.75 329.14 L337.51 335.47 L342.08 341.96 L346.36 348.57 L350.39 355.29 L354.15 362.13 L357.65 369.04 L360.9 376.05 L363.84 383.13 L366.52 390.24 L368.9 397.41 L371 404.58 L372.82 411.78 L374.34 418.98 L375.57 426.17 L376.52 433.31 L377.19 440.43 L377.56 447.48 L377.64 454.46 L377.45 461.35 L376.97 468.15 L376.21 474.84 L375.21 481.4 L373.92 487.84 L372.35 494.11 L370.56 500.24 L368.51 506.18 L366.22 511.95 L363.7 517.49 L360.95 522.87 L358.01 528 L354.85 532.92 L351.49 537.6 L347.93 542.03 L344.2 546.2 L340.34 550.12 L336.31 553.76 L332.11 557.12 L327.82 560.2 L323.4 563 L318.86 565.49 L314.24 567.71 L309.54 569.61 L304.77 571.18 L299.96 572.47 L295.11 573.45 L290.21 574.09 L285.31 574.43 L280.44 574.46 L275.54 574.18 L270.69 573.56 L265.88 572.66 L261.14 571.43 L256.44 569.89 L251.85 568.04 L247.34 565.91 L242.94 563.48 L238.66 560.76 L234.48 557.76 L230.48 554.46 L226.64 550.9 L222.95 547.1 L219.45 543.01 L216.11 538.69 L213 534.13 L210.09 529.34 L207.38 524.33 L204.91 519.12 L202.67 513.69 L200.68 508.09 L198.95 502.32 L197.46 496.38 L196.23 490.27 L195.28 484.06 L194.61 477.7 L194.19 471.23 L194.07 464.65 L194.24 457.99 L194.69 451.26 L195.45 444.49 L196.48 437.63 L197.8 430.77 L199.42 423.88 L201.33 416.99 L203.54 410.1 L206.03 403.24 L208.8 396.43 L211.88 389.66 L215.22 382.93 L218.86 376.3 L222.75 369.77 L226.92 363.3 L231.32 356.97 L236 350.79 L240.93 344.74 L246.11 338.8 L251.48 333.06 L257.11 327.49 L262.94 322.08 L268.99 316.9 L275.2 311.89 L281.62 307.1 L288.2 302.53 L294.95 298.19 L301.86 294.11 L308.89 290.24 L316.06 286.63 L323.31 283.3 L330.71 280.22 L338.16 277.39 L345.69 274.84 L353.28 272.57 L360.92 270.55 L368.62 268.85 L376.3 267.42 L384 266.27 L391.7 265.4 L399.37 264.81 L407.02 264.5 L414.61 264.48 L422.11 264.73 L429.56 265.29 L436.93 266.07 L444.18 267.17 L451.29 268.51 L458.32 270.11 L465.18 271.98 L471.88 274.08 L478.43 276.43 L484.79 279.04 L490.95 281.84 L496.94 284.86 L502.68 288.11 L508.23 291.56 L513.55 295.2 L518.61 299.01 L523.43 303.01 L528 307.16 L532.28 311.44 L536.31 315.86 L540.07 320.43 L543.51 325.11 L546.68 329.87 L549.56 334.74 L552.14 339.67 L554.4 344.65 L556.36 349.69 L558.02 354.79 L559.36 359.89 L560.4 364.98 L561.13 370.08 L561.52 375.18 L561.63 380.22 L561.41 385.23 L560.87 390.16 L560.06 395.03 L558.91 399.82 L557.48 404.5 L555.75 409.09 L553.73 413.54 L551.44 417.86 L548.86 422.03 L546 426.03 L542.89 429.87 L539.53 433.51 L535.89 436.98 L532.06 440.23 L527.97 443.26 L523.66 446.08 L519.15 448.66 L514.41 451.01 L509.51 453.11 L504.44 454.96 L499.18 456.53 L493.78 457.85 L488.26 458.88 L482.57 459.64 L476.8 460.09 L470.9 460.28 L464.93 460.17 L458.88 459.75 L452.75 459.05 L446.59 458.04 L440.4 456.75 L434.15 455.13 L427.94 453.22 L421.72 451.04 L415.5 448.55 L409.34 445.75 L403.21 442.64 L397.13 439.28 L391.14 435.61 L385.23 431.66 L379.43 427.46 L373.72 422.95 L368.15 418.22 L362.72 413.21 L357.42 407.94 L352.27 402.45 L347.31 396.74 L342.52 390.78 L337.9 384.61 L333.51 378.26 L329.33 371.7 L325.36 364.96 L321.61 358.04 L318.08 350.98 L314.8 343.76 L311.78 336.42 L309 328.94 L306.48 321.35 L304.21 313.65 L302.23 305.89 L300.52 298.05 L299.06 290.16 L297.91 282.23 L297.02 274.28 L296.4 266.3 L296.09 258.32 L296.04 250.33 L296.26 242.38 L296.77 234.48 L297.58 226.64 L298.61 218.86 L299.96 211.16 L301.55 203.57 L303.43 196.06 L305.53 188.67 L307.91 181.44 L310.54 174.33 L313.4 167.41 L316.48 160.64 L319.78 154.06 L323.31 147.64 L327.07 141.45 L331.01 135.49 L335.13 129.72 L339.44 124.2 L343.9 118.91 L348.55 113.87 L353.31 109.11 L358.23 104.6 L363.28 100.37 L368.4 96.4 L373.64 92.73 L378.99 89.34 L384.36 86.26 L389.82 83.46 L395.34 80.97 L400.89 78.78 L406.43 76.9 L412 75.31 L417.55 74.05 L423.09 73.07 L428.58 72.42 L434.01 72.09 L439.42 72.03 L444.71 72.28 L449.95 72.84 L455.05 73.68 L460.06 74.83 L464.93 76.26 L469.66 77.97 L474.26 79.96 L478.68 82.2 L482.91 84.72 L486.97 87.49 L490.83 90.51 L494.48 93.76 L497.92 97.24 L501.14 100.93 L504.11 104.82 L506.83 108.94 L509.29 113.23 L511.5 117.68 L513.46 122.33 L515.11 127.09 L516.51 132.02 L517.61 137.06 L518.42 142.24 L518.95 147.5 L519.15 152.85 L519.06 158.28 L518.7 163.77 L518 169.32 L516.99 174.89 L515.67 180.49 L514.08 186.09 L512.15 191.69 L509.93 197.29 L507.39 202.84 L504.58 208.36 L501.45 213.79 L498.03 219.17 L494.34 224.46 L490.33 229.64 L486.07 234.74 L481.54 239.69 L476.72 244.51 L471.65 249.19 L466.36 253.72 L460.81 258.06 L455.02 262.24 L449.02 266.21 L442.81 270.02 L436.37 273.58 L429.76 276.97 L422.98 280.1 L416.01 282.99 L408.89 285.68 L401.64 288.08 L394.25 290.27 L386.72 292.17 L379.1 293.83 L371.37 295.2 L363.58 296.32 L355.71 297.16 L347.79 297.72 L339.84 298 L331.85 298 L323.87 297.72 L315.89 297.16 L307.91 296.32 L299.96 295.2 L292.06 293.8 L284.22 292.14 L276.43 290.18 L268.76 288 L261.17 285.54 L253.67 282.79 L246.33 279.82 L239.1 276.6 L232.02 273.13 L225.13 269.43 L218.38 265.51 L211.83 261.37 L205.44 257.03 L199.31 252.46 L193.35 247.73 L187.63 242.83 L182.14 237.73 L176.88 232.5 L171.89 227.09 L167.16 221.57 L162.68 215.95 L158.45 210.18 L154.53 204.32 L150.86 198.39 L147.5 192.37 L144.42 186.29 L141.65 180.18 L139.16 174.02 L136.97 167.86 L135.07 161.67 L133.5 155.51 L132.18 149.38 L131.2 143.25 L130.53 137.2 L130.14 131.2 L130.03 125.27 L130.22 119.44 L130.73 113.7 L131.48 108.1 L132.55 102.61 L133.87 97.26 L135.49 92.08 L137.34 87.04 L139.47 82.2 L141.82 77.55 L144.42 73.1 L147.28 68.84 L150.33 64.81 L153.61 61 L157.11 57.44 L160.78 54.14 L164.64 51.06 L168.67 48.28 L172.85 45.74 L177.19 43.5 L181.67 41.54 L186.29 39.85 L190.99 38.48 L195.81 37.42 L200.71 36.63 L205.67 36.16 L210.71 35.99 L215.78 36.16 L220.9 36.61 L226.03 37.39 L231.18 38.45 L236.3 39.85 L241.4 41.56 L246.47 43.58 L251.51 45.9 L256.47 48.54 L261.34 51.45 L266.16 54.67 L270.86 58.17 L275.45 61.98 L279.91 66.04 L284.25 70.41 L288.42 75 L292.42 79.87 L296.29 84.97 L299.96 90.35 L303.43 95.92 L306.71 101.72 L309.79 107.74 L312.64 113.95 L315.25 120.37 L317.63 126.95 L319.78 133.7 L321.69 140.61 L323.31 147.64 L324.71 154.81 L325.83 162.12 L326.67 169.51 L327.26 176.99 L327.54 184.55 L327.57 192.17 L327.29 199.84 L326.76 207.54 L325.92 215.27 L324.83 223 L323.43 230.73 L321.75 238.43 L319.78 246.11 L317.54 253.75 L315.05 261.31 L312.28 268.79 L309.23 276.21 L305.92 283.49 L302.37 290.69 L298.53 297.75 L294.5 304.66 L290.18 311.44 L285.68 318.05 L280.94 324.49 L275.99 330.73 L270.83 336.78 L265.48 342.64 L259.94 348.29 L254.26 353.7 L248.37 358.88 L242.38 363.84 L236.22 368.51 L229.95 372.96 L223.56 377.14 L217.07 381.06 L210.48 384.67 L203.82 388.03 L197.1 391.11 L190.32 393.91 L183.52 396.43 L176.68 398.64 L169.85 400.55 L163.02 402.2 L156.18 403.52 L149.41 404.58 L142.69 405.31 L135.99 405.79 L129.41 405.95 L122.89 405.84 L116.47 405.45 L110.17 404.78 L104.01 403.83 L97.96 402.59 L92.08 401.11 L86.37 399.37 L80.83 397.38 L75.48 395.14 L70.3 392.68 L65.37 389.99 L60.63 387.08 L56.13 383.94 L51.87 380.64 L47.84 377.11 L44.08 373.44 L40.58 369.58 L37.36 365.57 L34.42 361.4 L31.73 357.11 L29.38 352.72 L27.31 348.21 L25.52 343.59 L24.06 338.88 L22.88 334.15 L22.02 329.33 L21.48 324.46 L21.26 319.59 L21.34 314.69 L21.74 309.79 L22.46 304.89 L23.47 300.01 L24.82 295.2 L26.47 290.44 L28.43 285.7 L30.7 281.08 L33.25 276.55 L36.1 272.12 L39.27 267.81 L42.68 263.61 L46.38 259.55 L50.36 255.66 L54.59 251.93 L59.07 248.37 L63.8 245.01 L68.78 241.82 L73.99 238.85 L79.4 236.11 L85.03 233.56 L90.82 231.26 L96.82 229.19 L103 227.37 L109.33 225.8 L115.8 224.51 L122.44 223.48 L129.16 222.69 L136.02 222.22 L142.97 221.99 L150 222.05 L157.11 222.41 L164.28 223.06 L171.47 223.98 L178.7 225.19 L185.95 226.7 L193.18 228.49 L200.43 230.56 L207.63 232.92 L214.8 235.58 L221.91 238.49 L228.97 241.71 L235.94 245.18 L242.8 248.91 L249.58 252.91 L256.24 257.2 L262.74 261.7 L269.13 266.44 L275.34 271.45 L281.42 276.66 L287.3 282.09 L292.98 287.72 L298.5 293.57 L303.79 299.59 L308.86 305.81 L313.71 312.2 L318.33 318.72 L322.73 325.41 L326.84 332.22 L330.73 339.14 L334.35 346.19 L337.71 353.33 L340.79 360.53 L343.59 367.84 L346.14 375.18 L348.38 382.54 L350.34 389.96 L352.05 397.38 L353.42 404.83 L354.54 412.25 L355.35 419.65 L355.91 426.99 L356.16 434.27 L356.13 441.52 L355.8 448.66 L355.24 455.69 L354.37 462.63 L353.25 469.47 L351.85 476.16 L350.2 482.69 L348.29 489.07 L346.16 495.29 L343.78 501.31 L341.15 507.16 L338.32 512.79 L335.27 518.19 L332.02 523.4 L328.58 528.36 L324.97 533.06 L321.16 537.52 L317.21 541.72 L313.09 545.64 L308.84 549.31 L304.44 552.67 L299.96 555.78 L295.37 558.55 L290.66 561.04 L285.9 563.25 L281.08 565.13 L276.21 566.7 L271.28 567.99 L266.35 568.94 L261.4 569.58 L256.44 569.89 L251.51 569.89 L246.61 569.61 L241.77 568.99 L236.95 568.07 L232.24 566.84 L227.6 565.3 L223.03 563.45 L218.61 561.32 L214.27 558.91 L210.09 556.2 L206.06 553.2 L202.17 549.95 L198.44 546.42 L194.91 542.64 L191.58 538.64 L188.45 534.35 L185.5 529.87 L182.79 525.17 L180.3 520.24 L178.06 515.11 L176.07 509.79 L174.3 504.33 L172.82 498.68 L171.59 492.88 L170.63 486.91 L169.96 480.87 L169.57 474.68 L169.46 468.38 L169.63 462.02 L170.1 455.55 L170.86 449.05 L171.92 442.5 L173.27 435.89 L174.92 429.28 L176.88 422.67 L179.09 416.06 L181.64 409.45 L184.47 402.9 L187.58 396.4 L190.97 389.94 L194.63 383.58 L198.58 377.28 L202.81 371.09 L207.29 365.04 L212.02 359.07 L217.04 353.28 L222.25 347.59 L227.74 342.1 L233.42 336.78 L239.33 331.63 L245.46 326.65 L251.79 321.91 L258.29 317.35 L264.98 313.04 L271.81 308.92 L278.81 305.05 L285.98 301.41 L293.24 298.05 L300.63 294.92 L308.14 292.06 L315.72 289.46 L323.37 287.13 L331.1 285.09 L338.88 283.3 L346.7 281.78 L354.54 280.58 L362.38 279.63 L370.25 278.98 L378.06 278.59 L385.85 278.51 L393.6 278.67 L401.31 279.15 L408.92 279.88 L416.43 280.89 L423.88 282.18 L431.19 283.72 L438.38 285.51 L445.44 287.58 L452.33 289.88 L459.05 292.42 L465.63 295.2 L471.99 298.19 L478.18 301.41 L484.14 304.86 L489.88 308.47 L495.43 312.31 L500.69 316.28 L505.73 320.46 L510.52 324.8 L515.06 329.25 L519.29 333.87 L523.26 338.6 L526.96 343.45 L530.38 348.41 L533.49 353.42 L536.31 358.51 L538.81 363.7 L541.02 368.9 L542.92 374.14 L544.52 379.41 L545.81 384.67 L546.79 389.94 L547.43 395.17 L547.8 400.41 L547.82 405.56 L547.57 410.66 L546.98 415.7 L546.11 420.63 L544.97 425.47 L543.48 430.18 L541.75 434.8 L539.7 439.25 L537.41 443.56 L534.8 447.71 L531.97 451.68 L528.86 455.49 L525.53 459.08 L521.95 462.47 L518.11 465.63 L514.08 468.6 L509.85 471.32 L505.4 473.78 L500.78 475.99 L495.96 477.98 L490.97 479.66 L485.85 481.09 L480.59 482.24 L475.21 483.11 L469.69 483.69 L464.06 483.97 L458.38 483.97 L452.58 483.67 L446.73 483.08 L440.85 482.15 L434.91 480.95 L428.97 479.44 L423.01 477.62 L417.04 475.52 L411.11 473.08 L405.23 470.36 L399.34 467.37 L393.55 464.06 L387.84 460.45 L382.18 456.59 L376.63 452.41 L371.2 447.99 L365.91 443.31 L360.73 438.35 L355.69 433.15 L350.81 427.69 L346.11 422 L341.57 416.09 L337.23 409.96 L333.11 403.6 L329.17 397.08 L325.47 390.36 L321.97 383.47 L318.69 376.41 L315.7 369.18 L312.92 361.85 L310.4 354.37 L308.14 346.78 L306.12 339.08 L304.38 331.29 L302.93 323.45 L301.75 315.53 L300.83 307.58 L300.18 299.57 L299.82 291.56 L299.76 283.52 L299.96 275.51 L300.43 267.53 L301.19 259.58 L302.23 251.68 L303.54 243.81 L305.14 236.05 L306.99 228.38 L309.09 220.82 L311.47 213.37 L314.07 206.03 L316.96 198.86 L320.07 191.83 L323.4 184.94 L326.95 178.28 L330.73 171.78 L334.71 165.48 L338.91 159.38 L343.28 153.52 L347.82 147.87 L352.55 142.49 L357.42 137.31 L362.44 132.41 L367.59 127.79 L372.88 123.42 L378.26 119.3 L383.75 115.49 L389.32 111.97 L394.98 108.72 L400.66 105.78 L406.43 103.14 L412.2 100.79 L418 98.75 L423.79 97.01 L429.59 95.58 L435.36 94.44 L441.1 93.62 L446.78 93.09 L452.41 92.87 L457.96 92.95 L463.42 93.31 L468.8 93.99 L474.03 94.94 L479.13 96.2 L484.11 97.71 L488.93 99.5 L493.58 101.58 L498.06 103.9 L502.34 106.45 L506.43 109.28 L510.33 112.33 L513.99 115.61 L517.44 119.11 L520.63 122.8 L523.57 126.7 L526.26 130.78 L528.7 135.04 L530.85 139.44 L532.76 144.03 L534.35 148.74 L535.67 153.55 L536.71 158.51 L537.43 163.58 L537.85 168.7 L537.97 173.91 L537.8 179.2 L537.29 184.52 L536.51 189.87 L535.39 195.25 L533.99 200.66 L532.25 206.03 L530.21 211.38 L527.88 216.73 L525.22 221.99 L522.28 227.23 L519.06 232.38 L515.53 237.42 L511.7 242.41 L507.61 247.25 L503.24 251.99 L498.59 256.58 L493.69 261.03 L488.54 265.32 L483.13 269.46 L477.5 273.41 L471.65 277.16 L465.57 280.72 L459.3 284.05 L452.83 287.19 L446.17 290.1 L439.33 292.76 L432.33 295.2 L425.19 297.38 L417.91 299.31 L410.49 300.99 L402.99 302.39 L395.37 303.54 L387.67 304.41 L379.91 305.03 L372.07 305.33 L364.2 305.36 L356.3 305.14 L348.41 304.61 L340.48 303.82 L332.58 302.73 L324.69 301.36 L316.84 299.73 L309.06 297.8 L301.36 295.62 L293.71 293.18 L286.18 290.44 L278.73 287.47 L271.42 284.25 L264.22 280.75 L257.17 277.05 L250.31 273.07 L243.59 268.9 L237.03 264.5 L230.68 259.91 L224.54 255.1 L218.58 250.08 L212.86 244.93 L207.38 239.58 L202.11 234.06 L197.1 228.41 L192.37 222.61 L187.86 216.7 L183.63 210.68 L179.68 204.55 L175.98 198.33 L172.59 192.06 L169.49 185.7 L166.66 179.32 L164.11 172.9 L161.9 166.43 L159.94 159.99 L158.31 153.55 L156.97 147.11 L155.9 140.73 L155.18 134.4 L154.7 128.1 L154.56 121.91 L154.67 115.8 L155.09 109.78 L155.79 103.87 L156.77 98.1 L158 92.47 L159.54 87.01 L161.31 81.69 L163.35 76.57 L165.62 71.61 L168.14 66.88 L170.89 62.34 L173.86 58.03 L177.02 53.94 L180.41 50.08 L183.99 46.49 L187.75 43.13 L191.67 40.05 L195.75 37.25 L199.98 34.73 L204.32 32.49 L208.83 30.53 L213.43 28.85 L218.1 27.51 L222.89 26.44 L227.74 25.68 L232.66 25.26 L237.62 25.12 L242.61 25.32 L247.59 25.82 L252.6 26.64 L257.59 27.76 L262.57 29.19 L267.5 30.95 L272.4 32.99 L277.22 35.35 L281.98 38.01 L286.63 40.98 L291.19 44.22 L295.65 47.78 L299.96 51.59 L304.13 55.68 L308.16 60.05 L312.03 64.67 L315.72 69.54 L319.25 74.64 L322.59 79.98 L325.69 85.56 L328.61 91.35 L331.29 97.35 L333.76 103.51 L335.97 109.87 L337.96 116.42 L339.7 123.08 L341.15 129.92 L342.38 136.89 L343.31 143.97 L344.01 151.17 L344.4 158.45 L344.51 165.79 L344.34 173.24 L343.9 180.72 L343.17 188.22 L342.16 195.78 L340.87 203.32 L339.28 210.88 L337.4 218.41 L335.24 225.91 L332.83 233.39 L330.12 240.79 L327.15 248.12 L323.9 255.38 L320.37 262.52 L316.62 269.55 L312.59 276.46 L308.33 283.24 L303.82 289.88 L299.09 296.37 L294.13 302.67 L288.95 308.81 L283.58 314.72 L278 320.46 L272.23 325.97 L266.3 331.29 L260.22 336.36 L253.95 341.21 L247.56 345.8 L241.04 350.14 L234.4 354.2 L227.68 358.04 L220.85 361.6 L213.93 364.87 L206.96 367.87 L199.93 370.58 L192.87 372.99 L185.78 375.15 L178.67 377 L171.59 378.57 L164.5 379.85 L157.44 380.83 L150.44 381.51 L143.5 381.93 L136.64 382.04 L129.83 381.87 L123.14 381.42 L116.56 380.72 L110.12 379.71 L103.79 378.45 L97.63 376.94 L91.61 375.18 L85.78 373.16 L80.13 370.89 L74.69 368.4 L69.43 365.68 L64.41 362.74 L59.63 359.61 L55.06 356.25 L50.75 352.75 L46.69 349.02 L42.88 345.16 L39.35 341.15 L36.1 336.98 L33.13 332.69 L30.47 328.3 L28.09 323.76 L26.02 319.17 L24.23 314.46 L22.77 309.73 L21.6 304.91 L20.76 300.07 L20.22 295.2 L20 290.32 L20.11 285.42 L20.5 280.55 L21.23 275.71 L22.27 270.89 L23.61 266.16 L25.29 261.48 L27.23 256.86 L29.49 252.35 L32.04 247.95 L34.9 243.67 L38.03 239.52 L41.42 235.52 L45.12 231.66 L49.04 227.96 L53.24 224.46 L57.69 221.13 L62.37 217.99 L67.27 215.08 L72.4 212.36 L77.74 209.9 L83.26 207.66 L89 205.64 L94.88 203.9 L100.93 202.39 L107.15 201.16 L113.48 200.18 L119.95 199.48 L126.53 199.06 L133.22 198.92 L140 199.09 L146.83 199.51 L153.72 200.24 L160.67 201.24 L167.64 202.56 L174.64 204.16 L181.64 206.03 L188.61 208.22 L195.59 210.68 L202.5 213.43 L209.39 216.48 L216.2 219.78 L222.95 223.37 L229.58 227.23 L236.14 231.38 L242.55 235.74 L248.85 240.39 L255.01 245.27 L261 250.39 L266.86 255.74 L272.51 261.31 L278 267.11 L283.3 273.1 L288.39 279.26 L293.26 285.65 L297.91 292.17 L302.34 298.87 L306.54 305.7 L310.46 312.7 L314.16 319.78 L317.6 327.01 L320.77 334.32 L323.68 341.71 L326.28 349.19 L328.66 356.72 L330.73 364.31 L332.53 371.9 L334.04 379.55 L335.27 387.16 L336.2 394.78 L336.87 402.4 L337.23 409.96 L337.34 417.46 L337.15 424.91 L336.7 432.28 L335.94 439.56 L334.94 446.73 L333.68 453.76 L332.13 460.7 L330.34 467.48 L328.3 474.09 L326 480.56 L323.48 486.83 L320.74 492.91 L317.77 498.79 L314.6 504.44 L311.22 509.91 L307.63 515.11 L303.88 520.07 L299.96 524.8 L295.87 529.26 L291.64 533.46 L287.27 537.38 L282.76 541.05 L278.14 544.38 L273.44 547.46 L268.65 550.23 L263.78 552.7 L258.82 554.85 L253.84 556.73 L248.82 558.27 L243.78 559.5 L238.71 560.43 L233.67 561.04 L228.66 561.35 L223.65 561.32 L218.69 560.99 L213.79 560.37 L208.97 559.42 L204.24 558.18 L199.59 556.64 L195.08 554.8 L190.66 552.67 L186.4 550.26 L182.28 547.54 L178.31 544.6 L174.53 541.35 L170.91 537.88 L167.5 534.16 L164.31 530.18 L161.28 525.98 L158.51 521.56 L155.96 516.93 L153.66 512.09 L151.59 507.08 L149.8 501.87 L148.26 496.52 L146.97 491 L145.96 485.35 L145.26 479.58 L144.81 473.67 L144.67 467.68 L144.81 461.57 L145.23 455.41 L145.96 449.19 L147 442.92 L148.32 436.59 L149.97 430.26 L151.87 423.93 L154.11 417.58 L156.63 411.27 L159.43 404.97 L162.54 398.76 L165.93 392.57 L169.6 386.46 L173.58 380.44 L177.8 374.53 L182.28 368.74 L187.05 363.05 L192.06 357.51 L197.32 352.1 L202.81 346.84 L208.55 341.77 L214.49 336.9 L220.65 332.19 L227.01 327.68 L233.56 323.37 L240.31 319.31 L247.2 315.44 L254.26 311.83 L261.48 308.44 L268.82 305.31 L276.27 302.45 L283.83 299.82 L291.5 297.47 L299.26 295.37 L307.07 293.55 L314.94 292 L322.84 290.74 L330.79 289.76 L338.74 289.06 L346.7 288.62 L354.62 288.48 L362.55 288.62 L370.42 289.04 L378.23 289.74 L385.96 290.69 L393.63 291.92 L401.19 293.43 L408.64 295.2 L415.98 297.21 L423.18 299.51 L430.21 302.03 L437.12 304.77 L443.82 307.77 L450.37 310.99 L456.7 314.44 L462.83 318.08 L468.77 321.94 L474.45 325.97 L479.94 330.17 L485.15 334.57 L490.11 339.11 L494.84 343.78 L499.26 348.6 L503.44 353.56 L507.33 358.6 L510.94 363.75 L514.25 368.99 L517.27 374.28 L519.99 379.66 L522.42 385.06 L524.52 390.52 L526.34 395.98 L527.86 401.47 L529.03 406.93 L529.93 412.37 L530.49 417.77 L530.77 423.15 L530.74 428.44 L530.38 433.65 L529.76 438.77 L528.81 443.82 L527.58 448.74 L526.06 453.53 L524.27 458.18 L522.2 462.66 L519.87 467 L517.27 471.18 L514.41 475.15 L511.31 478.93 L507.97 482.49 L504.39 485.85 L500.61 488.96 L496.63 491.87 L492.43 494.5 L488.03 496.88 L483.5 499.04 L478.76 500.89 L473.89 502.48 L468.88 503.8 L463.73 504.81 L458.49 505.56 L453.11 506.01 L447.68 506.15 L442.14 505.98 L436.56 505.54 L430.91 504.78 L425.25 503.72 L419.54 502.32 L413.85 500.64 L408.14 498.68 L402.45 496.38 L396.82 493.78 L391.22 490.89 L385.68 487.7 L380.19 484.23 L374.81 480.47 L369.52 476.41 L364.34 472.1 L359.3 467.51 L354.37 462.63 L349.58 457.54 L344.96 452.16 L340.51 446.59 L336.25 440.74 L332.16 434.69 L328.27 428.44 L324.6 421.97 L321.13 415.31 L317.91 408.47 L314.88 401.5 L312.14 394.33 L309.62 387.02 L307.35 379.6 L305.33 372.07 L303.6 364.4 L302.11 356.67 L300.88 348.83 L299.96 340.96 L299.29 333 L298.92 325.02 L298.81 317.04 L298.98 309.03 L299.45 301.02 L300.18 293.01 L301.19 285.06 L302.51 277.16 L304.05 269.29 L305.89 261.51 L308 253.84 L310.38 246.22 L312.98 238.74 L315.86 231.38 L319 224.18 L322.36 217.09 L325.95 210.18 L329.75 203.46 L333.82 196.9 L338.04 190.55 L342.5 184.41 L347.12 178.48 L351.93 172.76 L356.92 167.27 L362.04 162.04 L367.34 157.08 L372.74 152.35 L378.29 147.9 L383.94 143.69 L389.68 139.8 L395.51 136.16 L401.42 132.83 L407.38 129.78 L413.4 127.03 L419.45 124.57 L425.5 122.41 L431.58 120.54 L437.63 118.99 L443.65 117.73 L449.67 116.78 L455.61 116.14 L461.51 115.77 L467.31 115.72 L473.02 115.97 L478.65 116.5 L484.17 117.31 L489.55 118.41 L494.76 119.78 L499.85 121.43 L504.75 123.34 L509.51 125.52 L514.05 127.93 L518.39 130.59 L522.54 133.47 L526.46 136.58 L530.15 139.91 L533.6 143.47 L536.82 147.2 L539.76 151.12 L542.45 155.2 L544.85 159.43 L547.01 163.83 L548.86 168.37 L550.43 173.04 L551.69 177.8 L552.67 182.68 L553.34 187.63 L553.7 192.67 L553.76 197.77 L553.51 202.92 L552.95 208.08 L552.08 213.28 L550.88 218.49 L549.39 223.67 L547.57 228.86 L545.47 233.98 L543.06 239.08 L540.32 244.12 L537.29 249.07 L533.99 253.92 L530.38 258.71 L526.51 263.36 L522.34 267.89 L517.89 272.29 L513.21 276.55 L508.25 280.64 L503.04 284.56 L497.61 288.31 L491.93 291.84 L486.05 295.2" fill="none" stroke="hsl(24 26% 35%)" stroke-width="1.5" opacity="0.65" stroke-linecap="round" stroke-linejoin="round"/>
</svg>