<svg width="600" height="600" style="max-width:100%;height:auto" xmlns="http://www.w3.org/2000/svg" viewBox="0 0 600 600">
                                                <path d="M580 300.93 L578.59 298.33 L574.4 296 L567.49 294.18 L557.99 293.11 L546.06 293.02 L531.87 294.12 L515.71 296.54 L497.8 300.44 L478.46 305.93 L458.02 313.06 L436.77 321.82 L415.05 332.2 L393.24 344.15 L371.61 357.51 L350.49 372.17 L330.2 387.9 L310.99 404.51 L293.11 421.73 L276.77 439.25 L262.11 456.83 L249.26 474.11 L238.32 490.81 L229.31 506.59 L222.25 521.14 L217.07 534.16 L213.67 545.41 L211.94 554.6 L211.7 561.53 L212.75 566.04 L214.88 567.92 L217.84 567.16 L221.38 563.64 L225.23 557.36 L229.13 548.42 L232.81 536.85 L236.04 522.8 L238.57 506.48 L240.21 488.05 L240.75 467.83 L240.07 446.05 L238.06 423.05 L234.65 399.15 L229.78 374.7 L223.49 350.02 L215.84 325.5 L206.9 301.42 L196.83 278.16 L185.78 255.99 L173.99 235.21 L161.69 216.04 L149.09 198.74 L136.54 183.41 L124.28 170.23 L112.62 159.27 L101.86 150.57 L92.31 144.11 L84.22 139.83 L77.83 137.68 L73.42 137.48 L71.15 139.07 L71.2 142.25 L73.68 146.8 L78.71 152.45 L86.26 158.95 L96.37 166.01 L108.99 173.37 L123.98 180.74 L141.2 187.87 L160.48 194.48 L181.57 200.4 L204.21 205.37 L228.13 209.27 L252.96 211.96 L278.43 213.38 L304.14 213.42 L329.76 212.1 L354.93 209.48 L379.32 205.58 L402.58 200.58 L424.46 194.59 L444.63 187.8 L462.86 180.45 L478.95 172.76 L492.74 164.98 L504.1 157.43 L512.93 150.32 L519.23 143.98 L523.02 138.67 L524.34 134.63 L523.33 132.12 L520.08 131.36 L514.84 132.52 L507.78 135.75 L499.17 141.18 L489.26 148.87 L478.37 158.84 L466.74 171.08 L454.7 185.51 L442.53 202.03 L430.51 220.48 L418.92 240.68 L408.01 262.4 L397.97 285.35 L389 309.25 L381.27 333.77 L374.83 358.58 L369.83 383.35 L366.23 407.72 L364.05 431.34 L363.22 453.87 L363.67 475.03 L365.22 494.49 L367.73 511.97 L371 527.26 L374.79 540.17 L378.87 550.52 L382.99 558.23 L386.89 563.23 L390.28 565.47 L392.9 565.03 L394.51 561.98 L394.89 556.4 L393.82 548.51 L391.11 538.49 L386.65 526.56 L380.3 513 L372.01 498.12 L361.74 482.18 L349.55 465.5 L335.45 448.42 L319.58 431.25 L302.1 414.28 L283.15 397.81 L263.03 382.07 L241.96 367.35 L220.21 353.79 L198.13 341.61 L176.01 330.9 L154.2 321.8 L133.04 314.29 L112.87 308.42 L93.99 304.11 L76.71 301.31 L61.31 299.9 L48.04 299.67 L37.15 300.5 L28.79 302.16 L23.07 304.38 L20.13 306.94 L20 309.56 L22.67 312.03 L28.09 314.02 L36.16 315.32 L46.74 315.72 L59.65 314.98 L74.67 312.94 L91.53 309.43 L109.95 304.36 L129.63 297.66 L150.23 289.27 L171.46 279.23 L192.96 267.6 L214.41 254.44 L235.46 239.94 L255.83 224.25 L275.26 207.57 L293.47 190.18 L310.25 172.33 L325.41 154.33 L338.83 136.49 L350.4 119.1 L360.08 102.49 L367.84 86.98 L373.71 72.88 L377.79 60.48 L380.17 50.01 L381.02 41.72 L380.53 35.83 L378.89 32.49 L376.36 31.79 L373.17 33.81 L369.61 38.6 L365.89 46.14 L362.33 56.31 L359.17 69.04 L356.61 84.17 L354.91 101.46 L354.23 120.71 L354.75 141.65 L356.59 163.93 L359.82 187.28 L364.5 211.34 L370.64 235.77 L378.17 260.25 L387.05 284.39 L397.11 307.88 L408.23 330.43 L420.2 351.72 L432.78 371.49 L445.73 389.56 L458.78 405.7 L471.62 419.78 L484 431.68 L495.56 441.38 L506.05 448.85 L515.15 454.12 L522.64 457.28 L528.24 458.42 L531.74 457.75 L532.97 455.39 L531.78 451.63 L528.11 446.67 L521.83 440.8 L513 434.26 L501.61 427.35 L487.78 420.31 L471.62 413.45 L453.31 407.02 L433.07 401.22 L411.15 396.26 L387.81 392.34 L363.38 389.6 L338.18 388.13 L312.56 387.99 L286.88 389.22 L261.46 391.78 L236.67 395.63 L212.84 400.66 L190.29 406.71 L169.31 413.63 L150.12 421.21 L133 429.19 L118.07 437.35 L105.54 445.42 L95.45 453.08 L87.87 460.1 L82.81 466.18 L80.21 471.04 L80.01 474.47 L82.05 476.2 L86.17 476.06 L92.15 473.86 L99.8 469.49 L108.81 462.86 L118.94 453.91 L129.9 442.68 L141.38 429.19 L153.1 413.52 L164.76 395.84 L176.1 376.29 L186.86 355.11 L196.83 332.58 L205.8 308.93 L213.6 284.5 L220.12 259.64 L225.28 234.65 L229.04 209.9 L231.38 185.74 L232.34 162.49 L232.03 140.53 L230.55 120.08 L228.06 101.5 L224.76 85 L220.84 70.82 L216.58 59.09 L212.21 49.97 L207.97 43.54 L204.16 39.82 L201.05 38.81 L198.87 40.44 L197.86 44.61 L198.27 51.2 L200.24 59.99 L203.96 70.75 L209.57 83.26 L217.12 97.22 L226.67 112.35 L238.19 128.33 L251.66 144.85 L266.99 161.6 L284.03 178.27 L302.61 194.57 L322.49 210.24 L343.47 225.01 L365.24 238.68 L387.52 251.08 L409.96 262.04 L432.24 271.48 L454.03 279.32 L474.98 285.58 L494.78 290.24 L513.11 293.4 L529.68 295.15 L544.2 295.64 L556.46 295.04 L566.26 293.58 L573.45 291.47 L577.92 288.94 L579.6 286.27 L578.45 283.72 L574.53 281.54 L567.92 279.97 L558.75 279.28 L547.14 279.66 L533.35 281.29 L517.6 284.39 L500.16 289.01 L481.31 295.28 L461.4 303.24 L440.73 312.9 L419.64 324.2 L398.48 337.06 L377.55 351.39 L357.15 366.99 L337.58 383.64 L319.11 401.17 L301.98 419.24 L286.34 437.62 L272.4 455.98 L260.25 474 L249.94 491.39 L241.53 507.78 L234.98 522.91 L230.25 536.45 L227.23 548.15 L225.77 557.74 L225.7 565.03 L226.85 569.82 L228.95 572.02 L231.78 571.46 L235.1 568.16 L238.59 562.11 L242.02 553.35 L245.16 541.96 L247.72 528.11 L249.51 511.99 L250.29 493.79 L249.96 473.8 L248.3 452.28 L245.27 429.57 L240.79 405.99 L234.83 381.87 L227.43 357.57 L218.67 333.43 L208.62 309.78 L197.46 286.94 L185.36 265.22 L172.56 244.89 L159.27 226.15 L145.79 209.25 L132.39 194.35 L119.37 181.52 L107.02 170.88 L95.63 162.45 L85.54 156.2 L76.98 152.07 L70.21 149.96 L65.48 149.76 L62.97 151.24 L62.81 154.22 L65.19 158.46 L70.12 163.7 L77.63 169.71 L87.74 176.17 L100.38 182.82 L115.4 189.41 L132.68 195.67 L152 201.36 L173.14 206.25 L195.83 210.17 L219.74 212.95 L244.6 214.5 L270.02 214.72 L295.71 213.58 L321.26 211.09 L346.34 207.3 L370.64 202.28 L393.8 196.16 L415.54 189.12 L435.6 181.37 L453.71 173.1 L469.69 164.58 L483.37 156.04 L494.67 147.81 L503.47 140.15 L509.8 133.33 L513.63 127.64 L515.09 123.31 L514.26 120.62 L511.27 119.75 L506.34 120.87 L499.71 124.16 L491.59 129.72 L482.27 137.57 L472.03 147.79 L461.13 160.3 L449.92 175.05 L438.65 191.9 L427.58 210.71 L417 231.26 L407.16 253.32 L398.21 276.63 L390.37 300.86 L383.75 325.7 L378.49 350.8 L374.59 375.86 L372.12 400.48 L371 424.33 L371.22 447.06 L372.61 468.39 L375.08 488.01 L378.42 505.63 L382.41 521.07 L386.85 534.12 L391.49 544.63 L396.04 552.47 L400.27 557.65 L403.88 560.12 L406.62 559.89 L408.25 557.11 L408.55 551.89 L407.29 544.38 L404.31 534.79 L399.49 523.36 L392.72 510.38 L383.93 496.1 L373.13 480.86 L360.33 464.94 L345.6 448.69 L329.08 432.37 L310.93 416.3 L291.34 400.77 L270.54 386 L248.81 372.26 L226.44 359.7 L203.76 348.52 L181.08 338.79 L158.73 330.63 L137.07 324.04 L116.43 319.04 L97.13 315.54 L79.47 313.48 L63.71 312.7 L50.13 313.06 L38.92 314.36 L30.27 316.35 L24.3 318.84 L21.1 321.55 L20.69 324.2 L23.09 326.57 L28.23 328.39 L35.98 329.4 L46.23 329.38 L58.76 328.14 L73.35 325.52 L89.76 321.35 L107.69 315.54 L126.83 308.04 L146.87 298.8 L167.47 287.88 L188.29 275.33 L209.05 261.26 L229.38 245.83 L249.02 229.2 L267.67 211.65 L285.11 193.38 L301.13 174.69 L315.57 155.9 L328.25 137.3 L339.15 119.21 L348.18 101.95 L355.35 85.86 L360.73 71.24 L364.37 58.35 L366.43 47.46 L367.01 38.81 L366.38 32.57 L364.7 28.92 L362.21 27.98 L359.21 29.77 L355.91 34.35 L352.6 41.65 L349.53 51.65 L346.95 64.18 L345.09 79.09 L344.17 96.14 L344.35 115.15 L345.78 135.8 L348.61 157.79 L352.89 180.81 L358.63 204.52 L365.87 228.57 L374.5 252.63 L384.47 276.34 L395.63 299.38 L407.81 321.46 L420.81 342.29 L434.37 361.59 L448.24 379.2 L462.16 394.89" fill="none" stroke="hsl(30 5% 88%)" stroke-width="3" opacity="0.4" stroke-linecap="round" stroke-linejoin="round"/>
                                            </svg>